<mxfile modified="2023-08-16T06:23:14.867Z" host="app.diagrams.net" agent="Mozilla/5.0 (Windows NT 10.0; Win64; x64) AppleWebKit/537.36 (KHTML, like Gecko) Chrome/115.0.0.0 Safari/537.36" etag="IsCr_lQ3NMYWmAf4Hxxf" version="21.6.8" type="google">
  <diagram id="Ht1M8jgEwFfnCIfOTk4-" name="Page-1">
    <mxGraphModel grid="1" page="1" gridSize="10" guides="1" tooltips="1" connect="1" arrows="1" fold="1" pageScale="1" pageWidth="1169" pageHeight="827" math="0" shadow="0">
      <root>
        <mxCell id="0" />
        <mxCell id="1" parent="0" />
        <UserObject label="https://velog.velcdn.com/images/cho876/post/435f7c0c-9fda-4a67-aecc-a9633f5ffff4/image.png" link="https://velog.velcdn.com/images/cho876/post/435f7c0c-9fda-4a67-aecc-a9633f5ffff4/image.png" id="UEzPUAAOIrF-is8g5C7q-74">
          <mxCell style="points=[[0,0],[0.25,0],[0.5,0],[0.75,0],[1,0],[1,0.25],[1,0.5],[1,0.75],[1,1],[0.75,1],[0.5,1],[0.25,1],[0,1],[0,0.75],[0,0.5],[0,0.25]];outlineConnect=0;gradientColor=none;html=1;whiteSpace=wrap;fontSize=12;fontStyle=0;shape=mxgraph.aws4.group;grIcon=mxgraph.aws4.group_aws_cloud_alt;strokeColor=#232F3E;fillColor=none;verticalAlign=top;align=left;spacingLeft=30;fontColor=#232F3E;dashed=0;labelBackgroundColor=#ffffff;container=1;pointerEvents=0;collapsible=0;recursiveResize=0;" vertex="1" parent="1">
            <mxGeometry x="200" y="83" width="700" height="607" as="geometry" />
          </mxCell>
        </UserObject>
        <mxCell id="IiSIE2QJ0df0l0FEDecD-39" value="" style="whiteSpace=wrap;html=1;hachureGap=4;fontFamily=Architects Daughter;fontSource=https%3A%2F%2Ffonts.googleapis.com%2Fcss%3Ffamily%3DArchitects%2BDaughter;fontSize=20;fillStyle=auto;" vertex="1" parent="UEzPUAAOIrF-is8g5C7q-74">
          <mxGeometry x="280" width="420" height="350" as="geometry" />
        </mxCell>
        <mxCell id="IiSIE2QJ0df0l0FEDecD-52" style="edgeStyle=orthogonalEdgeStyle;rounded=0;hachureGap=4;orthogonalLoop=1;jettySize=auto;html=1;fontFamily=Architects Daughter;fontSource=https%3A%2F%2Ffonts.googleapis.com%2Fcss%3Ffamily%3DArchitects%2BDaughter;fontSize=16;" edge="1" parent="UEzPUAAOIrF-is8g5C7q-74" source="IiSIE2QJ0df0l0FEDecD-9" target="IiSIE2QJ0df0l0FEDecD-7">
          <mxGeometry relative="1" as="geometry" />
        </mxCell>
        <mxCell id="IiSIE2QJ0df0l0FEDecD-9" value="AWS RDS&lt;br&gt;(MySQL)" style="points=[[0,0,0],[0.25,0,0],[0.5,0,0],[0.75,0,0],[1,0,0],[0,1,0],[0.25,1,0],[0.5,1,0],[0.75,1,0],[1,1,0],[0,0.25,0],[0,0.5,0],[0,0.75,0],[1,0.25,0],[1,0.5,0],[1,0.75,0]];outlineConnect=0;fontColor=#232F3E;gradientColor=#4D72F3;gradientDirection=north;fillColor=#3334B9;strokeColor=#ffffff;dashed=0;verticalLabelPosition=bottom;verticalAlign=top;align=center;html=1;fontSize=12;fontStyle=0;aspect=fixed;shape=mxgraph.aws4.resourceIcon;resIcon=mxgraph.aws4.database;shadow=1;" vertex="1" parent="UEzPUAAOIrF-is8g5C7q-74">
          <mxGeometry x="123" y="61" width="78" height="78" as="geometry" />
        </mxCell>
        <mxCell id="IiSIE2QJ0df0l0FEDecD-10" value="Bucket" style="outlineConnect=0;fontColor=#232F3E;gradientColor=none;fillColor=#277116;strokeColor=none;dashed=0;verticalLabelPosition=bottom;verticalAlign=top;align=center;html=1;fontSize=12;fontStyle=0;aspect=fixed;pointerEvents=1;shape=mxgraph.aws4.bucket_with_objects;labelBackgroundColor=#ffffff;" vertex="1" parent="UEzPUAAOIrF-is8g5C7q-74">
          <mxGeometry x="435.88000000000005" y="496" width="72.12" height="75" as="geometry" />
        </mxCell>
        <mxCell id="UEzPUAAOIrF-is8g5C7q-81" value="Amazon Simple&lt;br&gt;Notification Service&lt;br&gt;" style="outlineConnect=0;fontColor=#232F3E;gradientColor=#F34482;gradientDirection=north;fillColor=#BC1356;strokeColor=#ffffff;dashed=0;verticalLabelPosition=bottom;verticalAlign=top;align=center;html=1;fontSize=12;fontStyle=0;aspect=fixed;shape=mxgraph.aws4.resourceIcon;resIcon=mxgraph.aws4.sns;labelBackgroundColor=#ffffff;" vertex="1" parent="UEzPUAAOIrF-is8g5C7q-74">
          <mxGeometry x="122" y="217" width="78" height="78" as="geometry" />
        </mxCell>
        <mxCell id="UEzPUAAOIrF-is8g5C7q-76" value="Object&lt;br&gt;(Image File)" style="outlineConnect=0;fontColor=#232F3E;gradientColor=none;fillColor=#277116;strokeColor=none;dashed=0;verticalLabelPosition=bottom;verticalAlign=top;align=center;html=1;fontSize=12;fontStyle=0;aspect=fixed;pointerEvents=1;shape=mxgraph.aws4.object;labelBackgroundColor=#ffffff;" vertex="1" parent="UEzPUAAOIrF-is8g5C7q-74">
          <mxGeometry x="470" y="377" width="53" height="53" as="geometry" />
        </mxCell>
        <mxCell id="IiSIE2QJ0df0l0FEDecD-59" style="edgeStyle=orthogonalEdgeStyle;rounded=0;sketch=1;hachureGap=4;jiggle=2;curveFitting=1;orthogonalLoop=1;jettySize=auto;html=1;exitX=0;exitY=0.75;exitDx=0;exitDy=0;fontFamily=Architects Daughter;fontSource=https%3A%2F%2Ffonts.googleapis.com%2Fcss%3Ffamily%3DArchitects%2BDaughter;fontSize=16;" edge="1" parent="UEzPUAAOIrF-is8g5C7q-74" source="UEzPUAAOIrF-is8g5C7q-107">
          <mxGeometry relative="1" as="geometry">
            <mxPoint x="380" y="257.2941176470589" as="targetPoint" />
          </mxGeometry>
        </mxCell>
        <mxCell id="UEzPUAAOIrF-is8g5C7q-107" value="" style="rounded=0;whiteSpace=wrap;html=1;labelBackgroundColor=none;fillColor=#dae8fc;dashed=1;container=1;pointerEvents=0;collapsible=0;recursiveResize=0;strokeWidth=1;strokeColor=#6c8ebf;fillStyle=hatch;" vertex="1" parent="UEzPUAAOIrF-is8g5C7q-74">
          <mxGeometry x="370" y="10" width="320" height="330" as="geometry" />
        </mxCell>
        <mxCell id="IiSIE2QJ0df0l0FEDecD-68" style="edgeStyle=orthogonalEdgeStyle;rounded=0;hachureGap=4;orthogonalLoop=1;jettySize=auto;html=1;fontFamily=Architects Daughter;fontSource=https%3A%2F%2Ffonts.googleapis.com%2Fcss%3Ffamily%3DArchitects%2BDaughter;fontSize=16;" edge="1" parent="UEzPUAAOIrF-is8g5C7q-107" source="IiSIE2QJ0df0l0FEDecD-24">
          <mxGeometry relative="1" as="geometry">
            <mxPoint x="99.23530129825372" y="486.5881922104779" as="targetPoint" />
          </mxGeometry>
        </mxCell>
        <mxCell id="IiSIE2QJ0df0l0FEDecD-24" value="EC2 2&lt;br&gt;(Machine Learning Model&lt;br&gt;Flask Served)" style="sketch=0;points=[[0,0,0],[0.25,0,0],[0.5,0,0],[0.75,0,0],[1,0,0],[0,1,0],[0.25,1,0],[0.5,1,0],[0.75,1,0],[1,1,0],[0,0.25,0],[0,0.5,0],[0,0.75,0],[1,0.25,0],[1,0.5,0],[1,0.75,0]];outlineConnect=0;fontColor=#232F3E;gradientColor=#F78E04;gradientDirection=north;fillColor=#D05C17;strokeColor=#ffffff;dashed=0;verticalLabelPosition=bottom;verticalAlign=top;align=center;html=1;fontSize=12;fontStyle=0;aspect=fixed;shape=mxgraph.aws4.resourceIcon;resIcon=mxgraph.aws4.compute;" vertex="1" parent="UEzPUAAOIrF-is8g5C7q-107">
          <mxGeometry x="60" y="207" width="78" height="78" as="geometry" />
        </mxCell>
        <mxCell id="IiSIE2QJ0df0l0FEDecD-46" style="edgeStyle=orthogonalEdgeStyle;rounded=0;hachureGap=4;orthogonalLoop=1;jettySize=auto;html=1;fontFamily=Architects Daughter;fontSource=https%3A%2F%2Ffonts.googleapis.com%2Fcss%3Ffamily%3DArchitects%2BDaughter;fontSize=16;" edge="1" parent="UEzPUAAOIrF-is8g5C7q-107" source="IiSIE2QJ0df0l0FEDecD-7">
          <mxGeometry relative="1" as="geometry">
            <mxPoint x="370" y="88.99999999999989" as="targetPoint" />
          </mxGeometry>
        </mxCell>
        <mxCell id="IiSIE2QJ0df0l0FEDecD-54" style="edgeStyle=orthogonalEdgeStyle;rounded=0;hachureGap=4;orthogonalLoop=1;jettySize=auto;html=1;fontFamily=Architects Daughter;fontSource=https%3A%2F%2Ffonts.googleapis.com%2Fcss%3Ffamily%3DArchitects%2BDaughter;fontSize=16;" edge="1" parent="UEzPUAAOIrF-is8g5C7q-107" source="IiSIE2QJ0df0l0FEDecD-7" target="IiSIE2QJ0df0l0FEDecD-24">
          <mxGeometry relative="1" as="geometry" />
        </mxCell>
        <mxCell id="IiSIE2QJ0df0l0FEDecD-7" value="EC2" style="sketch=0;points=[[0,0,0],[0.25,0,0],[0.5,0,0],[0.75,0,0],[1,0,0],[0,1,0],[0.25,1,0],[0.5,1,0],[0.75,1,0],[1,1,0],[0,0.25,0],[0,0.5,0],[0,0.75,0],[1,0.25,0],[1,0.5,0],[1,0.75,0]];outlineConnect=0;fontColor=#232F3E;gradientColor=#F78E04;gradientDirection=north;fillColor=#D05C17;strokeColor=#ffffff;dashed=0;verticalLabelPosition=bottom;verticalAlign=top;align=center;html=1;fontSize=12;fontStyle=0;aspect=fixed;shape=mxgraph.aws4.resourceIcon;resIcon=mxgraph.aws4.compute;" vertex="1" parent="UEzPUAAOIrF-is8g5C7q-107">
          <mxGeometry x="220" y="50" width="78" height="78" as="geometry" />
        </mxCell>
        <mxCell id="VgrGSykFXVLjbO5vFSzJ-3" value="" style="shape=image;verticalLabelPosition=bottom;labelBackgroundColor=default;verticalAlign=top;aspect=fixed;imageAspect=0;image=data:image/png,iVBORw0KGgoAAAANSUhEUgAAAmEAAAKVCAYAAACH9jxEAAAAAXNSR0IArs4c6QAAAARnQU1BAACxjwv8YQUAAAAJcEhZcwAAFxEAABcRAcom8z8AAP+lSURBVHhe7J0HmFvVmf6BkIQESC+kbDa7m4Qs2aUZ26N7NZ7QgumkOAk1hLCQQoCQZAObfzIhNNujezXjhk3vZegGDC4wgO3RvVfS9N5n1KYYV4qNy/l/79GVGcy1PaORRu17H7+PZI10+9X56Tvf+c4BLBaLxWKxWCwWi8VisVgsFovFYrFYLBaLxWKxWCwWi8VisVgsFovFYrFYLBaLxWKxWCwWi8VisVgsFovFYrFYLBaLxWKxWCwWi8VisVgsFovFYrFYLBaLxWKxWCwWi8VisVgsFovFYrFYLBaLxWKxWCwWi8VisVgsFovFYrFYLBaLxWKxWCwWi8VisVgsFovFYrFYLBaLxWKxWCwWi8VisVgsFovFYrFYLBaLxWKxWCwWi8VisVgsFovFYrFYLBaLxWKxWCwWi8VisVgsFovFYrFYLBaLxWKxWCwWi8VisVgsFovFYrFYLBaLxWKxWCwWi8VisVgsFovFYrFYLBaLxWKxWCwWi8VisVgsFovFYrFYLBaLxWKxWCwWi8VisVgsFovFYrFYLBaLxWKxWCwWi8VisVgsFovFYrFYLBaLxWKxWCwWi8VisVgsFovFYrFYLBaLxWKxWCwWi8VisVgsFovFYrFYLBaLxWKxWCwWi8VisVgsFovFYrFYLBaLxWKxWCwWi8VisVgsFovFYrFYLBaLxWKxWCwWi8VisVgsFovFYrFYLBaLxdq3SksPKtKqP3FqWd2hqffyQ0tKqw6x18RisVgsFotVuJriCXyhuKzu32aU+76teNccqXqt0xWveZ2qmzem0oqn+iZVM/+heMzfTPf43Fgf7CoL/mvJgqbD7M1hsVgsFovFyj+VloqDplyx5KNKhf8/3JpVoujGuS7N/Iuim3cTKD2qaGYlgdIrimZ0q7oxlErTMofJg7SOZnpcpmrGY3KdurmQ/GtF853h1q1TivTq4xnKUishxEFVVVUHs/fuysrKj9iHi8VisVisiWvWrMqPuG9r+GzJXPOI6V7/dAKfS1ya74+KblUQfC0nGAoQAPUQDG0mIHuXAOlder7dXe4XabPXL2g73pPrkzbX0/9bCdRMAsA36PlDqh74XZHmn1asv/6V6bes+vKU2Ss/be8Sawxat27dp2Kx2Jf6+vq+Eh0YmBodGro4EolcEwmFrh2kR/aHfC0dn8tjodCJIyMjX+3t7T1iaGjoiGg0+sWBgYFP2IeVxWKxWKyxqaS06mDFa7rcuvV/SplvCQHP0wQ8dfQ4QKD1JgHXDnoUKkGRuzwg4UgCktcS8vW0mZZvr0ua1p1YJ23bLoKxt2k7ES17yuUx7nBpxjzFY15X7LGUojubPmfvHmsPid7eQ8Lh8HcIvk4koLiWAKIiFo3eEYtEnoxGIrX0Wl8sHO4n4Ohjf9B0nPrp+LSQX6Tnd9Ixu528mI7hHDqelxKQKaFQ6OjNkcgX7MPNYrFYLNb7mlnR8XFlzprDp1UYnyrxVn3GVWacpGrG7apm9hLgbCao2ToafvA8/cA1RmM7pBPbZhGQyajcZkTKCBg7VI/5ZJFm3EBQeTH9/fQSr++bJVVVB9u7X7DatWvXx6N9fUdFw+FfEETcTsD1CrmDYGI9eTP53aHBQcHet4eHhgQdq204ZnT8pAej0SECsTp5TKPRh+n/fyWQvZSO8/kEZSchYsaRMhaLxSpgTVkS+CTByvcUj3mpS/P/Q/H4bqX/zyU/SRAWK64I2tGmLIKu/TkBZLILMx6lo9ffISDrR04ZPX+VHssUzfdjl2ftd0uWBAouQgH4Ihj4LlEC4GtJLBYLECxsJO9IQEUCMAZjMfYYPBrI4JHhYYCZwDGNRSLvkAcIxFrp//UEZS/Qcdfo8crBwcEiev6Njo6Oj9unh8VisVj5LES+ZmjV/+3SfL8kOLmLgKtW0Y0YeYSer1N14x1AjOz+cwKdHPPufDIJZMZORbditJ/VBGOPqHrgenr9+yWewoAxO+frLGr4FxEEBAkUNgAiEuAFcGCnxgk4Gw219jF+jzxCUNZEUPYCPffSOfklnY8ZAwMDXxNCHGifLhaLxWLlg5Dn5b7ljS9OL/cdrXqtyxTPbvjaCNiSUaPRCfAOMJPztrsuZXRP5pCZbxOI9ZKX0us3AMamzjc/bx+yvBJGOQ4ODh4di0Supob/eWr41yXgC4+ABnb6jGOc8Ggwo7+hG3NdJBxuIhB7keD4pmgodAaS+xnGWCwWKw9Ucm/vIUqFcaLqMW9UNONxgo8a8m74knDiBC35bBvGbODcpuhWD2CMHv8PJTjcFTVftA9fzguNeTQanUIAppGbCcK2oruM4SuzHg1k9mvbyWHyCoKxmwcjkXOR1N/d3c0jfFksFivXhOr1BBjfc2nWL+nxEVUzQwRe70gA8RYofH3IOBbx/DFFN7diMAKB6lL62/X0eOLUW1ciMpazEQlEwABg1Kjr1LgPAL5GNfrsLHECyOxcsu0Ey2GCZYMe74+GQhf39/d/FefSPq0sFovFylaV3Ft1iLvMOMoN+PJadyq6gcjXZrdMtEduFMOXo+3uWFU3tsW7KY3nCcr+4q4wphwwK/cKciYAbCgW06hh70cDb3eBsbPYu6Njkcgu+v8W8hv0/CY6lzNRi8w+vSwWi8XKNk2ZHfi0qltnq7LEhJ3zJSNfeZrnlQbLYxWHsffI7S7dWkTH8dxTygPfQBFb+1BntQBgw5HI8dR47wYw7n7MLQ/akbEoRlhGoyGCsBWxWOyfkUjktI5oNG+6y1ksFivnVVpaepDiNY8lALuGgOF5god1Er4KNedrwqZjJiNjAaFoxjAdz9dUzZpDx/L0mRXGp+zDnrUa7O//92g4fCtBWB8DWG4b587upsSoygjB2AtD0ehvhoaGvkWw/TH7lLNYLBYrE8LUQm7NnKno5nwCiGZFM7e6Kxi+UuJEFNFr7iQIG1Q137Nuj3F+kVadtRX4qXE+jBrqi8hGItdodKPOzk2PSuLHiMpgNBJZMByL/WwgDmM8kpLFYrEmW64FwX916/7fq5rxMnlo1Ig/diqN5P2KIJ6/LefO1I0/EIxNQekP+1RkjWKx2IkEYI9RI72Fk/DzzzindH6RL/ZmBMn70egt9P8pDGIsFos1SSpZUHXYDI91nKpZN7h1M0B+j5Pu02/Zvaub21TNbFO95kKUsziqtDJruoRQX4oa5n8SgIXsLix2HnpUF+WuwWi0lyCsYoTgm+eoZLFYrDTrlCWBT7t04yeKbt6v6EY7eZcNB+xJcLykRVAQiA3iHLg0389LvLXftE9PxiRHQw4MzKQGeUUkHN7J3ZD570QXJZ1zaGk4HP4dQfg37EuCxWKxWKkUJtlWPL6fKZr5gqpbm+QoPu5+nHzbgx4IgDeS17p16/8U75oj7dOUEb01PPyVWCTyT2qcwwxghWNExQBidM7fpfPvH4xG/9Dd3c0gxmKxWKnUlNkrP00A8FMVox+95jsyR4m7HzNquwt4l6IZLarH9ze3x/yOfbomVVVVVQdHo1EZBaOG+T2GsMJzonsyAWKxWCzj0VkWi8XKCyECRo1+HMB0823ufswi41wQjCm6r1nVzP+XCRCrq6s7lBrfG6gR7udk/MI1zj0B2E6C8RryrZFI5NRdu3Ydbl8mLBaLxRqv4gVYCcA03wv0GI+AOcEAO2OO54nZIObx/W3qJIPYSDh8ZDQSuYe8mSGssG1HQXfFYrEwgflT9Dhr3bp1WV/bjsVisbJOiQiYPZ/h2wxgWWyCMLfX2h0Rm1Fe8237NKZdkUjkPGp4V6Px5a5IdmL0JD2+PRhP2GcQY7FYrPFoWikBWFk1ARgiYAZHwHLAiIZJENMIxLyT1zUZC4d/SY1vGwAMDfCejTK7MG3nib0TjUSeR0Sso6ODQYzFYrH2J0yNQ436T1VMIs0RsNwyuiYxYhUgJnPE3kg7iAHCCL7aGcLYezoRESMQWxoZGPih6O09xL5sWCwWi7WnEAFzl5uz4gBmvC1rUjk19uzstQ1iiIgpXvOv0+e89u0DDkhPRfNAIPDJSCRyLTWyPQxhbCevGxnB44ZYLLYkGo0eZV86LBaLxRqteBK+7IJkAMtxy2R9GREzalWP9buSBU2H2ac5paJG9T+j4fAdBGGbOCmf7WSAOUyw3hwOh/8cWrfu6/blw2KxWCyopFQcrOrW2QRfz1Ejzl2QeWBZ0FUz31U04ymXbpyUjrkmBwcHXQRiywnCdnBSPntvtqOkO2KRiDUYiVxDMPYv9iXEYrFYLCRxq5oxj7yumAEsbywLusopjnyLZ3hN16xK8RH7lKdE/f39xYPR6KsEYTxVEXufxvVB3kEwZkVCoWtGRka+al9GLBaLVbhyV9R8UdV917h1s0423lwJP3+MKY7iUD2g6sbNyvxgShu+SCTiJgh7hSGMPRYnKuvT9VIVjUZ/gjlH7UuJxWKxCk+IjLg8gdMUzVymauZ7XA0//yyT9HVrh6IZqxW9+kJlzpqUVTFnCGOPx8gNQ+4gXS/rY7HYYgKxKQxiLBarYOUu9x2t6kYFQdggA1j+Wp5bzXhb1f2PqrN9bvv0T1gMYezxOgFi9LyTIOyvsa6uL9mXE4vFYhWOEBFxaebVBGDNspHmbsj8Nbolkaivmz2qx/ybWh74hn0ZTEgMYexkbEPYdvIKuobOqx4Y+IR9SbFYLFb+q6S06hBF859BDfRzimZsleUMnBpvdv5YQrZ/B4GYz6X5folrwL4ckhZDGDtZ2/lhG6LR6D3kE+xLisVisfJfJ3qtI92afwE1ziPcDVk4ltEwzdyiaNZ9qmYcY18OSYshjJ2sd+eHRaPtdA39sbe39wj7smKxWKz81VGllR+jBvkXqtcMql5rF3dDFpLpXMtq+ma9WzP/p0irnlA3EEMYeyLGNUMw9h5dP6/GwuGfNTU1fcy+tFgsFis/VTIv8F1VM5dQQ7yBo2CF53g0zNhCnnA0jCGMPVEnuiVjkcjikUjku/alxWKxWPmnmRUdH1c1/yWKbgZkBIyjYIVn+7wrutHg0q0rppQGPmlfHuMWQxh7oka3JByNRgND0ejFgqNhLBYrX+WeLyvj367qxkaOghWu7XO/OR4NW510NIwhjJ0K26MlN9D1xNEwFouVpxLiQGp0T1Q18xVFN3YiN2jPxpldIPZa8Qm+dbOGoPwSujoOjF8k4xNDGDsVRiSMHneRZTRs165dH7cvMRaLxcoPTavo+JRb9/9B1Y1ON3dDFrwlhGlmlMD8n1Nvbfm8fZmMSwxh7FQZuWF0HcVzw8LhI+1LjMVisfJDbq9vOjW4j1MD/BZ3RbLjEGZsUzTrmWKvOQORUvtSGbMYwtipsp0btisWi/llblgg8FH7MmOxWKwcV2npQYqn+nJF8zXLxpcjYez3uyS7ijXrz0V3Vn/OvlrGLIYwdiqdyA2LRSK3R3t7/9O+zFgsFiu3VaRVf03VzDnkYbvhZbPtBH3MKWk8ONXzxnfsy2XMYghjp9KJkZIEYX66ri4Svb0TntWBxWKxMi7V43MrmrlU0YztDGHs3ZYRUWsHXRurXR7jvClXjK8LiCGMnWrbdcPWIzdseHh43D8MWCwWK+vk9phnqZphvd/w7tEYswvWdvHWfkX3/++U0qXjqhnGEMZOte1o2E5Ew2RumBCcG8ZisXJXMys6PqVq/qsIwjpUnfPB2B+0uxyRUWOdovnKirTx5YUxhLHTYTmnZHyk5O10jXHdMBaLlbsquc33TcXjW8wFWtlORve0ohnvKrpZSaBeZF82YxJDGDsdxrVk54ZZ0VCI64axWKzclTp79fcU3Xga5Qi4QCv7Q0ZklIyprBTN+rF92YxJDGHsdNkeKbmRQOzBaDQ6QwjxEfuyY7FYrNzQlCWBjxZp5g9VzVyDBGzuimR/2IAwPyCso8hrXHlU6djn7mMIY6fTdgHXEF1nNw8PD3/FvuxYLBYrN3Rq2fJDqaG9XtGNAe6KZO/NyAtTNOSFmeXK3DX/YV8++xVDGDudxjWFawvXWCwcPsu+7FgsFis3pMxZc7jiMW8lCBuJJ2A7N8LswradF7advLRY9x9vXz77FUMYO51GXpjdLRmJhsO3hkKhr9uXHovFYmW/AGGqZt7CEMbep+MQtoOukxXuMt90+/LZrxjC2Om2HQ3bQX5lOBo9Q1RVHWxffiwWi5XdOlp2Rxo3M4Q52E5I36eRL+X02XyzDWGq5lterPmn2ZfPfsUQxp4My5IVcd020t//VfvyY7FYrOzW9HLflwkmdGpg1xc8hBFUodvN7Q3Y0/U4vGcPu/EZem/8c3T8JJg5vzenzRDGzmLb19Z2RMOQGyaSmGyexWKxJl1qme/7yPNRPb73CrI8RQK8AF2auUPRzXfpdcyVOETP6xSPz+dkVTOqFc00VN3XrujGRjqG79L/t8rl2VCWV0DGEMbOctsFXKPIDRsYGPiafQmyWCxW9sqlWT8HbEgAy9cojpMT4KWbu8ibCbr66PE1gownVI/xICYzp+NyYbHHPM3Rc40fTPf6Tlc85u/p/bcTgD3i8pjP0nJqaDkR+ux6cnweTthpG3LJDGHsLDeuL1xniIYNh0JnCiEOsi9DFovFyk65y6yLCRZaJIAVAITJLlcABQESQcUGes0igLqboOsvisc6x+VZ+90T5/r/o0ir/hpqqNmHaa+aMjvwaVdZ8F9LtOpvTfcYUxSP71LV4/ubqhnzaLkrafkAsu0S+HL5+DKEsXPA9kjJ6FAsdsu6des4GsZisbJbbs26iBrXvIewRO4WPX9L0Y12t2auoMeFLt26mF77HgHXJ2dVVk644vZRlU0fw7KKPda/uHTjTFW3bibAe4XWESEo2xGHsRyMjDGEsXPA9jW2nTjslVAodGZlCu5pFovFSpskhOlmcz5DWDz6Ze1SdQNRqUpVs64lACsu0qq/VVJadYh9KNKikgrj64rmP0PV/LcourWKQCZKj9vtbXLc3qw0Qxg7R2xX0Ze5YVxFn8ViZbVU3Tpb1cw3qKHdlZMRmv04Hv0y3ib4Crh0Q3NXWCXTKoxP2bs/KZo1q/Ijxbr/K26PeZZa5ruFYAYwNpxTUTGGMHaOWE7sHY3uIK+KhUJn2pcii8ViZZ+mz/b9JwHKXapmbJZJ5E4NcI7aXRFE7tcWgoelqte4TPFaR6aiy3EiIgD8ugswphuLaBvbaNu22d2k2W2GMHaOOFFFH9GwWCRy8zoeKclisbJVR5VWHUagknfTFkmw0Ywtqsf3rOr1/eioBU2H2buccQEEMfWPS/P9kcBmGQHZZgCj035kjRnC2Dlk+1pDFf1V0VDoDCEEV9FnsVjZJzltkW7lVcV8JOHT49uqZr7gLjN+UpJFADZaJd7az6he60cEYU+6dTO7QYwhjJ1jHj2nJOeGsVisrJScwBuRMM1Ylx8QFi++qmpGn+Ix/veUJYFP27ualTq6rO5Qt8c4j47/U4pmbnGXZymIMYSxc8y43gZjsfei0egqzClpX5IsFouVPSpZUHUYNbI3qpo5mBcQtnuUp9FKIHaJvZtZrVMJxBTdOBcgRvuQnRExhjB2DjoRDSPdzHNKslisrBNKNCia+T/U0DbEyzg4NMC55NEQ5vXnBIRBdB4Oc3nWnoeuSdoPArEsS9ZnCGPnoO1rbkc0Gl0pc8O4bhiLxcoqCXGgqhlF1NC+SI+5P3/kaAjTzV/Ye5kTQteky2Och8EEim6+lVWjJhnC2DlqXHcEYRHyLRwNY7FYWSe3543vqJr5BDWyW3O+TEUOQxgku4c14xI6Fwby27IGihnC2Dlq+7pDFf1VZIyU5DklWSxW9gjzJeYlhE0gJ6xIq/7E9PKGL6Pi/d6MqYmUOWu+OiXFyf9u3fp3t27MVnVfKF7QFfvjsK+TaYYwdg5b1g2zo2F9fX08UpLFYmWP8grCEqMjdaOdIOxX9i6OWSim6vb6ptOyfqFoZpmi+e7eq3XjHnrPAlrnNXTsTnR7zO8cVdr0MXtRSauktOrg4nn+aarXWEj7kB0DJhjC2DlsFHAlAEMV/ZWYU9K+PFksFivzylMIi7kJotzzze/Yu7lXJaYVwoTbim7dRID1vKKbdXQ8hmXF/b3awGTgG+jYdZBfodcWKuXWRS5P4LsTnpOysvIjRXrNKbTcF2i/tmW8W5IhbLdpf6hR/6CH9vg/3uP0WXZmnKiiT8/pkuQq+iwWK4skIUw3n8wPCCPLLkn/DoKieoKkUno8YW/zRZbcW3WIW7NK3ARfBHCr6PMRArj3sBx0BSIKtW/TewAoukmAYmxwaYZf8ZiLCQBnlXiqvmCvJimVLAl8we0x/0rb0ifPSya7JQsUwgBX6wZjYv0QeTj+uI48Qq8Nw/T30cbreP+bifeT8X68l8Ess96dG4Yq+tHo6VVVVVxFn8ViZV4z5vi+TQDxEMHH2wALx0Y415zYD4/RqWjmI7RvvyvSqqcBxmZWdHwcOV+IWCme6gtVr9z3AYBUAq7GDTwEKfFjZxGQWetpWSsUj+/SKRMBMSEOdOnGSbTM5+n8vJdRQC4QCAMoDQ9GxYaRmNi8blBCWFdfWNS0D4hX6/vE00aXuOfVDqG/3Cpufr5Z/P2ZJum/kW98rkmULWsRi1e2icfXdonlNT3CbOkXrd0hEQlHxUYCsk20TIAaomVO62en14iGRcJhYrDoLUNDQ0fYlymLxWJlTieVN3yZwKGUGttQXkTCEsa+EEwREL1F/28GjBVpxj8JaG5weXx/UzTfEtpvn6qZm2SB1FREmmgZdrHVbbQeRNZ+MXW++Xn7UI9bJZ7AF9xe86+0rL6MlqzIYwgDeAGMEtGrgVBEvFbfK+57vYPAqln86oE6cfbtATHDa4ppHkNMK4t76l4s/07vo+tKzFzgFxfeXSP+8kSjWEBw9oK/W0JZIrqGR4Ce03axU+9ENIyuS66iz2KxskOYUBrdZ6pu1CCSk9FurzR49whDj/kOwcwQwUSUHCOg2EQN5a50gGd8+iHjPZkr5jEvPXl+S9IgplT4TyRgRG5Y5rqL8xDCAF+Arg3kvoGIeKW2V5S92CIuva9OnDbfL6bONcRxc3xiCj1OJ6hyEVQRyAPq9296H96PzwHMsJzjyTPoOvzpnTXi+qcaxZPVXRLIAIAbR+JRN6ftZKfWcqQkXZgkrqLPYrGyQ8VlxpkEKFa8wc0vCJNGhIpAItHdKA2gSeO+xiNX1lZFR0TM/4tkQQzRMJfH/BtBUH+8y9N5fWl1HkEYugJl1Ivc0BkS977WIS5/oE58v9ySUSxAFyJZACnHY5GkAWdFtFwsH0ak7Cd3BMWcF1rEGw29Ego3DDOMpdv2dRivoh+Nni6E4Cr6LBYrs5qh+c5QPKZPNhj5CGEZst2FuE0lEHPr1sUl3trP2Id8zCotFQcp5XR+NHMNgfKujJyfPIGwBHzVtQ8I7aVW8eMlQXG8DUVFdpTLcf9TbKwHkTLAHqJkJ1dY4n+faBSranolhCFCxzCWPidGSsYikZuHuW4Yi8XKtKhxL3Lp5pP06zw/RkhmkTEPJAHMVoKopzAS0z7k49IMrfq/FY91P8piZCQ3LMchDKMTN47ERHNXSFQsbxNnLwrI7sYTyJMFXvsyYOz4uT5xYnkcxl5v6N09ytJpf9gTM67FwVjsPUTDQphTUogD7UuWxWKxJl9TPIEvUCOLpPUYQ1iKja5QAicCqAGCmFtmlPu+fcAB4/vSx6hORbP+TMuLl6twWk86naMQhi4+RJWikah4bE2X+PmdNTLqhTytVHc3psLIIQOMnTrPEnNebBUt3SHZRYnyF077x07eo3PD3uKRkiwWK8M60F1mXazoZo0b3V3cJZlaE8TQcd1FkOtH6QpUxbeP+5ilauYPZZekbk5+l2QOQhjAZSMBTKB1QPy5slG4PGbWRL72Z0TGAIvn31UjnjO6d4/edNpPdnLG9RhN5IaFQsgN42gYi8XKnIp0//HU0D9BoPAuGl2nxoGdvO1uxBHV45vrKlv7Jfuwj1mueYHvEgjdR+doy6RHw3IMwtCVNxKLiSeru8V5i5H35ZNJ8Y77lqVGpG4KbXcJAffcF1tFT39YjuREdM9pn9njc6KKvh0Nu4lHSrJYrIwK9ayoob2NIGwwI3lH+W6Akyar8T+n6EaxfdjHLPdtqz9L56ecGucNkz5KMocgDN2P/QMRUbasVW47ol8f2p8cMrooERX7zUP1ItDSLzYBxLh7MiW2r8nt5BVD0ehMIcRB9qXLYrFYHxam2SlZUHWYMmfN4aN9atnyQ2dVTmyoNZbt8hrnEygEVS0DXV757ve7eRvoGF8y3i5JQJjL47tV1Y2hSYfkHIEwRIqQR3Xd440SvmTRVKf9yTEjKoY6Y7PuCIqVNb1yP3n0ZGo8MjyMbskwXas39/b2cm4Yi8X6sJQ5rYe7K4wpqua/kr6Ub1TLfLdQQ36zNJ7r5vUzvNY50yqMr5eWlib9aw7rUHTraWrot3E0LPVGBItgZpga1TJX2dp/tQ/7mCSnWvIalykes45gbqfqdV5HWpzlEIYuOoBJbduA+J8H6iSwoOSE477ksBERO32hXzxrdHMZixQ5EQ2ja/U18vlDQ0OH2Zcvi8ViHXBAyYKmI1y6cbGqWQ+pmtlMX8aD1CCOxBtz6RE58s5rvkaPN1HjPvWA0uTC6lMXmEeodmHQ+PyLHA1LpZHLRcd2G52npwmgj7EP+xglDnR7fdPpcy8rurl9UiOVWQ5hqDiPBPyL7q6R+V+IHDnuRx74hDJDnFRhicrqLo6IpcgjyA0Lh98iPzwYChWJAw7gJH0Wq9D1r6VVhyhzjGICr/9Hjd8bbt3ajEYcEardVd93G1ErixpJq9etGeWucmtqaZL5DarHfyo1uJPf0BeCATN0XMnLinX/8fYhH7Pc5cGjFa+5lEBscif0zmIIA4jUtA2Ii++pFcfPyY3RjxM1QOzkeZac+gglLDhHbGIelaTfSdfrdb29veMuqsxisfJIrrLgv9rzOT5IcNVDDcuO+HyEzl/KsAQ0TB6t+UIAsRkEYsnkiU2dax6heIwKgr/13CWZYtsQRs9fTAbCCMCOVXTjeYawuNEl19YdEr+6v05Wni8EAEsYIPaDeX7xcqBHFqJFl6zTMWKPzYAwgrF3YpHIE4iG2Zcwi8UqNLnLfUe7datU1aw36Mt2owShsTa4XksUE4gpADHd8Lgrao6yFztmzaxY9nFqzC6nRjeolvt3cjQshWYIS5nXDcVEb39E/OHxhngXpNN257mRI/bDxQHha+qTEUGn48Qem3dHw6LRDrpm/7Cuo+NT9mXMYrEKQe7bGj6rlgfc1Mh6VN3oooZvRzKRKNk4xz9nEkD9yF782CXEge755ncUj3mrhDksj0EsNWYIS4mH7DpgmPwaoyBdWn6MgkzGGIRw2f21or0nxAVdJ2hco3Stbo3FYpWD4bDLvoxZLFa+q0ir/pqMPnmMp6iRHVC9gThMOXzp7t8ETDKp3gwRSP0VUxLZqxmX3Lp1Cm3LMvL2SW3w89kMYRM2ut02jAyKx9d0CTdt23SPw/YWkBEBBIiVPtMkj83IoPNxY+/fiIbZ12l7NBr9wwbODWOx8l8nabVfo0b1KlU3qt1e6x0k2k90VCKWQY3mVnr+DDXaxclMyeGuqPmioll/py/5fs4NS5EnCGF0nRyjes0XChnCkAdmtfSLc24PyLwox+0tMGM2AEzL9PDqLs4Pm6DRJUmPMjdsXSw2naczYrHyVCiwioZY8Rj/Sw2zj75Md8rEeocv2WSMRpoazm56fn2JN7lfdPFomH8ZLYMafQaxCXsCEDblisBHi3TrbLdmrqbP75jULuIsgbDhwagIh6PiOuSBzWEAG20A6XmLAyLQ2i/e5PywCVl2S0ajHdFw+DrODWOx8lCnltUdqujGuapu3UuNWzs1zEnlf+3LNoRtVTXzWWVeYNzT5EDuije+qGrWDapmdMQjL5wbNiFPAMKmVRifImD/P/ps36RHJrMAwlCGAfXAHnqjU3ZBFk1yHhidN+HS4tMITSXgQVI8QBBdgTD+DxDC3/G+ya5Vhu3DXJP/91STPFZcPyx5SwiLRN5FbliYc8NYrPzSUaVVh7k9xnn0pfkUAdImmb8lAcf5y3VCpsaaGoNuAr7//YFW/Tl7E8as0lJxEPKQXLqxiJaxjrslJ+gEhHmtF0q8tcfah3lMktMWaYZGMDT5pUOyAMKQdN7UGRKz7qiRsOG4nWkwKu/LKZDsrs+ZC/zikntrxTWPNYi/PtUo/v50k/gb+U+VDeLy++vEOYsCYobXkjA22VMnTSM4LabH58xuCaxOx5G9f48aKdk+GIlcu27dOo6GsVj5oKPLYoe6vQAwAwC2xV1RQw1c+qJLMjdMN7apuvWMogeKMfLR3pSxiz6DUZbkVwggdqQNGAvBdK4BM3QcV7g8axX7CI9JxfrrX1G16kW0nI3xvEGH5afLGYYwRHYAYdqyVgk2iPo4bmcKDfhC7TE8v+DuGnHr8y1iKcFNXfuA6OoLi4FQREQjtH22Q+GI6O0Pi5aukHi1tlcsWtkmfv1QvThlnl8uZ7JgDNE5TN2E8h3rBrlbMlnbuWEyGiar6HNuGIuV25qyJPBJGQHz+J6mBu2tVOZ/7dXeRLek2U3P/1KURDQMKtb9BAC+P9J2t8huSS5ZkZzl+bB20fMGl8e4oqS09xD7EO9XLt04icD9BfrstnjXsMPy0+UMQxhynFAV/+xFAdkV6LiNKTK6EtG1WEzn6trHGsRTvi7RSdAFCFxPxiPgZhi2u/3wiP+PkPH3xHvDBGZVdX3in881i9MW+OVy0z2npYtc5DHFI6s7uXbYBCyjYXTN0jUs64Z1d3d/2r6sWSxWrqmktEl2Qbp14ylqzLZMCoAl7A0gcvCuzA3TjaRywyD3XN/Rim7dRcvYOKnbn2eWXYmauUnxGPe5PcEp9uHdp5Q5wa+qHt/f6Dz2ZGROzwxCGKJgAJqyZa1iSpqnJUrke116X63s0kOka/O6QQlXtB+O27c34/0ANHQLAsrWNPaJ/3uySZbVQDTPaf2pMpaPLtO+gYgczOC0fez9W1bRj0bfTkTD7MuaxWLlkpCEX6z7z1U08ym319q8v+mHUm8rUbKimxr/v7gXrf6svWnjUpFW/YkZXuscgjBE8rZM/n7kib10PtAtqft6yLe6yq3/sg+xozCNlOo1rlQ1o1rxWtvxWcflptMZhDCUpEAUDCP/0lmSAssuKbeEh2Cvuy8s4Qnw5bRN4zVgLDHZNuZ7/OHiYBwo0xQVk4MWaNmY5HsjR8OSdqJumMwNGxy8dmRk5HD70maxWLmgUx/AKEgAGIqwmluKMwUustE3tpFfoi/nHwKo7E0cl0oWNB2Gz9MynyO/zYn6SVqCGIGN12h3ec05iFDuWVQX3dcANJduXePWjNV0/RCAZeh4ZwjCErlgd73antZcMADYGQsDEpAwHRLstD0TNbotAUWoc4b5LtE9ie5Pp22aqDFi89pHG0QkHKH1Mogla/u6fTcWiXA0jMXKJZWUVh1Gjeu5qm48SV+KmzPdhQdgokZsvaoZd+4v+rIvKXe1Hu7yWpfRr/igjMpQA+20PvZ+jOMGuNHNfkW3nnbp5vUEuBcUe6yfuTXr50WacRUd47vpGmqQAJZJ4M0QhCHPqn8gIrsH0xUFw0hLFH5dWdMrNo0MTkpph43Dg6K1OySufqQ+bRExdK2eXGGJNxr6OBo2AY+OhkVCoWu5ij6LlQM6qzTwSVW3zo5HwCY5B2xvTkRfNLNZ8ZjXlSwwj7A3d9xS5lhH0n55COgict8y0UWWD7Yhls7Ju26NYEzzNdMxbZTWzU6Csk3x92UYdDMEYeiKBByh5EM6EtoBdmct9NM6eiSAIfLmtB3p8IaRmOjoCYvfPkQghpIbadi/4wjw5i1vk9FEOg+O28Hev0dV0a+MhULT7cubxWJlq2Z4rOMIwu6lL8JNWZXEHm/wqTE1X0G34gEHJDfsuqS06mAChSLFay5QdQIx7packJGzt3vUqW1EGWUpCvzf4TOT6lEQVqIHT7Avg/0qHA4ryUIYoAEQdtsLLTJZPtVdkSj4WkLHFqMfN2Gqn0kEsIQREatvHxA/v6smLcn6OG5I0O/pj6Qsv61QbV+/7XRd/mGktZVzw1isbJUyZ81XqcH6M0FKW9Y0oruNhh0FXH3rCMYW0DYec0CpOMje9HEJIFak+1XFY9xDy1o/6bWr8tG4VhLOptkJRkGYe261al8C+9VILPZ9QNhgNLLzTQIOWdZhjEYiex/BA7oikTvluF1JGnlYKL6qv9Qq3qR1TUYXpJMBmpvWDYqXAj3ipAprd0HYVBldkifNs8Rr9X0yGua0DeyxeXQ0jHPDWKwsFeppKV7zNwQ31Ypubc94N5KTqYGXkRfNbFM1/19K9kgIH49KqqoOdmm+n2N/Vd3YlV3AyU6Z5Xk1diq6aaq67xq3Xq26y3zT3V6/o4++9Y3ps5e2ucPh6HVdPeFAd194Z+9AREZkxmqUh3g52CN+MN+f8kKngLrL7q8T3f3hjBc0BQC+OTQoS3DIiF8KuyWxLEzuvXBlm4RaQJ/TNrD370RuGD1vj0Qi16znumEsVnbplNmBTyt69eXUWK2lRiuzidT7cXyUnfGeohkvI3dtVmXTx+zdGLfcHvM7BGF3kjdTA/yhdbHzw7Kshmasp+cmPa7Yl4s8vuWnLbBWXHRPrf+iu2s2XHJvnbj4ntpx+dJ7a8UPF8vBJI7bk6wRBUOtLlS/R3fgno1tJowoVWtPWPz0zpqUF6NFBf1rH6uP1zrLUMQvXywT9CORd6PR6OOxWGw6V9FnsbJHB7rn+lVVM5+gL753c6GGFqJh1GCuVzTfAy597UnJgtjRmIxcM25TdGOEuyTz3PFI50463zv2bXOHix6LPMbO6QQ9AItkjO60D23DBI0phP7wGEo3YPSlc2M72U7kv91T1SH3OZXgiaT/nxHctXSH0lZ6o5AsQSwabY+GQn/o6OjgOSVZrIyLfg2h5IMar/fUn0sgEh80YAxRo1k+fc5r37b3aFxS5qw5nODzFoawAjFAbDx2WkaGjK45TEf0rIFk/OyIgiWMaBgmKP/pHcGUluMA1J06zy9eqesVG0cYwiZqWUU/Fns7EQ2zvwZZLFamVOx5/V/oy+5v5A7ZHZdlDc8+Tdvq9lq7FM0IunXriqI7m8Y9tyTqoallPoYwdtYbIxAvuqdG1h5D8r9TI5spo6sQeVuzX2iR0bpURcOQF4ao4iNrOsWWddkFnrlqO0m/bTASuWYXV9FnsTKnknurDlE068eqZrxOX3i74vP6OX8ZZq3lNltbaR9WEohdPPXWlZ+3d29MUua0IhI2hz6/jiGMna1OwAggB11/2Zikjujci/5u8f1yK2VdsYA5VM+ft7xVzsHJeWETt52g/240EuFoGIuVSc3wmi5FM+5TdGNDLtfKktvutd6l/VgBECvSqscUESstFQfN0I1iOgaPE4S9zYn57Gx1IiH/BX9P1pZrQPJ8e09I5nClsksSkbXSZ5sleGaqHEc+eXcV/UikHdEwHinJYmVArkV1X1I16wb6hd2dD5NZx/PDrK0EVCtVrfqS/YHYrMrKj7i9vukEX/NU3QgzgLGz2YgsnbUoIOo6BrIWwhClGqJHDBxI5VyZKMmBZQ6EuGhrqpyoG0Zgi2jYmGeRYLFYKdDRZcsPVTXzAgKWKvqi3J4vABKP5sVBTHZNzjf30jUpDsT0NQAw2v+QHUn70PLY7GwxuiIvu69OdPeFsxZEEKnCCEbPi62ycGuqIAxRtStQFy2L9z0XLbslY7G2SCRybStX0WexJk8EH8coHvN+ArHNudwN6WR7fwjEzBXFunm54rWOVMsD33CVrf3XxKO73DxZ0X3z6T0hdwUDGDv7jXpZf6psFKFwvNvPqVHNtAFhiNLd91qHHMmJPDanfRmvAXQX3F0j2nvCXKYihd5dN4xzw1isyVORVv0JArDfKJrRlK9dcAAxagC2Kh7DpP8/qmi++xSP737a5/tQV0zRjWUEovE5IxnA2DlgJKeXPtsUbzyzOC8KEPaEr0vmsMFO+zJeA8J+cmdQ1grL1q7YXPSoKvqIhnFuGIs1GXJ5rOMIUB4gCHkrXnne+Ysv5x0f6biT/A7B19ujrerGtpwrx8EuaCM5fe4LLWIEeVdZDmHL/D2imLY5lRA2iyEsLU7khslo2MAA54axWOmUrInlNa6kL7YGOS9kvkMI7R9ga09n5ZyYbPY+DAi75fkWmfie7RD2jNklt5khLPudiIZFIpGucDj8975Y7N/s5oLFYqVaylzzWFXzP6BovrfyLReMzc5nozvyr081yYnBh7Mcwh5e05ny7sifMoSlzXaX5C7y6mg0+iO7uWCxWKnUlCWBTyq6+Wv6UmtUvdYu7opjs3PHKNNw1cP1oi8Lq+UnnEjMv31lW0oT8zEyFBOid/RyYn66bHdLhugc/nVDb+9n7GaDxWKlSorXPFbmgnnzb0Qkm53vnkZQgy651iyOBqFOGEZu/u3pJglOqawTdtVDDRJAuURFemxHwzBS8oVIJHLurl27Pm43HSwWa6I6qzTwSZkL5i2QXDA2O8+MyNJJFZZY09ibtRCGXDUUVEU9MxRrddqPZHz8XJ+4/slG5C1lbRQwHzwyPIzHdXScF42Ew0fazQeLxZqoFG/tsapmojTDWzw/Ipude0bXHqrm3/tah5w7cs8GNBuM7fI19YkzFvrFVNpWp/1IxnJk6IstYl2M545Mp+0kfeSGBYai0UtEIPBRuwlhsVjJ6tSyukNVzX+lqhuNqm5xFIzNzlEjunTtYw1iOEthZMu6QXHXq+1iKm1nqpLy0aWJ7sh7qjrkBOHIO3NaNzs1Rm5YNBLZEIlEFo9EIt+1mxEWi5WkDiyZG88FUzRjC+eCsdkwfoiMxU6fzZyRZ3X6Qr8wmvvFhmGZw5M1Rq5WOByVgwcQuXLa/mSMbljUHHve3y02E+Q5rZudOiMaBsciEX80FLpI9PYeYrclLBZrvJpVKT6ieozLVM2sd5dnZ8PCZk+a7bpx8bzIsZjuFzKiMcnYcRsmYCwT0TD9pVaCsOyKhqErcnmwR5TQ90yqomAwwPOc2wPC39qftd2w+WY7GrZRRsM4N4zFSl7uipovKpp1G32ZDXEuGLugDZjSjK0EMgP02LFP60Y7Hos8ZuiEMmPrlLlIDjdkt9hYjbkeMfF0qmEMUHIeQUl9+4AEMadGdLKNumXoJvzj441y3522O1njOP7qgToRCnFS/mTZjobtjMViiIZd0tTU9DG7SWGxWOOR6vG5CcKeUTV7mh6HLzk2O+8t8yCNXXQvNBFgedwe4wrFU305AZKjp5RV/+qXDzRccd9rnd5HVne2VlZ37XrC1y2eqO4as5+zumUy+Qxat0tLLZgAdG59vkWsIyjJhur5yNV63uqR+0rg6rjNyRiDERD5u2lps1g/RGDgsG52emzXDVtPIHY7R8NYrCRUUioOVjTfRQRg9YluFacvOjY7703XPsHXDmrUV9LjD6Ys2f+oL9RJ2vpm7Mz1Q4NVG4djOzevG5KwMVa/u35ItHaFxI+XBGVEzHG7kjRGSaJcxcvBHrFxJLPRoTeHY6K9Jywuubc25VEwdGsiH+xpXxd3RU6yR+eGEfxeJITgkZIs1nhUMtv4On2JzXHrBndFsgvbXj+6Ineouu9ld0Vwin2L7FeDg4OuoVh0VTQS2WkXsxyzhwbj3XR/qkx9Fx2MZV54d61oJtDLVLckkvGHqKG+8blmuT2Kw3ZOxJiu6Jzbg6KxMySjfk7bwE6f7WjYBgKx23mkJIs1LokD3R5jiqoZz6ma7z3uimQXtBMQpvmWF2v+afZNsl9FIhH3YDT6SjIQBgOOHnyjQ7g8qZtHMWEAz5Q5hrju8QbR1x+RESmnbUiXhwkyUTT2zlc6ZLdhUYr3D0Y+2A1PNcn1ZfOk5flqGQnDnJIYKRmNXsxV9FmsMWpmRcfHFY95KbnOzfNEsgvdGYIwzHPY1BkSZy0KyKiO47ZNwAA75Ez9/ZkmEQ5FZd6U03ak2kiQB2A+/EanKKHvlnTsG8AOy0VX5MYRLk2RKe/ODYtEFg+Hw9+xbw0Wi7UvTb115edVzZxDDc8w1wZjF7wzBGGI3sD/IEhCVMdx2yZoRKAwYvIvTzTJCa6Rj5bO0hXIzUKx2DtfaRffL7fkup22a6JG9+b5d9XE58rMUHcre49oWCh0sRDiYPv2YLFYe5PLYymKbjytasZW7opkF7wzBGEwIkYrgj3i+97UjhwcbYAYoOXKB+tEdRMKucZSPtE1YBIRqa6+sLh1aYuMVKULwOSoSFq2rIeGUZHcFZlRj6qif3ukt5dzw1is/UnVzAsU3azjUZFsNjmDEDYyGJWV5H//SENKK8nvaeSIoZbZmQsDcoqf/oEIwdig7BKlfXDctrE40fUICHs50CMuu79OAl86csASRjfkGbQfwdaBrJ2svJD8gZGSkciFvb1cRZ/F2qsw/N6l+a6mL+WeeBSMIYxd4M4ghMHoInzW7BZu2pZ0wguM6BSm+rnigTrxjNEtevoiYiPBGIAMIDUWIEPkCfCzmbY7GomKNxr6xN+ebpLdjxgMkOpRkKMtBxwQ5N32fHMcIDkKlhVORMMwUjLMuWEs1t7l9pjfUTzmfGp01nM+GJtNzjCEIZqEaNhvH6qXgOG4jSl0ImEf3Xq/ur9OLF7VLlY39osIbQNyupDAD8ja03gdUS/kfNW1D4hH13SKPz/RKE6eR/A11yfrkzmtL5WeRutAFMxq4WmKssl2NGwn3ROJ3DCuG8ZiOanYsxb5YC/RL8rtaHycvujY7IJyhiEMRm7TS/bcitPTHA1LGDAG6AOQzVzgF5fdXyv+8WyzuPPVdvGM0SVW1faIVxt6xSt1veIFf7d48PVOMefFFvHbh+vFeYuDsrTG8XN8oijFFf/35kQUTF/WKqEQkTunY8nOjBMjJem+4Cr6LNbeVKRVlxCEvU6NDpemYLPhLIAwRJcAFX9/pjmtuWFOBtwgzwpABSBLDBAo9r5vdJUmykIk5r1MdW2z/RkA9vO7akRLF4+IzEbjHpC5YbGYhdwwwXNKslgfFOqDTff4fkZfpgH5xcYQxmZnBYTByMuqaRuQUSbAkOO2ptkAMsAVjPy0hBOv4e9On0u3E2D4+FquC5bNlrlh0egGgrFFYY6GsVgflKts7ZdUzbyFGpwoT1XEZtvOEgiDkXP18OrO3RDkuL0F6OPmGOKvqI4ficlq/E7Hjp15y0hYvG6YjIZxFX0Wa5SKPa//i+Ix7lF0YwtDGJttO4sgDEn6tEwJHOgeRBeg4zYXkNEN+dM7gqKhY0BCqtNxY2ePR4aH8Shzw7iKPos1SsUeCxB2H0HYWwxhbLbtLIIwGEnnLd0hcck9tTIC5LjNBWKU1DipwhLL/D1i4wgDWC7YHikZj4ZFoxdxFX0WyxYgTNWMexnC2OxRzjIIgxHxea2uT5y50C+T4B23O8+NUZfoll3ySjuPhswxj5pTchGPlGSxbDGEsdkOzkIIQ5fkRgKxp40ucWIa52DMViMfDoMTbnm+RcJXqqdZYqfXdm4YquhbI4ODF3AVfRaLVKRVf40hjM3ew1kIYTDgAwVJ73+tQ7gJSlAewnH788yIfiEP7Ponm8RAKCIr4zsdH3Z2O5EbFouPlOTcMBbL5bGOU3XjSVUz30XD4/QFyGYXnLMUwmAk6q8j3/FKG21j/oMYAAx10q57vEH09EdkN6TTcWFnv+3csJ10j5hkzg1jFbZKSqsOLtKMSwjAgm7d2sVzRrLZtrMYwmCUZEB33N1VHaLEa+Ztjth0LV69//onG0V3X5gBLA9szykpc8N4pCSroPWt3y/7uFJm/FnRzQHuimSzRznLIQwGiAFKHlvTKX4w3y+76xz3JUeNOSExsfhNz7WI/gGOgOWLcV8gIkb3iEn3C9cNYxWuZlYs+7jqMa9XNSPCEMZmj3IOQBg8RI0ZRk0uD/aIWXfWyG47dN857lMOGZN/f7/cFLevbJcDEnIVwAZjdvcxbT9y+XCuUFbjQ7b/BmNfEeXM55Gf9kjJjXS/PEAu5m5JVkFKQphm/oW+9MIMYZNsryXc1NAn43juHncdp9V0jHMBwmA09Gi8g20D4ppHG2TXJKJIjvuV5QZAoiDtT5YExXNmt8x9y5VRkIDFBHQBuDavGxTrCahCoYho6w6JQOuAeKOhV6ys6RUv+nvE81a3eAH2d4uVwV7xGv3NbOkXzV0hGfnDvmMZOLcJKMM6nNadi0aSPt0nvYORyP91dHR8yr6FWKzC0fuRMJMjYel2ArroOLvLA5hvbzs18luTsaob2+TyaDlxKCMg4zk/U+scgrCE0fAPUOO9YHmbOGWeXxw/N3eiYph/EvCI+SD/9HijBErMB5kL0aBh2kZEr2A8R+7aq7W94t7XOsTNS5vF1Y/Wi0vurRXnLg6KU+f7xfdxr9J5cdG+KrZL6DWcs7MWBcSFd9eI3z5cL/7+TJNYtKpdLCNIa+sOiyFaF9YBsMuH8hx2bthbkXD4wZGRke/atxCLVTg6qrTpY0qZ8QdFM3vRoDt9ObInYAlKicgVXjPeUnRjhB476XGVPSr1ifHYrZuViuZ7gZ7Xq5oxSN5Iy9mJdchzuHtd7Ak5ByEMRuOMRrqqrlc25NM9hswVy9Qk22MxonboRv0RQcoDr3eISDgOlE77l03Gsd5MoIjoVG37gHhsbaf4v6eaxKw7gxKoAJSI6mHfcA4wihXnY/Tk5wnjNfwNxwIwmvgcasGdWGHJCdwR5bynqkMYzf0iHI7IdQPKcjU6ZtcN20X3iswNq6qq4i5JVmFpVmXlRwgUfkQN+hr6MtzJXVwpcgK+5DE13yFQGiDQNcgPKJ7q2QRgf1DL/afO8Ab/s8QT+O74vPa708t806lRvVz1mDfSsm8nr6Jz2EHQsFHRre2JiBufzwk4RyEMRvRow/Cg7NK677V2OcciGnY06NkSGQMUAjqOJzgBsNy0tFmCDOArm6M86G5ENyG6CBHxesboEn99ulGcc3tA7g+OM4znONYThV+UIMGycO6wXEAaBmFcS0D24BsdoqkztDsKl2s5ZICw3VX0o9E7o9HoVCHER+xbicUqDM2Y4/u2WzfvR5SGuyQn5gT80Bfvdvp/mOComoDrYXq8YXqZ9aPp5b6jp1UYn5qyJPBJ+/AnrZLSqkNKFjQdVuL1fdPlCZymeM3fuHRrEX1pryR46KDz+Ta2ZXd3pcP2svfhHIawhDF6ctPIoMwxWrCiTUaaEI1BNyUiL477nWYDSgATiAydPM8SNzzVKF5v6It3s2V59CvRFdjaHRJ3vtoufnFvrYSkY+f4JBzhudM+p9JYB0aMyigZHcOf3FEjyl5skflmgEMcQ4Ci0/ZnoxMgRvdLD0FY6dDQ0BH2rcRiFYZKvLWfIVD4P7rB+ya1SxLRIkDLGJ3VIIFtjMPXDvp/RHY1auYt9HjuDM3/31Pnm5+3D3faVHJv7yFTPeZ3ijSrRPGY1yma9Titv538rjyGDNjjMx2zXIewhGWkhBro5q4BOefipffVymr7aMgBD6mI2OzNWK4EBzLgD+Bw3uKA+OdzzWJ1Y58EBkSVsjmKM0Qwi9GLHT1hccerHWLWHUEx3QbJTMEsjPMmI5y0HWcsDIi5BGM1bQO7E/md9iUbbd8nOwjCVpHPEAcccKB9O7FY+S90SbrKjJPcuvmcqhnvuSuCjjf8mAxQGuVE4y8TyOXj+/+nde0kbwUk7NvmuwQ0W9G19uHlvG80mh9Y/2R0xWEfaZvQBUgNdpTWuYp8s7vcPEuZv+arpUIcZB/mSdWUJYFPqxVGEW3ftQRjldQIdtD2vi2PH46T076wP+g8gjBYdqMRjKEcArrRMPKw9Nlmce7tAdmYy+4uaszxCLCYCJRheTK3iZYHozvtpApL5qjdW9Uhux0TUaVshi8cMxmdi0TFk9Vd4uJ7ancfI+yj075nwjhXON7o2gXgLlnVLnr7w7JLOle6KO1oWCQWidw03Nf3Fft2YrEKQyffan7e7TGuUHVjLd3UO8YMYhJ4AEF7jNKTEGTuIm8mD5EHCaRsG0P0pdFLj6/Tr/FKauQeofU+unebj7g037P02SA9j8jl7V6Wbd16k17f/oH1k9/fLnvbnPYhSbvLcYyMnS7doG2yVike81ZF859RUmF8/QAhsuKX3CmAMS0OY26dYEw32mnb38FxSfXxyDvnGYSNNrqtMPIQkIGuymeNbhmZ+uV9teLMRQFRTPt/3GyfOJqMBPEEeKChR1cYEs5hwBW6NxPdi8fQ+2H8DXlL599VI/5c2SjBy2rpl3M+IkqTC11mKDOxgY4RthujNel7RkLOZHQ5TsQyb4z8qwfqxIqaXgm7uTDP5u5oWCSyMhqNni4y9AOWxcqYinX/VwgkfqN4kaRvvSsBRvrDUad4Ix7vfiMj/+kd+pIKUYPVTA1Xo+019Ld7qOG/ya0bparHd2Pc5o30tz8rXusc8pElWvW3SrTgPlz9rSK9+nhaxy9oHf+PPvvP95dlWzPmERC9TF+Q9Yn102td9P5N9PievY1yu7H9cQBJEkIAd4A63XyblutzeXy3ziD4Uuas+Wq2wNeect+2+rO0zdPpXPyBjsmz9DgS3xe5H2wn5zGEJYwoSSIiBTDrG4jIkXdP+rrE/JVtovSZZvH7R+tl9+WsO2rEOQRop8635Gi9k+ZZ4syFAZlndtE9teLKh+rEDU82Cs+yVvHA653i1bpe0d4TFsOx+PKxHnSR0bFx3JZsMrZ1MBoTD7/RKRPuUTgW0yc5XidZaETp0PWL6GPFy23yvGZ7vh08TPcLARjdQpGbR/r7v2rfUixW4QggQTB2OcHMM3QzdxFkrKfnm6jR3rjb8v/mm/SI0XhV5GX0/0eVMuPvirbmIrfm+7nbY5yveHznFGnV/12yoOqwU8uWH3pqWd1u0+ufQDeovdox6ajKpo8hoX30chJWywPfUD3+UxWP9TO3Zv0cdum+a1yacSdt5wu0fSsIxmrpEVG5zfR8hyphLA6VEkbGEBlye+MRJNrnftVjPEnQennxQutfDijNjV9tGBRA2386gfYCOhZ1AFQJ1A77WvAuAAgbbUSmEtMgIZl/y7pBgTwyjLAETDV2hmS+kdHSL6qb+4SvpU8E2/pFfceAaOkOie7+eB0rlE0YXWA02yNeexpdeF19YXHjc82yfhciS47XRw440SX8+0fq5bnbSPuWzecD98tgLPYegdhKupZmcjSMVZD6gdb0OYKtYvo19UcCKS811vOpsZ6XcPz/pk7v+YNLN04i4JriKrP+a3q578v2IrJCBJSHI9I2w2Mdp2qri+gL9VJ0GRI83UHbv5z2o5UeQwRpW+gLC6Uk4pEyRyBD16aEtR2qbrTRcm9z637VfVvDZ+3V5YxmEcy6PIHvusqt36q671UGsb24wCDMyYiUAaTQnSUjZgRWgKvEFDv4P5yIcuH9uRDpcjLgZNNITI4yvPLBejFlTjyXzfHayCHLqNgcn4xkonsS5w1TXTkdg2ywXUUfurmPc8NYhaxppcanSjyBL7hvqfkiHhPG/0+e3/L5aRXLcmqaCUTf3IsaPlvssf7F5TVPI/j4FX1JXU9gdj8iegRXNeQYPX83Dl3xLldAGfK/6PUNBG1v0P//6q4wjrIXm7OasoTOpeb7peohENOtrQxie5ghrGAMAMOAhdca+sRPCVYwapR+nDlfFzlq5OydNt8vnqjuInAelFFPp2ORadsTe++g5yujodAZ9m3FYrHyTkIcqMxpPXyaZhyjlvm+70IXqm7eSo9P0hdwEEBG0LVVLffvoteH6fkDLt3/E3R92kvIeblveeOLEsR0k0AMUyH5Hb/AC9IMYQXhOIANygnQMWUQcqkcr4c8MLomTyy3xP2vd8roJaZYcjommfSoumFypGQ/54axWIWhktKqg6cuMI9QvOaxql79C1Uzbib4eoqAbI3i8S1G1yu68uy3541KlgS+QPt6leIx61SvJbtl2WSGsLy3BLDhmHg5QAC20C+jRY7XQh4Zo1xneE0CsQ4JYtlYwsK+b7aTV0TjuWFcRZ/FKiRNWRL4aJFW/TlXhaUomu8MgBkGBth/zju5y31HxwcaGFvtkZ9shrC8N7ogX6/vE2cvio+AdLwO8tAAsZJySzy+tktCaDYm68vpjGKxcCwSufktrqLPYrHSKUw/5Cqr+xLKhBTrr+9h/1dK5ppHIJ/NfnvKhfWounGzqhlRhjDbDGF5bYyC9Lf2i5/dWSPrfzleA3nsKQRiqOW2Itgjk/XpmnU8Tpky7h05UjISWTkcjZ5u314sFouVGinzg19FhK1Iq8Y0Q79xYcSpZi6h54s/YHqNAGmhqgeuR1SOQKmoWK8+fhqKwqZIiPy5NOvntOx6WT9tDOU68t4MYXlrdMOhDAVGQWLkoOJ0/gvAiP79eElQjggFiDkdq0zantwb0TCuos9isSYm5JNhnk5AlKqZFyDy5NLNJ6kBqCLQaqb/v0mNPsplYJaB3bZfQ302zDKwlkBslaIbT2MQAT2/iEDOhWmK7NUkLVeZcSatK0DrYgiDGcLy0iODUVnPDHXAjp9jFCyAwdh3QOhvHqoXPQSl2VZZ375/MFJS5oZVjrO2JIvFYh1Qcm/VISXzAt8FMBF83UKN+hMEU7XkGIHVVoKvnYAeWaNMzkbg5Hj9MvrS3ElgsJMet9KyBsn1CqYj8prXAe4AefZqx6WS0qpDXJrvl27NaOJImG2GsPxzLN4NiUr4qJ9VlENV8NNlFx2DE+b6hOfFVjlrAmY4cDx2GbJ9D4UjodDNw8PDHA1jsVhjl9tjfkdGq3RzMUGSH+BEz9+V0EWNPAArDjxjhB68VwIbfZY+j+cECpjovJ2ArpKWHa/gf8D4pk8q0oLfou1cQEC4juuF2WYIyzujsKy/pV9Ov5TLlfBTbRSlLfGaYlmgRw5WcDp2mTLuIeSG0fMVsop+aSlX0WexWPsWpgdy69UqKuvTl5xFkLRhdAHYOHg5fyGOywCy92HuLYIwg37Z3oxyGpjOyd6cfUqOAvUYV9BnLdVryqic47oKzQxheWV0Q0YjUfHnygZZjJV+EDmf9zSafiiJIjKgR05+bjvxf/wNETqnz6bbKM/xi3tr5RRVmP3A6RhmyoncsEgodNNQby+PlGSxkhESyWeUWVMxJdJErHp8bnd58OgSb1VSXW/pVklF/deLdfNyasAfp+0dcHutXXH4Si/cyHVoxi76og8RUFW6deNiTH5+wD5+OQLA8D7a1pXUKKEwreOyC9IMYXljOh8y8RzV4hMg5HjO02C6F2VJCIzAnEaPxV5TnDLPEjMX+MXpCwPi9EVken7KPL+s3wUYAxAhUodtdVpmOgz4QzHXiuWtWTdaEvcR3U87ouHwimgoxCMlWSwnIfJyypLAp2XDXhGcgsm0CQp+RfBxmUs3rlA8vlvpC+kZatiq6KZ/NRnjswQ2q+jL6QH60viLXD5Z8ZiX0+MliACh3AJyozB35AGTnMiJKZFU3bqGttNAZOr97kbnL76UG5GxCtmduIWOkUHHajYich+KitFxUeYEv4o8MIKv5YpuvcvdkHuYISxvjFynjp6wuPieWgkajuc7xQbUAKYAX2cRbF31SIPQXmohEOwUbzT0ifr2AdHSFZKTnzd0DIi1jf3iGbNbzF/eJv74eIP40ZKghDYkzk9WdAzgdyZtq9XSn1WjJUdV0Q/T/fVPHinJYpHcFTVfdHnWftc913e0y2vOUDX/VWj0CbS8qm48So8BasQ6YAKkLuRD0Y2+jd6zc6Km5b9FkNGfWD691kmPTbSOF9yaucCt+cponTcQEJ1Nj8fQer9XvLDxX0pL0zcrPyJgADDaNtmtl0moseFvJwFESNF8j7g167cuj6WUlFv/hShi/LhYN9MxW0PHcStBs+NyCtoMYXlj5Dnd+Wq7hBqX07lOoRMRJUSxLru/Ttxd1S6s5n7ZFbphZFDCDUpkYCQi4FCanuO1xATpqGJfR5D26JoucQ3BGyJkWOZkDCTAiFGMHMWURtk00bcdDdseRW5YJHIaV9FnFZaEOHBmxbKPFy0Ifkv1+E6lm/Wn1IjfgIgUgc+z1NCvpNdaCIZG6HE9gcg7MgJEDRks85Zsx1+fmN9PTB9lgIdmvEfbs4G24U3ahj5qRFfTNi5F9xx9Oc7BdEQu3TizSK8+HgVSMVWRvYcT0jQAmIcATCMA081dEoIcvuAm04lcMToGWySg6sbLdGyeob89h+NCjwRo5g6OgO3FdPwYwnLfAJz2npD4+V01MjLleK5TZOR3TaV1IOL22JpOWfZhEwFgAqycts/JeC+AbDNBWzgcFS8FesTvHqoXRZ5416bTulNl7MOp8/yiurFfvEnb4LR9mTKiYXR/yTklBwcHv2zfcixW/goJ5urs1d8gwDmV4OsagpmF1DCtItfTDdtH/3+LHrfR4/Y4HNllFiQYETDJUX8JO9/0E/Oo5UtAi4NH3AFhR83eo+17F5E4go5mer6WGtaHFI/512Ldf66rbO2X7N1NSsWe1//F7TWvpvWYtA0ZjYA5WQIhjo0EVLJuyGik3E55jpw/V/BmCMt5I68J0/Lc+5odBUtjJAldeSdVWML7UqssBItSGEhwxzY4bdtYjWVgWaFQVDzweoc9yXj66pthuYi63by0WUbnJrr9qbR9P22PxWLLOTeMlbfCHImK1zpSqTBOdGm+q5Uy3xLFYyDShS6/DXGwSYzKi9eveh+4nG/sjJm2KxERktsZ38ZdBCJvE5SF6PljM2g/7V0ft6aX+75MYHOVjIBlIYC9b9pvHAfbDF9jMB0nhrDcNqJg3X0R2S2YrigYoAXL/vGSGrHM3yPW0zrTUfQUMLZpZFCsbeoXlz8Q35905YoBKM9dHBDBtgEZkXPankxZ5oZhpCTnhrHySbNmxRO1izRzZhGgQjcXEqS8Qu4gYNmIxuh94MrhRhzbDTArD8qRhAQnL7k8a0+2D8P4hOR2zX8GHaPldIx22gnx7HwxQ1jOGwDxUrCHzmN6Sj9IAJvjE5feVyun/gEkjafbcbzGRNuIinX2hsUfH2+UEau07BctE8te8kqb7Ep12pZMORENw0hJutdOE1xFn5XrQukItcw6nW7mW+hLZYXqMToJLJBXtUNGT/Kw2wqRMfqiWa94fPOnzU5uDkaCuGNcmjGPHoeyNwLGTtoMYTltwBCiR399uilteVSIRl12X50c6Yjk/8nqukO0rW8gIv5U2Ujb4JPQ5LR9EzGW+z8P1Inefq4bxmKlXCgl4fb6p7s0388JuOLwpZth2egkuu7gbOxiTIHl/mlGm6JX/35mRcfH7cMyZp0ye+WnFY95HX35tcQBjLv38s4MYTltjDps7AyJHy4JpAXCECn68R1B4bcjYE7bkE4jQtXZGxJXPlQnRzQ6beNEjAjbDPrx/XpDb9Z1SeK+klX0Y7HlcqTkAQeMa4YQFitjQg2vGV7TReD1R7duVhKIyDkM6aZ77/2IV34DhQ1g71Hj+rKiG8UHJFG2AgVjCcCeouO4VS7PYT3sHHcCwnTfy6h7Z5/6/WooHFaGY7FVg9HIzpGhePcUe/K9ZV1MPL62S9D3XMqLs6KgKpLwMc0PAAzdhE6wkG5vHB6U0zCdd3sw5dMwoasV8FrxcmvWJejDdjQshNwwjoaxsl6oLg/4cnvM6+gGe5Lgo1PVjd1zGMajXs43Y74ZsEn7v54gasF0r++b9iEas85c1PBZQCwtq1OOPOQoWH6a7g26TnaQV6llvtMxETtyJ2dVOvsA+lsgEPhkR3f47JFY7DUCgZ0j9Isd9ZbYk2tMUYRRkTc+2yyOne1zPr9JGl1/gJPyl9tktyCAb09AmCwDjNANinIY2LZUwyb284oH60QoHD+uTtuQKSdyw8jLowMDM4UY33y5LNakCHWw8CueGpRrVa/5BN1YHeR3do8WzLNcr/2b9hf7rBltqte48ugxzq+YEIq9FntqFETBFM3YGocwp/Wwc97xe2MXuZWul3luzXc1PV6leMzfO3lamXHVj5YErvl/TzctvHlpc/ttL7Tsmv1ii6BH9iR7Dh33W55vFuctDsq6Vx84rxP0CXN94sJ7amVyPCJEo8EgEx4m4ASMIVE/1SNAUdbjzEUBOeggG/Z1tHdX0Y9Gw7FY7MY+HinJyjYVadVfc+n+M1XNup1uqDZAg8z3KmRwQMMqIcy01LLqs+1DNWahwCs1uNeputHJ3ZCFYFwrvvcUrxkl8O7dl+ma6nWRp5YZg8fP9b2HWk6YKJqdOaPCPLojnc/t+I06Yy6PKSvZb8xAHtjejPyw1+r7xMnz/KIohdCJyBqOX+Xarozkve3Pu3PDotHlQ0NDP6hERJrFyqQQqSlZYB6B0Y6K1/ongddKRTdG0AVXmJGvDxrHgBrMreSnij2WYh+2MUstD3yDPruEGuZNPCKyQEz3DK4bGT3en+U9xvdZvhpgjXIUqISfjlpgyXp4MJ6zdf2TTXIbnbY9GSMvDDA7d1mr2LIuOweZyGhYJBKORSL/HOzu5ir6rMwJOStqme/7BF7/lKMdNSNCN9J7aBw4bynu+LEwhxTNug1zX9qHbsxSNB/qgr1Cx3cHN7SFZpzvsdjps+xcN+acRPfcopVtAlMROQFBJo1tet7qEsXY1hTmhiGn7rrHG8UQrWMoy0pVwKNzw2gbZ9pf1SzW5EqZ6/8PgoMLFN14WNWNAbp5dkjgwK9yhxurUC2PiWZGCFBvmLIk8FH78I1JsyqbPubWzKvdutEV74rkBpfNLhRjROTMBX5htQxkVRQsYWwT8tQuuqc2pdEw5Jn94t5a0d6TXdG/hBO5YfQ8NBSL/YNHSrImVSWlTYe5vb7pLs24WdF9PrppNstq8AxfjgaEKbrZqWr+q64YJ4S55gW+G8+vMzbGIcx5HWw2O/+MEhC/ecgeKZiFESEY1fT/8WyzLLTqtA/JGNG/c5Ccn4VTGCWMaFg0EtkRDYdl3TDODWNNilDp3l3m+yWBwUMEBr2qnLuQIzR7NcBJM7crmrkS0zMdUFo6rvpg9Pnvo1wBeSd3RbLZhWPkRqE4q/flVlk9PlN1wfZnJOg/vDq15SqwnBPLTZn4n02DEfa03S0ZJXsHBwf/2/7aZrFSr1PL6g51la2dUaQZfyf4qnZ7rc27E4IdbiJ23PIYeYx3VM14yK1b/24fzjHLPbd6puIxEW3kxGs2u4BMP9xkd+ST1V1iw1D2FS5NGGUk3mjoE6fMs+T2Ou3LeJ3IL8Pk5Nk2j+Roo1vSjog1xWKx34+MjBxuf3WzWKkTAKxYN84l+HqU3Kd4zZ08Sm9sll2RmvE2Hbd71dmrv2Ef0jGr2GOeRgBXLZfHEMZmF4wRDSrWLfFqfW9WR4MQpcNUTefdHpDdiE77Ml4DQFH2AgCK7shsBVDYzg17NxqNPj4YChXZX90sVmpU4q39jKL5fkwQ8STdHJvdFcj9YhgYqxMQRr7PVbb2X+3DOmYxhLHZhWmZlD/fL8yW/qyOBgHCuvrC4vy7a1IHYeTptKxHV3fKGQKyGcIS0TB63jYYiVzT29v7Gfvrm8VKXpgSZYZn7XGKbvyBAGIZ3RhxAOPcr3GZIYzNZidjVN3H/Iw1WZycDmPAQH8oIi65rzZlk5bnEoTBdjTsHUTDBgYGpvHk3qwJqVSIg9xlvukEYBV0Q7QqmDCaux+TMkMYm81OxoCwc3MEwgYKHMJgGQ2LxdqiodAfODeMlbwwT+Hs6mmqBDAjzKUnJmaGMDabnYwBYWcsCAgrB7oju9PUHflIjkFYFNGwSORxgrHp9lc4izV2oQuyWPNPUz0yAhaKAxg3/BMxQxibzU7GSMwvoXv+9YbsT8xv6QqJHy1J3cTlGB1Z5DHFE2u7shpAR3tUAde2WCRy9bp16z5lf42zWGOQEAcWAcASETBOwE+JExCm6ta9DGFsNnusjpeoMMUzZndWgwhKVFQ39YlT56e4RAX5eX927/ue3p0bFok8vi4WmyaoXbW/ylmsfaiy8iOucmuqkoiAMYClzLsjYbp5Pybito/4mMUQxmYXrlGsdcGKtqwv1vpENeaPtGRZCaf9GK8BYTPKzawvz7GnR9UNa4+EQtd2dHRwNIy1b5WWlh7kKgOAVVeomo+7IFNtWTHf2KZo1vOqJ+BGxNE+9GMSIIyLtbLZhWkkul/zaIOIRKJiOEshbCNB2K3PN0tgRC6X036M1+jWPHNh9ufDORnRMIKxt2Vu2MDANPurnMX6sEpKqw52la+dqgLAZA4YRkByQ59aW/Gq+brVTDB25axZ45tfzK1ZJfTFtoKnLWKzC89ITj9rUUDUtw+IdYPZByMjg1HRNxARl91fJ46fk7q5I6fQfl94d63MNcvGCbz35d3RsGi0LRIKXTPS2sojJVnOQgV3AoObqZHvRxekmxv5tBhdkvQ4ouiWZ9ps4+v24R+T3PPN7yhecwGdpw08gTebXViWCeqaIe57rUNsysJuOWzTyppecWIFuiKd9yEZH0tAd82j9SISjoihLI0A7st28dZ3IoiGhUI8UpL1YZ1atvxQl8c4X9GMNarX3MllKNJnwBOB7nZ6/qLLa86wT8GYNKu08mOqZv6RztMAQ1ium37k0DnEeUyl5b3LP6Dy1ogw/frhehEOoyaXc6OfCQOOhmMxcfPSFtrG1OSCJXzMbJ/s4ty8LnfywUZ7dBV9jJRc3939afsrncWKA5ji8Z1DDftTimZusSM17LQZDaSFBP0mVav+VZFW/Qn7VIxB4kDFY16qakZj/DxxY5uTlpBE1wBgXDPeS6XpunqvyGPsmOaJ5xCxM+vE5NOpspxD0muKpVa32DiSPV1zqN9lNfeLMxYGUjYqEkZyP0aGPvhGZ85CGJwYKYloWDQancpV9FlSpz5QRwBmEYCZT1CjsEkm4jvcCOzUWkYsdHOj6jUfkNGw0tKD7FOyXyle06XK82W+w8CcgyYAQ04fwVI7Pa5QdeM5er40FXZpxnNnLvAvverhurXXPVb/5p8ebxR/eryBnQH/ubJBXPdYgzh9gV9MTzGITZlriF8/VCenB8JIyT0b/Mk2omDrBqPixmdTm5APTyOQPX1BQJa9QPkLp/XnihPRMMwpyblhLCn64j6RQOBRutjtuSCdbwR26m1P/dSnav5/TC/3fdk+JfvVzArjU4rHvE7RrXYb5tg5ZLtMSYeiV9+klvvcqmYco2o1KfGJtKyrH6yZ2tkX+f26wZg1GI3uHIrFK4yzJ9cYvbiOjv3/PdUkjkthkjqM6BqS9O9/vUOORsT69mzwJ9MoG/FysEecVG6lrEBrwogmXnpfrUz4x5RITuvPFY+qG/YY54axDphWUf91xWPdtLsYq8MNwE6jCaDoF+MORTNXuDVzpn1axiBx4Pe9/umKZlVSY/4uR8Nyx7jP6JxvIfB+wO0xptgnNOVaPxwtGYpGX6HGeefI0KCMVLAn31vWDYoHXu+U0JTqbknAyZmLAmJtY19GuyU30Lpbu0PiontqZYTOaVuTNSJq2M85L7TI0aDZWhttrB5VN6wtEolc3c25YYWrkgXmES7N91tFN0y62HdyRCUTthLRsDAB1T+Ldf9X7NOzX5V4qz6jasa1MhrGuWE5YbeXzrXXeofuuZdUvfqnR5fVHWqfzpQrPDSkEIC9Ql/2O+0uEHYGjO6zYFu/OHuRX8KE03UxER8/1yd+dX+daOsJi/XDk3+eUS4iHI7IaN8U2pZUdkPCElzJy4O9MufMaRtyzbujYdHoYzI3jKvoF56Owgi7ueYF1Bi85vZa7zGAZc6ya0omZ5vLqYE+vaRUHGyfpv1qhp0bRp/naFi2G4n4XnMnCu3Sj59flnhrP2OfxrSIfmW7GcIybxkRo8c/VjaIE9IAYUhYP36uQctvFD39ALHJAxUAGPZv7ostMm/LpaV+/3DMLrynRnT2hnOuPti+LKNhqBvGuWGFKZfHOo4a7rsUj48T8bPAcYAyhlD/S5lrHmufpv3qnDlrDlc91jWKZjTFQZqjYdlqO+IZUT3m3GTmDB2vGMKyx4jgPOXrkiMGAU17XhsTNZaJZPg/Eeh1EKwgPyvdOWKoWh8JE4C90CJHL2JOS6dtm4gRVUOpi4qX2yRc5npX5GjLKvrR6NuIhnEV/UJSaelB7jLjKGrwbyZ3yYab6wll3nQO0EjTl2kLgdQ10yqMMc8v5iqz/sulmTqBWMxu6NlZZjvSvFnRjUcxEGbKFUs+ap++tIkhLHuMCE57T0icf1eNOKEstQn6CaPbDvlYVz5YJ6f2QbJ+OmqIIfK1cXhQ5oD99alGOTggHQAGo/sWoyKR87YhA12t6bbdLdkai0R+z9GwApH7tobPotAnXeDNDGDZZZwPaqC30q+/SlULFNmnbP8isJbzSWrGMnRruisYxLLKshtS1gOrI8j+n5kVHR+3z1xaxRCWPUYEB9EwTLx9AvKm0hANg7FcRI7Ouz0gHlvTJWIRjFqMdxk6bdd4jH1A9AvlMJYHe8TF99RI6EtHFyQso2C0/BuebBQjtO50R/YyYfu+fIf27VGOhhWIir3mDLrAn6MLfBtHTbLMiIYBxHSjHQn3pywJjHnUjLvijS+qXv+V9LlqVbd28LnNIsejYO8QJD+ueGvH3NU8UTGEZZfRnVbXPiDOWxyUXYcfuk5S6Km0fDc9/rmyUbxW3ytz0tBFicgYYGqsQIP3AuA20GcxwMDf2i+r4Z9UYUkAAyg5rT8VRnQNUx+9Uts7qXluk+lRVfRbY7HY79d1dIy5B4SVg3JX1HyRLu7rFc3Xw410ljp+XqjBNiuLPZZywDhGzRQv9n9F8Zq/IRBbS1+ODGJZYnkeNGNQ1cxb3Let/qx9utIuhrDsM6JS2rLWlBczdTKq6mPk5MkVfnHDU03ieatH9PVHZNcogApgg0f8H9EtePTfELnD/zE1EkDo5qXNcuJwRKdSWQ1/b0ZE73+fbJTAiHprTsczH2x3Sb5N96kcKWnfvqx805QlgU+6NOvnqtd8hRoEHg2ZxbbPTR99Sd9apAW/ZZ/CMQklLlxl1m/jETFzJ4NYhh3vhkQduDWKZv14ZsWySemKhBjCss+AmoaOkPjxkmBaylU4GcAEcCopt2RO2k1LW8RT1V0yz6qhMyTae8Kiuy9ujEBs6goJo7lfLDW7hYeA8Rf31e6OfE3WNmOk5cm0zqq6XtkF6nQs88Wj64ZhTsmmpqbD7FuYlU9SvOax1DDfS7/GN3HDnOUmCHPHc/Ust25dPN4cIoCYW9sNYhwRy6Bl+RHNWEcQVn6Cbv27fYomRQxh2WdEdQAVd1d1SNCga8PxukmHAWMo9wCQwmhGQM4PCQZ/cW+tuOKBOpnQf9l9deInd9SIH8z3y0R/vBefkaM6HZaZDmM9mKD8pqXNsjgrZntwOpb5ZPv+RN2wR2OxGOeG5ZuKPda/qF7jBkXztccbd07Gz3bHu7DMTarXXDJ9tu8/7VM5Zilz1nz1fRDjHLGMGPcaImGa2ewut35ZUlU15vpvqRBDWHYa0TBMv/PrB+slbDheO2k0IAcJ/OiuxPRCgCxEuWA8BxwC0gBhkwVeo41tQKSwvn0gb3PB9vQHcsMikd9zFf080pQlgY+6deMnima9Tg3yLu6GzBHHG/CditcMqpr/yqm3mp+3T+mYFY+I+SSIoUuMQWySTfeaohnbCaRfoMcT7dMyaWIIy16jfMSrdX3i1Hn+lM+zmMsGGAIQH13bGe+GzONcsD2dyA2je/bRaH//CVxFP0/k1q1/pwagXNGNddwI55btrqyt9KX0QnGZcaZ9SsclZf6ar6oe43eq5qsmqNvOVfUnz/JYa8Y6Vbe0Yv31MU9HlSoxhGWvMVoRie8LV6JkRXoKuOaacQwwyflfn26KJ+OnocZZNnuPaNjVQ0NDnBuW65JRsHJzlqoba+ki3ymjKw4XPzt7bXdLDhJMz0a3sn1qxyWZrK/5riYgqKFl7uLrYHJsA2+zopu/Pqq06WP26Zg0MYRlt5HvFApFxHWPNciRgJno+ssm4xhceHetaO4KFUw35J4eNVLy0ejAAI+UzHUVlxn/5tZMRMFGOAqWm7ajYTvpV2KVWmadXVKaXF5R8by6f1M8ppeWNVxcwdNUpdvx+814m54/So3rCeMpNZIqMYRlv9HlVt8REj+7s0aWk9jzOioUYwDAafP9YlVtr6zG73SsCsGIhgHEouFwK92/XDcsp1UqDkIUTPGaa+gi5+hHDhsNOsHToEvzzTlJq/2afYbHJcAbXQOn0/KeVL3mZobyNJruNfv4trp18/czxzEFVSrFEJYbRhFV1OE6Y0Eg7UVcs9HIiUNh2UfWxPPA0FXrdJwKxbhXw6HQ26FQ6KHBUOho+3Zm5ZpkLphueskjnAeU245X0be2E4i9jlpvBFRJ5QqULGg6TA7S0I2XVd3YxmCeHrsRadSMDYpm3l2s+4+3D/+kiyEsNxyfDmhQPGN0y3pcGB3odF3lo6drhnB5TLFoRbt4czCW10VZx2rcq3TPis72dl9HR8fZQoiP2Lc0K1d0VGXTx+zGdi1GRHJjm/uOR8PMLfT8Efdcv2qf6nHLvQhzh/r/Qsvq5mhYio0IGAEYwTIBmO8Rl9c8reTeqkPsQz/pYgjLHWNqIORBPfxGp5hB19FkFUXNpDEtEaZXKn+5TcLXSAHUAxuL0SU5SPdrW2trqKmhoTQajX7RvqVZuaISr++b8SgY54Llje0uLoKnHjqv/3vy/PGXrEhoxrxAsaobzxEsbLXnNWRP0Ig22+dHApjq9Z1epFV/wj7kGRFDWG55aDBeQ+zh1V3i++VWXndNogsStci8L7XKfR8psJGQ+zPu1/a2tm3BQGBZe3v7KfYtzcoFlQpxkFsLzFI1cw013Du4Llj+OF7ywNxKflaZYxQfcEByyd5TCeBUj3k9gXqPXCZHSm3jOIwywJfunzhg7c30Iyd+j72j6FY7Pd7j1syZmYyAJcQQlntGWYb1Q4PiKV+XTFRP9yTZmTCifMgBW7SyTUYAMWel07EoZON+7e3tFTXBYH9NIPB3n8/3Zfu2ZmW73PrqeC6YZg5zFCz/HI+2GN0EYn85ZUkguarKQhxY7DVnuAjmkBsGmHBaV/7bBi3AFEBqT6Osi2Ztosc3nUz32HpEm+l5KwFYJS3vmhll1tRsADCIISw3DTBBgvrKmh4xa0lQVtVH9Xq6znLagEnUAcOUSI+s7pIThTOAORtdkpFwGBC2Pej3Px8IBOhHNyvrNasUuWD+n1DjsAa5YBwFyz/LJH0UcNWN5126cWayE0KfPH/l51Wv+RcAXUHCugQtRLwAWgaii1FqJDrpuLYrHqOTXmujv71Gj3e6dcPjZAI0zeXxzaXP/Z7Oy3T3bas/ax/erBBDWO4aIIaq+oHWAXHVw/WyaxI5VB+4hnPIqIQ/ZY4hLri7RqwguMS+cRL+vg0Qa2xoEMFAoLGmpuaSpqbJrzXIGqfU2YFvoGGgRmG4cKMb+e94F5j5JoHDAwQNP0g28uLWrBLZtem13i0kYJfHTzPeU3Wjlfb/DfrR8pRLM24u0owr1XLjV4rm+x8CtMsUj3VO0YLgtzCYwclFWvXnAF6nltUdah/SrBJDWO57w0hM9PZHhLasVZSUW+J4grFciooh+oUu1SICyL880SgaO0MSwDAi1Gl/2R90R3u78FvWSCAQ0CwruWLdrEmUq8z6L0UznqKGeRtHwfLbsgyC7BIz7lM9Prd9CYxLAAmC9hsIQnoK5XqR3bm6sZ0A7HW3x7xO9fq/r8wxT1DmBL9qH5a8Ua5DGG173NRgw4gO7enE3xLvdVpOrhvJ+qiuvyzQI35xb504Ya4vJ0ZPInJ33BxD/HBxUDz0RqeIRaLiTQIwp31kf9iIhPX29IiA37+tJhBYWmNZXEE/2+We6zuaGuWl+JXPEJbn9lrCrnzfp3rMv7nK1n7JvgzGrlJxEAHcqarHQLfbTjsPKm8t7wmvuY0A7DX6hX759PL8TnbNNQgDTCFHCLlCmFcRjwAQvDaEYfv0nig15JFw/BH/H6bX8Xe8b/Tn8BqW57SeXDSAE7XEOnrDYv6KNnHGQiTt++QoQ0SbnK73THk6bRO27cQKS5Q+2yxq2wZkjhuPgByfAWH9fX2itqZmF4FYo9/vv7K6OrMjrln7ESCMGtPnGMIKwzjH9AW8nZ6/6Co3T05mahyXZ+13Fc28m5aR31X04/lfOwjAqun+uNJVVjd+aM0x5QKEAS4ATZvXDcrHvoGIaOwKidfr+8QT1V1i8ao2cevzLeL6pxrFdZUN4qpHGsRvHqqnx3r5f7yOvy+h9+H9r9X1yS6vXlrO6OViPU7rzzUDNjF60mrpF/94rlkmuSPZPRsiY4CvY2lbZnhNcc1jDWJVTa+E5EKdB3KiBoSFQyHR1NiIaNimmkDgHsMwjrFvb1Y2aoZW/d8MYQVku4QCgVi/6vH9zbVo/NEwZU7r4XS9XKt6jO44qEhYyTvHj5OxnvZ1nqts7b/au5/XylYIAxChe01OUUPPa9sHZEmGsmWtEq7OXRyQdbJc1Kgj0jONAAOQsTfj7wAAl2bIvKlzFgXEbx+uF2UvtoonaLk1bQMyaob1AWJyHciw/QAbAM7qhj7xT4Kxs2mfkXuFavuov0U/rBzvg1QaETgk3OMcYN7LU+ZZ4k+PN4oXrG4ZqYxvo/M+sPdvQBjdu6KluRnJ+SLo9wdIP7Vvb1Y2asZtBGEe37MMYQXk+HneRn7R7Uk2GmaeRdfM66qO2RXy87qJD1QxhlTN/EdJaXaUkEi3sg3CUAMLIISGubkrJPOE/vh4g/jRYswyYIpjZvskSMhCnvR/JKDjdTT2e+tyS/wN78P74Xh3mCGXhylxkJP0h8caxAO0vqbOkFy/3I4c7x5Ddyv2A5E+f+uAWLKqXfzi3loJsABTJPHjMZVAhmOdOL4YsYl6Xz+5IygB+vWGXgm7m0byJ/KYaeO+RXI+ICzg94f9fv/f3njjDa6gn22aNavyIyXe2s+ounU2NTLL6UbZnu/5Pez3LZPNNaNf0ay/uyvGf4MSvH1H9Vh30LWzKV/hfTeEeXw3ZutoxlQrWyAMDfKmkfj6X63tFTctbRZnLQrISFciepOuEX9YLpaP9QDssN4bn20S6CpDtAbblS+RMcDYQCgiqup6RdmLLeLyB+tk7hhA7AOAOwpyYQm6o5x4HcZ78RkAF7oasYxT5vnFJQR7/3i2WTxrdouuvrDMwcsHsM02477t7upCXhgg7F3yY7W1tcfatzgrG1RSKg4u1qqnqR7jT6rXesitW12q19zp9IXEzlNLcDLeUzTfC/T8+/alMWaVLKg6TPEYswnk1uVraROGsMmHsAQcAHZeDPSIP1Y2yAmqZYSGGnY08k7nKl3G+rBeFD89sdwS1z3eILcr0XWW6zCGyNgwwRBGICKJH/l1axv7xKNrusRcgrKrH60Xs+4IilPn+2W0LAFcKB+B6BYM6MJr+FuJ1xQnz7PEeYuD4tcP1Ul4vu/1DvEKgXRHT1hCH45bfOCE8zaxJ+ZEcn5dbS0gbGcwEKgKmuYM+xZnZYNO0qq/pujGTfQl06rq1mZ6ZAArNCOXC5ChmS2qZvyqpLTqYPvyGJNKFjQBwkoJwqL5mpzPEDa5EIYG+k1qnF+r7yP4apTJ2kggR0PvdH4m29gObA+2C12VSOhHnhq222l/ctEAMkSnEO3DvvWHIqK9JySCbQMyIvmM2S0eXt0p7qnqEItXtovFq9rFXa+0i4fotSd9XbJiPwYAtHTHBzqgGxfL2kiWo08d1slOrRPJ+fX19eiSxCjJ+qBl/XJgYIBHSWaLVK/v+/SrZamiWztkAxofBcYuMEvI0Ix1dP51t279u315jEmouk+fvYSuowB9Pi8hfjeElfn+cVZp4JP2rue1MgFhiIhsHB6UOV9zXmyRydrowsoW+NrT2C6UUzi5whKzn28RzZ0hGUXKt4RynJfRpTzGa452ZdaonI8uyaDfP1ITCGh1dfk/ujsnNOWKwEddmu/nqmZV0xfKLgawwrUc/acZ2wmmnld08wT7EhmrDizSq48HzNOytuVjPiEgTNGNYVXz3YLIn73fea3JhjBEvtBYY3QcpqdBtx+6/5zOR7Y53k1piPPvqhHPmd27gcVpP/PJiGY52em97MwY3cwYIVkTDCIatjXg9z9nWZZi3+asTApD7d26VUpfIgPxhpMhrGANANeMXarHWOPymqfNqqz8iH2ZjEkneq0jVa/5BIHc1nxMzo/vk/EW+bHisrUzSkvFQfau560mC8LQaKPbCzlIc19slV18iH4hr8jpXGSrMfIPUbEZ9DjnhRY5XdAGAjGGEnYmjS7JxAhJmaAfCDQGLeuySiHG9R3PSoNmeKzjqOF8gL5A3nF787jQJntMlqChGV0E4386xlv1GfsyGZNmeH3/SYDyZL5CGGzvV5ga2/mKN+gab+5crmkyICxRJgG1uH63e6Lp3Ih+7c3YfuwH9gf7hf3Lp+r77NwyIKyrs3M0hIWDfv9feELvLFCRZpUouvEySlLka8PJHrvteRE3Kpq5oGSueYR9mYxJhQBhiBS7K/BjxQirXuNOl+7/SZFW/a2jy+oOnbIk8Mmjy5Yfinw6l8c8TS0zf+oq8/1c8Vg/c7L821z/ua4K6zgUvJW1x5Ko0ZZOpRvCZP7XyKCoqu8VP7+rRia6T/aIx3QZ+4H9+dmdQVFV10f7yTlR7MwYENbX2yu7I+1SFRsIwhbU+Hzftm91VqbkjhfZtOQXB+eDFbxl3pNmbKFr4s7xTkhdGBBGpvvEHgH6JsHqGjpWt9PzG90eoxQjJ+n5QlUzX6EfNvV0LBrpscHR8b/56PMP0ftvocdrizRz5oxy37enzTa+XnJvb8YLwqYTwgAkKE/wgtUja2+h7MTuY5wnpvMru1Wxf0vNbhkRYxBjT7YBYQP9/aMhbGcgEFhJPsm+1VmZEJKLXR7rd4rH6FB1ajQZwgre8RGA5mbVY9zBELYvx6d7InDaRd6o6MYQAdkg7Tsq6m+g47BT3k/7NZZlvEWfG6bldAHeXJrxGDXeXkWzLppOx3TKkiUftQ/xpCtdEJbognzG6JY1pwAqzsc5P4w8MczRiMKk3DXJnmwnylSgVhi6JAFjBGD0EPyRyLLoe+GIDryq1RyjeMz76cs/vydeZo/ZDGHjNIEU9hXHbbex79JO0PVhj/483Ys76Pi9S8cRUTbLpVuLFM13EWYkKLl38qdKSgeEAUBQguJ5ApJT5/ll7pTjsc0zYz8BYs9bPXL/GcTYk2VAWCQcFvV1de/nhfn9fQRiN/AURhkS8k+KdfNy+uVd7/Zau3hUJBuWIMAQljnvhjL5o2iXopvrVa9p0v25iJ5fqMyxjpxVOnnJtOmAMESCXq3rFWcuChQMgCU8pSzeNYn9x3FwOj5sdqoNCKN7WNYKI/hKVM9/i4DsvoaGhnHVhGSlSMqcNYdTY/lPdKFwFIydMENYFlkCGe5N/ECy3qTXLFWzFtGxPX+8xXSTVaohDEVMUW191h01eZkDNhYfP9cnZt1ZEx81OZLaPDs2e28GhDU3NUkIQySMAGyb3+9/wTCMKXSrc5fkZGtaxbJPuXTfXGo083auv7FZNnC2nf5eWGYIy0IDxhKRMeSbaVa1SzP/4Sqzpk4rNT5lH/60KJUQhsKl3X1h8ZuH6uWowQ/tZwEZ+//bh+tFb3+4IAq6srPDba2twm9ZibywnUG/n/75L1m2bNnH7VueNVkq0qr/mxrL++hLfUshNpiyywf7PcoSQJCn4/D+QjFDWBb7AzBmdCu68TCS990VNWnL6UgVhGFE4HAsJma/0CK7IDFq8EP7V0DG/uM4zKXjMTIYPz5Ox43NTpXRJdnR3rYbwmSSvt8fDVhWaVNTYcwAklVyeQPnqZpRLUdnFVKDCcgi0KBGbJtbMyPUkLXTcWiLN2rmesVr7SzkyOBuCOMSFdlrOkfxHxDWFvr/qy6vcVnJkrYv2KchpUoVhCER/Rlft3DT9ufKNETpNo5DsW7JKY5QK42Os+OxY7NT4TiEte+GMLtLch1B2GyGsAyIGllMttwioaRQoj9ouMoDALAo/f9Fl27eqHiqLy/2mJcSPPyOIGwhQZlJz9+OF+R0WEaeW0ZaNHMTXR+Lim/2f8W+XMYkhrDJtbsiSI/Ge6rue1X1EIh5AikHsVRA2JvDMdHYOSB+emcw70tRjNc4HihS29QZEuu5W5KdRuP+RdX8PSBsU9Dvv9OyrCPtW541WSo4CKN9BGAQaPUoXrPcrVunFOvvQ8ZRpU0fU7zWkdM9PgDZc+S33OVo5ByWlceW8KSZvQSo17tvW/1Z+/CMSTh+DGGTawnNXnMb6ou5Nd8vUw1iE4UwdLNhIuublzbLRPzJ7oak7zhR5DHE1DJDrh+5WHsar+PveB/e77ScdBnHAyB2y/PoluRCruz0Gfdvd1eXTMxPQBg930V+PRgMnm3f8qzJkkKwQV8ArW4JYHkOYTaAEXj20v/nujzWcQcc4FygDgVsqUH7oar5nqHjs8XOwSkMS3Aydqqa9bpbq545nnkRMZl1kVZdQsduOS3rvYKJrmaB7Wt0G/nVVIPYRCEMZRhW1faKE8utSZsPEmAzjaAKOVdY5ynz/OLCu2vEHysbJAx6X24V85e3yUf8/4+PN8i/432JOR/x+ckCRnRLnlRhiVe4bAU7jUZ3ZE93twQweFT1/GbLsi62b3nWZGh6ue/Limb8XfVg/js0vHncYHoT0R2jV9F8ZYrXPNY+DHuVLN9Rbv2YPv8iwcQ7hZIjZoPqFrom7nGXGUfZh2NMIgD7hFruv4qWQ2DPUbDJdvzcEfx6fK+6UghiE4Gw4VhURMJRce1jDZNWjgIRLUDUafP94upHGsQDr3cIX3OfaO8Ji1A4IiNNbw7FxAYyHvH/UCgi/17d1C/up/f/nj532oJ4EVksz2k9qTaOz3WPN4pIJH7cnI4nmz0R7wPCWoIMYZMramiPoRsfU6O8m++RHuyfohsjtK8L3R5jylgnSJ4ye+WnXZp59e4u20IoYRGPXqG79jrlrtbD7UMxJiGCqOjWTfT5oUIe2JBJ746I2SA2db75efv0JK2JQNimkUGZdI5k/CItvTBTpBHIzPGJMxf6xZwXW0R1c78cjQnQglEGYtju7kOl+oTxf7yOv+N9yMvC5wBkGMl55sKA7C7E8p3WmypPp+ODJP1lgR46bhwNY6fegLDeng9DWNDv7/L7/b8PBAKftG97Vrrl9vqnK5qxggBjRz53GyEig30kCFuleIPnHFAqDrIPwZjk9vqmq5r5BPndvI/uxK8DVGhfTcA57vwA96LVn0WkkZbxJkNY5rw7IuZNTY5YshCG/KZwOCqufrRBHEtw5LStqTIiVjO8pvj7M03CbOmPw9RwfH5G2nbH7duX8Tl8HsvB8v72dLMopuVjPU7rT5WPm2OIPzzWIKOHAEOnbWOzkzXu377eXglfCRCTZSosa2NNILCYIOy79m3PSreK59VOy38Iw35ZGAnZRI3SH0sWNB1h7/6YNcVT9QVV882jz2/Id7CIN97GOoKw+UULgt+yD8GYRZ87QfUYj9Ky3uHuyMxaDihBsj79+HB7jfPRVWyfpnErWQgDwKwI9ogS+n5BwrvTdk7UdM2J4wlcfrg4IJ6s7pLdeMipSlVyO5aTWB6Wfx6tB+vDep22Z6JGPhpy51bV9vBISXbK7QRh9gjJ7eRllmVNtW97VrqleE0XwckqanR35iuEoSGifdygev1L6P/fs3d9XDrGW/sZOkYalpPXEIZrwGvtpMbF5/YY509ZsuSj9iEYs2g5P3VrZsBelvN62JPmePkKa5Nb99+Nwsz2aRq3koEwRJIQCfvrU01pix4BhNBN+Kv764TV3C82EiwNDzpvz0SN5WL5Jq3nl7S+KWkCscQ+IaIHiE0misdm781OEGY/30Fe6ff7p9u3PSudwq9iVNlWdKOGbvxd+dhgykiMZm4leHqZ9u9HJff2HmLv/rhUrL/+FTpOC2mZG/MZwuxcojepEZivVPj/w979MWvqXPMIxWOVErBG8n6gR65YwrCfGnarjs7r5TMrOpKaliQZCANA1LYPiHNuD6QlsR2wArj79UP1oqUrJAudOm1Hqo31NNP6rnywXq4/HSB2Ah2vcxcHRB0dP9RXc9oONjsZ7wfCVjCETZJKPFVfIAi7jRrMIbvxzTvHc8GMDpdm/tG9qGFcta5Gy6UHTlI9xot0rN7L1y62UXC5lvzTmRXjn0OMjs8xBL1PUKOU9wM9csn2j5HNdF7ucZf7jrZP17iUDIRtXjco7qrqENPKTOHSUw9hU+b6ZASsrYcAbJJBZcNITLR0h+X6sR1O2zcRu8goj3H/ax1iEx1Hp21gs5PxviCMHpcThE2zb3tWOlUy1zyCGs3bVd3YnJfRHQlLxjZFM5eqnoDb3u1xC1P20PL+RsvpxTQx+RndoX2ifVO8Rjf9/8YSb+037d0fs6YsCXzUXW7OosbeousqLyOrOWu7axjRsGLN+NVZS8Y/+mloaEgZD4QhoZzATfzh8QZZCNVxuyZgRKB+vIQajtb+jNXU2jA8KAK0/h8tCaSluxXH7Y8oVxGOcII+O2Xes0RFAsICfv9OenwlEEi+vWSNQ/kOYaO61ryusrVfsnd7XDqp3Pdl1WtcScepWvFa2+MFbZ3Xl8u2ZwTYQvv5kKssuaTMHyxs/Be3bngIVgc5CpZ9ludEszbR83tmaP5x54ZFo9GSdYPRV0YGozvfJPhArte+vOXNQRFs6xdnLQqkfI7IIo8pZpSb4mmjS5a/yFTOFNaL9T/l6xIz6Lsh1eUrcNxw/ILokuQEfXaKvDcIo8ddQb+/ocbvv7yuru5Q+9ZnpUt5DWFxWNqles0agqjLpixZOv66J7MqP+LW/T9RNfMVVScAy9cuW+wXASZdB6/T9XDJlNLxR0mEEAdSI/QjOk6vK7qV1+VOcteWcOvWLkXzNSu6UUouRr08+pFywr7837cZU/72dIOrti10bV17yN/QPrCzoSMkGjoG9um27pC4p6pdjvSj5ThsT3LGslAH7J/PNYsRakzSlYQ/VmMkJqDzxmebUz5i0mVPtfQ0QZ4steGwfjZ7vEYke08Ig1GmIuD3r/P7/Z6ampov2l/vrHQpnyFM7o9mbFY08+5kfvWXlpYe5C4PHu2Sx8d8szhP544EgFGjsYO82q0bVyDyZx+CcanE6/um4jXL6FrK2/zCvHC8S3I73RttBGGrFM1YpniMl/Zll8dYdmK58dK5t/uNc24PrD/39hpx7u1BcmA/DopT58n6fM7bkqSR4I+E9Zq2+EhIp0Zmso3uUET9sM+pHIAAoEOC/q3PE3AS6GG0qdP62ezxGBA2eu7IhO2q+ZsDgcBi0zTHXcqJNU7lLYQhChOPxHSqZcZVyUR2Tipv+LJaHrhe0X3t+TrKLw5L1nvUEK+m6+DKZAFM5oJ5A+chCqZ6jZ352LWdV5b3BurmSfjePha7yEUec8d0Aip0kY3JBA+prgtG2yIhx/tSqwSfbIkMYTtQzwvbhe3DdjptfzIGhP3y/loRjVDjyRDGToETEOa3rL1B2O0MYZOg/IUw7Iuxk56/Or3MOt3e3bELUTDNnEmN1XJqrLbHl+ewnlw1NcIyAua1qIE1Vrs9xhVT51YlfcMRrH6DriONls1RsJyx/UMF1/aYnfkfIujaPGMhNRit2Ve2ATlbwbYBMXNBQG6n0/YnY0Dd2bcHRWPHgJxSyWndbPZ4PEgQ1tnRwRCWaeUrhNnD8TfSr9HFytw14651VbLAPILgBHMfhvMNKuTAArKiGcOKZq5wV1hXYBJ3e9fHLeSCqVrgh3S83+BcMHa6jQKm1z/RKIaoIRnKcC7Ynh5CdyE93vBUkzg+hSUrAHQnz/OLFTVcPZ+dGiMxv6O9jSEs08pbCKN9IYgaIdC4rWRB1WH27o5Z7nLzZEXzvYxumLyCCoJTeWw0s8OlGfMUj3WOq6wuqVGjCaGgq4yC8YhIdpqN3DJ0cT5R3SVLQzg1Lpk2irg+vrZTbmeqcuGQnI/uzQff6JQjMZ3Wy2aP122trQxhmVYhQNi0CuNT9u6OSUeVNn3MrVtXuDWjLVu6YFJhRMBkF6RutCPKV4TBCkIcaO92UirSqj+nav6raPl5O+MCO3uMPLMzFwaE1ZK5umD7M7bLaI6X5Ziaoi5JwBy6JMuXt07ajADs/HdrSwuAiyEsk2II+7Cml/u+Tb8659NxWZ83xwRwREApAcxr/NNdVnOUvbvJq7T0IFeZcZLiMZbS9bONo2DsdBtlKa54sE709IflSEGnhiXTxnZh+y5/oE6Wq3Daj/EaUTDMUXnzc83iTR4hyZ6g0RUZjUREU2MjQ1imxRD2YRVr/mmqx3yRPrsjb6YnAoBpZq/itW5zlxkTBzCSy7P2ODpG5YrmizKAsSfDgJq/Pt0k63Jl6yhBOWE5NXLXP4m8sNSNkkTl/OufbMzqfWfnhgFhkXBYNNTXM4RlWgxhH5Z7brWqeM1X6PM786J7DfugGe/R/rzk8poz7N1MXoiAVVgEYL4yVfP1yeuGuyHZaTZgBlBT9mKrrA2WzdEg5G3d9kKLHESQKgg7drZPXPt4vYjS8hnC2BNxAsLswqwMYZkUQ9iHVeyxFPrsqnyBMETz6DhspcagskgLfsvezeQkDjjQ5SEA85pldHx6ZQSMAYw9CUZeFKBm3so2sSXLJ7MGhM1f3iaT85FU77Q/4zUiYb97pF6EQjyHJHtiBoSFBgY+MHk3Q1iGxBD2YeUzhCle60h7N8cvIQ4k+Do2HgFLAFj+XDPs7HYCwubnCIQtJAibnmII++3D9WKAIYw9QQPC+vv6PgRgDGEZEEPYh8UQ9mGhFlgJAZhbN+cmACxfJzJnZ6dzDcIWMISxs9SAMKd5IxnCMiBAmOIxFzOEva98hrAZ5b5v27s5Line2mNpWQRgJndBsjNi5FYBwrRldk6YQ+OSLd5MEFb2Yos4IcU5YVc/1iCnLkJyvtN62eyxGBDW0d7+oXwwhrAMqMQT+AL9UptDjfRwPo1wYwgbZXQZasZ7Lo/xIgHZdHs3xybZBUkA5jHn0rFkAGNnzICZ4+YYovTZ7J7IGnCI6Yv+9nSTLKnhtC/J+DiCsP+VMwXEODGfPSEDwpxqhDGEZUBTSpd+km7wX1AjXUuPeVNsc8IQpvnyZ3QkmeBrFx2LJsXr/03Jvb2H2Lu6XyEHjD4/l9zDAMbOtAE16JLrH4hkbZ0wdBWiy/A3D9WnDMJkFJAA9J8EoAA8rhPGnqidaoQxhGVILs9agg5jFYFY/kDHhCEsjyJh5HiXpLmF9unRIq26ZFZl5Ufs3XXUqWV1hyJqJkdBcgSMnSVG1fgfLg6KmraBrJ1Dcf1wjLavX/yIthPb67Qf4zUgDF2b+sstWd8Vy85u49pBeYr6ujqGsGxR8Tz/NFUzl1MjnTeTL08EwmT0RzMfo8++m19dtAHkhkXpC32xy2ueVqz7v2Lv8geklge+4dasXxKUP0Tv78ex5CR8djYYyflFHkM87+/OWhhBUv5zZrfc1lQl5WM5Lo8p7q3qkMt3Wi+bPRajK3Kgvz8BWwxh2SAZ8dCMFQxhcbkrar5Iy/ibqhvh/CrBgLkjsT/GEIHYMtXju5EeL3Rr5iz6+0/x6PIa56u670YCsGq3bm1W8X4GMHYWGQVbb1naIoYHs69oKbYHSfO3PN8sRzM6bX8ynk7geWKFJV60erJ2zkx2bnhfIyNhhrAMKK8hzOO7VZmz5nB7V8csCSaa4ZfHI88gJA5i5jZymM57Ex2nenIDHum1RoK0AXRNx6OADGCFYZznsdjps5NrFEBFl2RzV0iMZFmX5DraHmwXtg/b6bT9yRjdmmcuokaybUCs4/IU7Al4aHBQjoz0WxZDWLYoXyGMQGIdgYWnSKv+nL2rY5Y6r+YYOib30bLyqnRHwtgn5InthsxR3v26w+fYeebd53vfTrxHIRBzkYs0g2yOyeiWc1x3kkbXXJHHFHdXdYiNI9kFJBuGB2m72mXkKpX7fQJB2IX31IhwOMIjI9kT9t5GRjKEZUh5CWFoNHTzHdqvx4s0/zR7V8csArdPqJr/SlpGg9tr7cqWKEDKbYPXB+z0Pnb+GedaM7bRtR1WdaNrX3ZpRlex1+g+scKKzCg3txWXW6LYa47JjuueoJGkfuHdtaKjJyxHCzo1NJPtN4eior07LC64u0Zun9N2J2tEwlDyIhu7YNm5Y3RFIim/saFhnxDmt6wtBGGLGcImSfkIYe8DhVHj0qyf27s6LrnLfUcjGkbHZUs+Jeiz2fZ9vouu7RZF93ldZb7fKmXVv1Z009HHza2+8jcP1//2+UD3vBeD3W0v1/TsWlHbK5bX9uzVK8iv1veKsmUtsnL8h7ZhAkaUCaCzYEWbzJHKNJhg/RgoMG95K22XL6VRMCwLEPbw6s54eQqH9bPZYzEgDHNG2tEuRwjDpN70uJEgbL7P5/uy3Ryy0qm8hDBErhAN04wo/f/GvY0E3JdOfaDuUDom/0Ofb5BdknlzbNgFb7qWFd3YQff9qmKPedqsyqaPHXCAOBDFeR1NfxOi95Bdbw2ftWVd7LVNI7GdW94ckiP19uVtG4aE2dIvTp3vl110jtuSpKfR8mYu8IvXCfQ20rqcGp3J8sbhQfFafZ+YSfuJ7XLa3mSN0aA/oOUazX2y/IXT+tnssRgQ1tvT8yHwGm0AGj32BP3+v1RVVX3Gbg5Z6RSBCvKfHqdfvHlYksHcSs+fdHms4+zdHZdKyq3/Ur3GPDpGg+6KIC2XQYydB0Z+l2bsUHXfy3RdT7Ev9/0qHA4r9GW+KhqJ7ESC755f8nt6ZDAq+gYi4tcP1ad0tGDCU+b6xOUP1IrO3rB4M0OAgvWiW/RX99fJaZWctnMixj7+5uF6eRxxPJ22gc0eiwFhe5uuCK4JBvG3nQRgq4PB4EyCsIPtW5+VTk0vb/iyoll/Vz2mXZIhT0ADkStNdrkE0CV5VCl+7Y9PVywJfFQt97ndurmYljPoLicQ44gYO9edgDDNt7x4HDmTkUjEPRiNvjJWCIMREZu/ok12H9I95Lw9SRrLA/jc8FSTCIUjkw5iWF84FBHXP9kot4N+yDpuZ7LG8rDcRSvbZbSNuyLZE/XeKuUnIIwed5BX1NTUTLVve9ZkSPH4LnVpRlu8KGf+QIZdoHSYvqzLS7y137R3d1yacgVALCBBjKBusLiiRjZiTutjs3PCkwhh6EJb29QvTlvgT2nZhoQxWnIqgQpqh0kQm6REfawH67v5uWaZs5WqwqyjjeWiy7Wajh9GXjptB5s9FieS8pHzNRYI8/vHOc8wa2JSNeMSApUWGeXJp0hPfF920i/Kte5yc1ZpaelB9i6PSyWlVQcjIqZoviUq6mjRMmXXLcMYOxc9iRCGpHVEcK59tEFMIahIdbQIph+QElj++lST6OoLyxyxdM2viOUiKtXZF5HriwNY6uEyEQW77vEGOoY8XyR7Yh5LPtgoCFtpGEaRfduzJkOqHvgp3fg1+VghXUbDdGNE1Uy9eJ7xb/Yuj1tTliz5qFuvVmk5t9AXZBVBK6YAIhjDMWMYY+eQJxHCAGCIhj3j65Ldh+mIGMFYLqAF+WfVTX0SxFI9yTdyshCRqm7sE1c+GM8BS+f+uOnxWaObE/LZEzbu1/a2tr1GwWCZlO/3v0fPnyUIG3OuKCsFUisCRW7NrFS95jt2ja38sYRKA7lha+j/P51Z0fFxe7fHrVmV4iNFWvXXFI/vHEWzblM95qsEeDGCsR2APXns8gxi2XnoSYQwGDDU3RcWv7yvVoKL4zalwIno0ZkLA+KOV9pFb39EQhMq2ScbScLn8Hksp4eWt3hVu1w+1oP1OW1HKozlI9kf+8AJ+eyJGFEwumf3mw9md1UOEYjNDQaD/2rf9qzJ0Dl3tR6ueMzrVM1sI5DY5fSlkMtGtIq+MNdTw3NfscdS7N1OWqWl4qDihda/qHr12XTM5hDgVdFjiB63xMtjMIixs9iTDGEwIlMPvtEp88LSFT1KGF2EqE32y/vqxKNrukRHL7ooY3KQAIBwf0CGv+N9eD8+h88/uqZTXErLw/Zj+U7rTZVdZKzjEVpnpstvsHPfgDA5afd+8sHs+mHtfr//8srKyo/Ytz1rknSgohvFLo+5nL4E3ss/iMDk1XIuxB6Cpf/nKlv7JXu/JyTkmBHUEYxZZ7s95l9Vr/kALb8DAxzigxyctoXNzrAzAGGTFQ1LGKCHEZkujyEuubdWFlJdVdsrgQqTbKPIK7r51g+NMv0fr+PveN9Ken85fe6ie2rlcuTy0gyQcCIK1t0XkVE4p+PJZo/VgLDurq59dkWOgrAWgrBL7FueNZlSvPVHEog9pWjm1rzrkoQJihTd3E77WOUuMy4u8damrBDdLPrVUFJaddiMCus4Wv5Nqma05WN+HTtPnAEIg5HQ/pSvC6Vj5LySjtuWYiMPDfB07GyfOKnCEhfeXSP+9ESj8CxrFfdWdYjH1naKR8l4xP/L6PU/VTbK9+H9+BzmbsRynJafaqM4q5vW9YyvW0bhnI4jmz1etzQ373XSbjgBYUG/v4Eg7AL7lmdNpmbM8X1b8Zj3q7rxVj5OWg3HRzRa77g1Y5nba5yfShBLyF1Rc5TsosQoyjw9juwcd4YgbFjmpkTFdY83iuPnpr546/6Mqv2IMsHoVtwTrPB/vJ54T6qr/I/Fx8/xSQiM0XFCRM7pOLLZY7UsTRHad2kK2I6CbafnLwaDwZPtW541mSJ4+KKqWTeomtGHL+l8jeKg8r2im+8qHuMlt8c4/5QlgU/bhyBlKtKsEgKxZwnEtuYr0LJz2BmCMBjdfah7dcYCf9pzq/ZlABe6Fvf0ZEW8nIzjgaT/6mbUBeMoGHvilqUpevddmgKWUbBAYH3AsuZVV1d/zb7lWZMqIQ5UNN+PCcJq8z253F0hp2d6lyApLRGxEk/gC9TI/V3VjXBedu2yc9sZhLAhMgDjzlc6ZNRpsrols90uTzwKd1dVhzw+OE5Ox4/NHpcJwlpbW/cZBYPtrsgR8q1VVVWH2bc8a7JVrBtnKrppyi+GPM9nwhREMiIGEEtDREz1GJdRQ9cehzDODWNnkTMIYTCS9MOhqPjT4w3i+DmZi4Zli+l7SHZ//vmJRhEOx4+P03Fjs8frcCgk6uvq9gthdnflsN/vv4Wg7XD7lmdNtghIilXNfIEetxdCBOcDIKZZP09lRKzY67tUJugzhLGzzRmGMBgjEes7BsTP7qyRAOK4nQXi42n/f35XjWig44FRmk7Hi80er3GP9nR3O0LXngaE0WN7IBC4prq6+hP2Lc+abJUsaDpC9Zr/wNQ8bq/ssst7xyflNt+hRimlXZMMYeysdRZAGLxpeFCsqOkVP5if2fywTBojL7H/KJ+B0ZB0fB2PFZs9XiMfrLWlZZ+jImF7uqLtAb9/lWEYJ3GNsAzLrZkzFc1cSV8Q2+MA4fzlkU9GjhgiYgSfL6nlxq9KtOC3SkrFwfYhSUqKp/pyaug6uDuSnXXOEggDcCD/6fE1XWKGN54T5bi9eWqA5wyvJSqru+Rx4Pkh2akyACw0MLDfUZGwnZT/btDvf9w0ze/YtzsrU0LxUaVMTlS9sZBG9slkfa/1jqoZflUzdZdunHRqWd2h9mEZl6YuMI9QdOsmauRinJjPzjpnCYTBKMOwbjAmE9JRP6xQQAz7iZGYd7/aIfcfE507HR82OxknCrTuCVxOtstTYLqisvr6+q/btzsrUyrSmj5HX9B/py+KUMEBBEGnW7d2KfH5ICsJyK4q1v3HT6swPmUfnv0KUxrR539AX7DLVK+5jWuFsbPOWQRh8DBBCIz5HjFpdb6DGCJgALDbV7YLzAuJfXc6Lmz2RNzc1LTfKBi6ImF6X1NNTc0lVVVVh9i3OytTUuasOdylG1fQl0WDPdXPh75E8tlyyiHab4KwtxTdaqYvy0dUj/E7V5k1VZnTejhR1kH2ofqQ0IXp9vqm02fnqwRyXCOMnZXOMgiDhwlGMCrwrlc7xAzaRuRKOW57jhv7Vew1xZ2vEoDFYjwSkp1yIwrW39+fgCtH+ErYzgcTgUBgbV0gcJp9q7MyKYBEUYVVQgDyNH1pvFOo3WnYb5iOwxaCqjiMlRk3uDRz1nRv8D9L5ppHjDb9ej9K0QMX0nvvogauXx63PC/zwc5RZyGEwQCxN4dicuLqU+b55ahJup+c9yHHjP3A/mC/HlnTJeeExP46HQc2eyIepHuzra1tvwAG2/XB3vZb1sOmaZ5g3+qsTOsE3fp3go4yRTfW2YVNC9T2xN+AKc14mzxArqa/PUgN2O30fLQfoi9ak7wejRwDGDtrnaUQBg/Rr3iUaXg50CN+ckdQlm9AJXvH/cgRY/sxHdGPlwTFy8Ee2r9BuZ9O+89mT8SIgo21Nhhs54MNEoj9IxBI/ewxrCSFHChVM38ooz+6FaIvkl17frEUlNFFSQ1XomyHovkIyMxNHzRBGv0t/h4GMHYWO4shDMYoQUz2HWwbENc82ign4M7VPLFpHkNu/9WPNsj92TgyKPfPab/Z7Ik6kZA/FgCDZX0wv7+LfFWlEFyaIpt0yuzAp1Wv70eqbqxSCqhcxX6dADIk8Y82jg9Hv9i54CyHsIQRERsYiIhFq9rEzAV+Oel3rkxzhO3E9qIG2IKVbaI/FJEFap32k81OhQFgdG+KpsaGsXdFBgI7ApZVFQgEzhJCHGjf6qxskXuu72hVM54jvychw+HLhs1m55hzBMLgEQIx1NB6vb5PXPVIvXB5jKzOFUvkfhXRdv76oXpRVdcntx9lKJz2L9eN0hoYXIBcPkAmCs5uGhn8gBH9wzHAe/BeLseRHgPCxjJZd8I2hG0iALurtrb2m/Ztzsomzbit+r9Vj+9ZhjA2O4+cQxAGo9FePzwoQuGIeGh1p7jwnlo5yhClHrIlXwzbge1B1+P5d9WIB97oFAMy+oX8L+f9yiXTeXcELtR56+oLi7r2AVHd2Cdeqe0VLwZ7PuAVNT1iTUOfqGkbEB29Ybm8DXRc9gQzrGPP9bLH57GUpUjYTsrvCljWnzo6OsZchok1iSq5tfpbLo91B33JbIqXq3D+AmKz2TnkHIOwhDGacCM13G3dYVlT7Kd31ogiTzzyNN2TmZwxrDex/ll31Ig7VrWLlq6Q3M58GP2I/DUAF4BpiP7f0x8W1U394mGCzFufbxHXPtYgLr2vVg6iOGthQJw6zy9Kyq0P+OQKS5xJf/vRkqC4+N4acdUjDeLGZ5vFPVUd4rX6Xglm0cio9eQBtE62ZVmKPgLdMZSlgG0A2xkIBF7z+/2nCiH2WnqJlUGdM2fN4W7dkjXDZL4T5zyx2bnvHIWwhBORmLbukLjvtU5xxYN1ooS+m46Z7dsdHUtXdyWWm4h6HUvrw7RD/0PrB1C00vZgu7B9TtudK0ZECgVk0Y2IfcFE60/5usQ/n2sWF95dK04iqMKxwDHA6FVAaCIyCRhFV+xo4zU5QIH+jvcePyceMUTB2u8TpAHgbniyUTy8ulNYLf0S9javG5QRMo6OjdEEYZgncjwJ+fTezQHLuisYDP6nfYuzslGKd82x9IV9H910mwtlUm82O6+d4xAGI0KDPCtETvoHImJ5sEfMfqFF/PyuGlFM+4jRlGjo0fADApIBswRw4fNYTmKUJpZ//t014rbnW8RLgR65fmwHtieXRz4CeCTgkvsHwuJ5q0f8/ZlmWVoDMAWAwv4nezxHO3FssVwsE8sGxJ21KCD+VNkgHlvbKSOe2B6Yo2N7N6JgA/39iRyv/RrRMvu93YFA4BryJ+1bnJWNKrm36hAZDdPMerfX2sXlF9h570TUF3mQe7X9HqfPZ7tp+3MdwkYbURskgL9Jj209IZmD5H2pVfz6oTpx7uKg7A4DOKBW13G2R0dvRj/i9cR78P7p9Bo+fx4tB4n2WC6AD+sBdGG9+TDtEIrHAiTbe8Ligdc7xWX318pJ1RHtw3FB1MrxWkqhAWYAMqwTgPYzAuoFy9tEbfvAbhhz2vZCNyCsrbV1zFEwu8tyV9Dvfy1gmmfZtzcrm+UuDx6taFY8Gsa5Yey8cRykPlhyJFELztwBUNm7zR14H97/wRIlOQBmeQZhCSNaAphAY41HvNbUGZLRqntf6xBzX2wRf32qSVz1aL341f114qK7a8TP76wR55PxeNHdtfJ1/P3/nmqU77+HPofPYzmIFI1efj5EZ5BYj5ps3X1heYwQSUzUNgO4Ol4/k2CU+JBgTNtx9qKA0Al+GzsHJCiim9JpXwrRo6NgY+6KjEfBNhGE3eH3+//Dvr1Z2axTy5Yf6taNK+iXSkOi4XK6cdjsrHcCumzHX8dsCFa86K5uxOi5nyBlJT1/GaDyIdPr+LviMYLx95ub6P9v0fOdCSDDY9beJ3kKYaMNYJJQRg02Gm7kGGFEHl5Hza7O3rBMoG8kuAJg4RH/x+v4O96H98c/F+9qxPLwutP6ctHIX8Pjs2a3TK6fbg9ymIyo11iN6BhgbMocQ/zkzqDMvUt0/3LR27jHkwsGSwjz+3sCgcCfuSsyh6RqxjF0Q9xPN+gW2cDscbOw2dlr/HAAGNlRXM14jyBkmK7lXkXzWarHeJSMqacWEVDdQr6AnhfNKLemAlL2NF7H3xW9+kL5ft1YSMu5j5bxmqIbnfS3KPld+tuueHQty4CsACDMyWi0AVKIpCQiWnsar+8umZCnjTz2DeUlUFbi+ieb5DUB+EIX4IeulSwxYAzdotPLTPHrB+vlqEpAciFHxRJRsLGOiITtCbt3kKsCpnma4Cr5uaMirfoTLt2KR8MQQeBoGDvbPSrqRdftVgKjdeRGVbOep7/PVT2+a1we43x67ZiSuVVHnFTu+/LU+ebnv1XR8XH7st+n8D68H59TKvz/ocw1znVpvt+S/0HLf4yW6ydH6Pk72B4Jgdlw3xQohLHjifeYt/LxtZ3iR4vjc3OizIfjdZKFBigmZiJYtLJNhEKIWBYmiAHCWseRCwbLaYoCgS30mXuCweC37FublStCY/V+NIxzw9jZaoIvO/pE1+tbdL22EHQsVTyml3wpwZd7WkX912dVio+Ulpamrj6OEAfOqqz8SNGdTZ9T9OAJiub7seK1/ql4jMfRxUnb9abqBYxl+EcMQ1hBGt2PqPN12wst8joAgH3o2sgRo4sS/tPjjaKh056T02Gf89UAMFkXbBy5YIiC2ZGw5oBl/S7Q3c0Tdueazipd+kn6Ar9S1Y1Gjoaxs9Gj4Yugp5meP0Q/Hq5yl/mnF2m1X5s5xihXSkRQNr284cu0Xd9TNOsi2qaF9Nykx/V0D+1Ssa0O+5B2M4QVlAEnie7H3z1cbyfdO1wXOWYZFZtjyEEVr9nTQ6Gr1ekY5JeRDxcTLc3N44qCyeT9QOAd8qOWZU21b2tWjulAOVJSN+9SdGMjR8PY2WI3fhAQ1Ci6tUVF5Es3HnZrgd+6yqypp5bVHWpfvxnTUaVNH1O81pGq5r9A1axF6Kqk++hdd0UG7iGGsIIx8toAJ2sa+8QFd9fI0hvZlHg/UdM9JPPZzlgYkAMM0N2KEZ9OxyJfvDsKNo5cMNgu0BoJWNbflxkGT1OUqzqrNPBJ1Wv9CF/gdBNskxGxPW4MNnsyHY9+mbvoecilGcjFusrtMaZMq8i+L5qjKps+5vaY36HG43I1Pspy66SDGENYQRgAhm66qrpe8cPFAXEcwQqgxfGayHFPKYvXc3tsTafsdkXem9MxyRePNwpmd0XuDPr9RrCu7mc8TVGOq0ir/pxaZtxAN3QPR8PYGbPXEgAYug7fUjymqWrmHOR7lSxoOsy+VLNW7ttWf9bt9Z9PMLSM9uOdSb2PGMLy3uiCRATsldoecd7tARktcrwW8sgYPXkigdijazvFm0P5MXH6nkYUrK+3N5HbNWbbUbD1BGELa2pqvm3f0qxcVrHXnEEX/nP0a36byiDGnmTLGl+agRkcQu5yq5KeXzKj3PftA1KZaJ9mlXhrP+MqMy4mIKqifXpv0qLKDGF5b0wgji5IRMAwmtDxOshDI98Nc1s+Y3RLCM23MiPYn+ampnFHwej9uwKBgOn3+y+oqqo6xL6lWbksGQ3zWNfQhV9PDeEumZPjcFOw2al2PGpkbSeQsFxe8xa3bp1y9AOZz/tKRq6ytV9yeXx/o33pk92qDvubcjOE5bXRHYepfi64qyanR0Ama0T9Zi7wy27YDSN0neYJiI2Ogo0Hwux5IjcShN1eb1lH2rczK/clDjxhzpojFd3yqJox5C4POt4QbHYqDQBTdHOH6jXWqB7jd2p54Bulpbmd36B6/KcqHnMl7dd2dLE67XdKzRCWt143FBW9/RHx24frxXFzCg/AEp4y1yd+ekeNqGkb2D0zQC4bAEb3XVJRMHRF1gQCnX6//yoCsY/atzMrX+QqM85UPeaLimZunbRf8uyCdCICpurGWsXj+03JAvMI+zLMaZ2gr/53jOakfXxHdrM67HtKzRCWlx4ejFfDv+X5lqyvgJ9uYwACJmC/+pF6OQ1VYi7RXHUiCgawSiIKhgr5K+rq6k6zb2VWPunk+ebn6YL/taoZtTKnhbsl2WlwIgJGsL9G8Zi/Kdb9X7EvwZxXkVb9LYKwR2k/GcLYSTleimJQPLa2i85tfAJsx3NfQAaEIkes/OU2e6YA52OXKx5vFAyWCfmBQCTo99/S4s+f70zWHirxBL5LDeR8+mIfdlegW5JBjJ062yMHdyQiYPkEYAeUioMUzX+G6jFfVRDl4+5IdhJGl1uwrV/8cHGwIEZCjtXTyuKJ+iuCPWLDSG5GwxAF600+CradIGxVjd9/RmVlJc8Tma+aVdr0MZdunEQgdj99ua+3G002e8LeDWCab63bY6a1CxKDTUq04LfcZcZR+7M62/weiq8W669PCAhRxNXt9V9H+9jDifnsZDxMjTSdF3HDk40yDwxdcY7nPY3GOhF5mu4xJPgkphXCc7yGyFymisQCSn95X63o7AvnXLckAAyPTUnmgiEK5vf7b6mtrv6afRuz8lWYzJgapXPoy30lXfg7VC+DGHtitqFkh0vzVbu9aeiCLC09qOTeqkNoHd9Ty6zTqRH5IzUm9yge42m6jp/ap3V6D/K4POaNxZrvx65ya2qJt+ozmDvSXvqYNL3cd7SqWXcqmm/TpHRFwgxheWWUo3ja6BaqhCCH851GA7BQhX8K4I/Wf/I8S5y+0C/OuT0gzl0cFGfQ81Pn+UUxvRddg3jvNPrMZIIitgvrXriijY5Vbs0xKaNgPT2OoLUvJ3LBCNxkFCylc+SyslenltV9SfVaN1Dj1I4IBpetYCdrAAlB/Xb6sva5Neu3qQQwgFJJhfF1tydwlstj/EnVDIIgYzVBSY+qW5vp+Tb64t66bxvbaDvfJodVjw9TED3q1oy/u73G+SXzAt8t0qo/Ya9ur0IkjYCvVNWNVrpvdk1aPiVDWN54ZCgquvsi4tL7aietGxIRL0S5MG/jqfMtORJz7ost4qHVHWJ5sEesbeoTwbYBWSbD19IvVtX2isq1ncL7cqu49rEGcdaiePFYgNFk5a6hkCvAMNCaW6Ml6V5LOhfM7/dHkQsWDAa/at/CrHwXaJsu+O9Ro3IzgVin/GXPIMYer+maAcS7NKPLpZvXY+Jt+xKbsFDSQtWrz1a95hxa16sEYH2qZm6ma3YXrtf4jwd6HIvxXrsLkaDmXbduRGg5FkHaEnp+sbvCOGpmxTKnCcMPtLsz/06fawEUTep9QutjCMsPY2Luu1/tkBGpdI+GpOt696jLi+6pEUteaRe+5j4xMBCRhVE3jQzKRyTBo9sPxnNAD/6GKZQi4agEtIdWd4orH6wXM2i58WWmHyABjTcvbRYjsdxI0kcUrKe72xGy9uXRuWAEYmcKIQ60b2FWochVbv0XQZiHLvwwl61gj9fxuRSNzarHeNBd5ptuX1ZJq6S06uCS2cbXFQ+6y63baB2v0vUZU3RzRwK6JAglO6AE0GhDGZ7TctcT3PkVzbfErfmupue/otcuh+3nv6YGrRwA9v66HZabLtP6GMJy34Ccjp6QOH8SirIC8hC5uvDuGvHgGx2iqy8s1tP6AYEjg2OrTI9uQJTRAKihCxWlI5aa3eKKB+vk8pE/5rTuVBnrOG2BX5jN/eJNWr/TNmabmxobk4qCBf3+aG0wyFGwghWRNxL16cJ/jhqd9+IjJp1vDDZ7tAElBEhv0fNninXj3LOWRD5pX1VJSeZ8ef3fd+vmrbRMG76s7XFgSgP82FE8er6Lrv2Nqmb20DrbCXo6pOk5vd5Fz4dVb3x/P7SMdJshLC+M/Kb7X09/FAzw9f1yU5S92Crau8Ni0zjAa29OABmiY/0DEXF3VYfMH0ORVfqR4rgdEzWWi31BHTUAZDZX0p9gFGx3LlhVVdXB9u3LKjT9QGv6nFu3rqAv+mq6AXbaDRObvXfLLjkD8GIVef2XKHPWHG5fTkkJE3kr5f4zaJkP0vLD5J0qIrOTAT4Sxux17WEZNZPPM9RVT+tmCMttA4J6+8Pi8gfq0hoFAxSh7AUiVonuRaftmYjX0b4gOvZGfZ8cxThlDoFYmqASuWE/XBKU+WoSxBy2J9MGgCEXLNkoGHLBAoHAzbW1qUvjYOWokEyNpGoJYl5/PPrgcGOw2TCghb5817u95oIZ5cnP9I8cCFfZ2v9SNf9VqmY+S7+A18tobEagB+t0stN7J8kMYTlv5Fm9HOyRIyLTkU+VyP9C9yO675DThciV07akwoiqoWuztTskrn60QeZvpSO6h2jYVNqvu15tz9qRkvEoWJcjZO3Lu6vj+/2v1Pr9Z9q3LavQpcxZ81W35ouDmG7JHBynm4Nd4LYBSdENc4bmvwB5XPYlNG65y4NHu3VjNi2vkWDjXZWvuQ+aISynDWAZISD629NNMrKTju47lJxA8n1N+4DsMpwsWAFcIt/sD4/FQSwd+3b8XJ8cFNA3EJFROKftyJzjUbDGhoZkc8H6awKBm5qamvJiSjdWiiQjYmUJEIsnQ+95Y7AL2/Y18SZ5YdJRMIzO1VYfo3iM2Yru68EyeWCIgxnCctojQzHR0hUSP1kSlKUiHM/xBDwFXXaLg8Jo7pfRKadtSKfRNdnWHRL/I7tafY7bOBEXeZDjZok1DX1ZV65iMDa4Owo2Hgizo2AbyfcHAgE3V8dnfUgAMRdATDfWckSM/QEjCua1dhIYWKrmv2DKkuRm+qdlfc/tqZ5Ny+mWAJapnKts9/sQ9nKJbp5gH779KhwOK9RQrIpFIzuHhwZlRIY9+d68blA86euWBVBTXWcLSf4nEqA8b/XIBPxMddch+mY294lzFgVktM9pW5M1omsYiblgeZvMc8MxddqGyTa6ISPh8LijYKiOj0eCLytoWRc1NTV9zL5lWawPSoKYzBEzOFmfvdu4DhTdWE/XxqJko2BI4ndr5tVuzWiS1xWBhtO62GSCU2qIdtDzV92eteeh0v+U0sAnCX4d/RX6W0P/xs9uHor+ZCgafWP9UGwnGkkkNrMn14hMvUUQdtPSFll9PpXddVgW8qU8y1ozPuE14A/7+vDqTpn3lmrYRATxygfrRDgczZqaYYCw7q6u5LohA4H1Acu63bKsI+2vRBbLWcp85IgRiOkEYpysX/COl2iQUGCq5eYFMys6nIqb7lP4jLvCnKl6ZRL+uxkp+5BjdqOEhm520Q+ie1XN9w83KvfTo5NPmFtd+tO7gjfOfqH5/rnLWnq8L7ftKn+5TVZAZ0+uK5a3Co0gCSP8MP3Pnud1IkbE6YK7akR7TygtoyDHa8yJGYtEZZX9VM8GAAg7exFBTOuAjIY5rX8ynYiCNdTXjzsKVhsM7gwEAv5gMHhxZWUlR8FY+5dM1pc5YoiIGRwRK2DHo1bmm4rXv+Bkj/kd+xIZl0o8ge8qXnOBohsjfC2N1QS+mrmDoHU9PQ7uy6p8NIaKyowNJ8w1dqBBZGfIc+JOdWQIIxFdHlNGnpCT5QQKmTC25dW6XnFShUX7nDoQw/GjHyLi8bVdcuSn07on04komBNo7cuIghG0bSAIu92sq0vq+5NVoELXpOqxfqfoPh/niBWq47lgBON+RbMuSmZEJAHYFwjAfqNqVq2dW+awHraj6VjJmmXl+3eivpoSj1qyM2zH8zkBIwH+kntrRXdfOCsiQwkPY/RiJCr+8mRjSuuh4RgeO9sQZctaxJZ1mYewZKNgeKTP+GsDgQt7e3sPsb8WWayxSZkT/CpALB4RIxDDdDXciBaMZeOum+/Q+X+MHr9nXxbjkttjnqVo5jJVN7bZy2Oz2eMw3T/xRPUVbTIZ3wkSMmlEqp4zu1NeE+2Y2T7xp8oGMRSNiaE01kDbnxEF6+rsTCoXLBEFawgEvmt/JbJY4xNALJ4jZr5Gv07Wy4RqBrGCsA1NqGR/47G3vPFF+5IYszAZt0sz5yiaNciRVDY7Ocs5Fef7hdnSnxW5YHs6PkdmWFxwd43sknXah2SMZV16X61op2VnKvo3kVww8i5EwYLB4EVCCJ6eiJW87FGTP3d5rDvoV1m3bJw5uTq/bYO2ohlBAqlZU8ZZluKo0qaPKV7rHAL3qnheIV8vbHYyRpI6JtEeCEXEcJaMFBxtjJREbljpM00ETj4ZEXPaj/EaAxvOvT0ogm0DGasXNpEoGD2urwkEbq8zk8ulZbE+IDTCRXP8x6PSuaL5JIjxKLc8NvKLNAMj9F4t9poz7MtgzHJXvPFFVfPdQo5xFIzNTt6Y1BojLjEaMVtqZu1pQNhDb3TK7U3VdEZIzv9+hSVeb+iTdcmc1ptOA8DCoZCor6sbdxSMHncF/f4AomBVVVWcC8ZKnaaXB49WdetmRTODim68FW9guXsy3ywjV5qxWdHNu1zl1n/Zp3+sOpA+e4xbNyvp8V2OgrHZyRkJ6uiOfLK6S9Yhy1Rx1v0Z3aRvNPSKU+ZZsuK9076M1wmYWxbokfNIOq03nQaEdXZ0jD8KVlMjc8EQBauvr+e6YKwUS4gDFa91pMtrXaZovidQxDNzky+z02VEOencDige439RENQ++2NTqTgIoykJwgJuL+pd8bXBZidjgAhKNaAMRCaiQWP1yGBMNHaGxHm3p64+GgYkAOgkgA5PLoAmomDJjogkW4iCBQLJzS7CYu1XqODt1syZite4jxrZXrphdri93O2UH46XRqBf4T0YlGGf8jGrxFv7GVrOjXRNRDkKxmYn7/eT8vuyqj7YngaEdfWGxfl31ciRnE77Ml7LKCAt69HVnZMeBUw6CpYYEWlZiwnAeEQkK71CJXTV43Ormvn/yG/QjbONo2IZMI43eaw1paSRz2d/7kORKvm67I6sdZUZF9OpPjB+xsem6V7/dPoCrSQI4+r4bPYEnEhOr8lgcvpYjHph/aGIrGWWqknLMwVhiSiYDVSOsOVke0Tk7ur4PEcka7J04NQF5hGq17hM0Y0VdPO8iQYcDf2eNxU7hQZ02TA1aiJs5HCNkIdRnX5fJmjeQO/fkSg5kgC4xHNaxrv0nieK5vmn2ed5zCKoO5s+b8Zhbg/AY7PZY3YuQdhAOCJ+cV9+QFhHe3vyUbBAYHE9zxHJmmyVeKq+UKxZP1Y143ZVN1qp8Y3PO8mNcOq8G5Z2d/tupeMdJbcpmrmG/n+P4jFmEzzdonh8t+7LLs1YRO9bSeeqkdwml4Pl0XKL59XQso3NLt1Y5Cpb+yX7FI9JJaVVhyge83JaDq4BPv9s9gQMCDtjQUBYLf1ZD2HdfRFxwd25DWEAsFDyUTBRE4+CXcTV8VkZ0azKpo9hJB017n8hKKAG3oyQGcYmahu+8KhoBiJUmCswSMD1tKIbN7k065f0eK66wPzetArjU8pdrYfjcZ8ue/3fijRzpqr5L1A9iGJaN7l162mCsSA930JfgNvp9YXjhjBv7TcJwrwEcSMcDWWzJ2aUaZhB9/3rDdmfmN/SFRI/SuHE5dSGyMT8J9ZOXmL+RKNgGBHp8/n+0/46ZLEyI0wArpZZpyMiQ40xKu1vwdx23CiP1+hyjAMsfSERGBkNdCwrCcBuc3n95xfNqT6+eLH/K/Zhn5CU+cGvFun+4wmgLqT1LqJ1rFQ13z8Q4bTfMiYVadX/TZ99is77NgmOjvvFZrPHYoyOLPKYclqgbE7MR0X76uY+8YP5fjmYwGlfxutEiYrnrZ5J2feJ5oLZdcEuDixZwiMiWZlXaak4CIBAIHaBoluP0GOX6jXfAVTEozrcQO/T6HaMR762ENA0EoQ9oJSZv1bmmCdgUuyZFcs+bh/qlOpbFR0fn1Hu+7bi8Z1T7F0749Sy5YfafxqTVM04RvEaS+nxPYYwNnviRrHWRSvbxchgVAxlcbHWJ31dotib2mKtM8ot8Wrd5BRrnXAumN+/pK6ujqvjs7JL58xpPXyGN+hSPdafFF12n7VTA72eoGxHPL8JQMZdlaOd6Hqk5x2qx3iw2Ou/slivPn7c9bomIiEOLC0tPcj+35gFCCNofI4hjM1OjZFjde1jDSIayV4I2zgSE7NfaBEn0LaiG9FpP8ZrdGueuTCeD5fuSJjMBRsYSLY6vggGgzIKxrlgrKxVkVb9Obderaq69Tu6ScsVzVhFNxpyxmQyeLzbjYHMHum4i0CmQfEaf3dVWMcpc9Ycbh/GrBdDGJudWqPu1tm3B0RDx0DGJrLelxGh6x+IiMvurxPHzfE57kMyBtBdeHetaO4KpX3ickBYe1vbuKNgtaiOHwggF2wxQRjngrGyXxg9V1JR/3WX7j/TpRk3q5r5LN1wNeQh8rvxbri440BWQFBm76+C0aWa//8pFf7/sA9bzoghjM1OrWVeGPn+1zvEppHsg7BNI4NiVW2vOKkidVMWwccS0F39aIOIhDH60nndqXAiF0wC1fhzwQRywWr8/ku4Oj4r53SSVv216Z7VU6jBvsStW7NlQrdm1pMHqSHfRq/vApgk8sjiYIaGPU/BDPumGW8rmvmI4jWPtQ9TTokhLMW2r/uxuNCjyPns4wlIfvNwfdqBZLxG9+gIQcxtz7eI4+emDsDgY2b7xC1Lm8XmdYNpHRk5oVywQEDmgtEjV8dn5a5K7q06ZOp88/PTNKMIQEYQdoui+Z4hGFlD/29VdHM9Nexv041JNrbJIqWjLRsguxHamx1u8myz7JLVzTDt/z+mzF75afvw5JQYwlJsDd31uPb3bfoB8/b0MmMr8oeQyM3OjKfYj6lKTk8YIySL6XtsqdUt868mq3Dp/ozSEYHWAZm7larSFDCOH4zoHyDMad2pcCIXLJkoGD3uQi4YomAdHR1pGSjFYk2+hDgQoyrdZb7pqsd3quIxf6OU+RYgQZ0a9odUzfeC4rWa6EaNUMMTVXQjRo+AtJ2O8GV7N6g53PBZYWynbu6kfTQIQH+Mmmv2EckpAcJ4dOTE7Ua3tCav7ZfpeniAYOwBeQ84eLrH98CZC/wP/vr+uhW/fahu8KpHGsRVj9SLqx5mT7Z/T8f9tw/Vy/ke0YXodG6TNQDvN7TsgVBE1uVygorJNEAQuVo3L22R4Iniqk7bnYwBdDiGaxr70lqkdoiOY1tra1JRMHrcyFEwVt4LSekls42vF5cZ/1Y8z/g3t+5X6Wb/tdtr/pUapv+n6r6/0f/nK/Hq77WK7qsbbfmaZjQRFMToffHCsQ43fcZNwELbuUM2unPWnGDvfs7JPdd3NJ2LZ2ifuE5YsiYgp2t1B3m14vFd6va88R0UwZX3gIOPvM33zbte6TlycCByeX9/xBcJR3fGIjERDUfZk+zBSNx/ebJJ5jQ5nt8k7SKjBheiQxgtOJjhkZIoG7GyplecPM+f0igYjIjuL+6tFb0DETGcpv1EFGygv3/cUTC8P5ELhhGRVVVVPCKSVVj6VsWyjxdp1Z9I2K1b/656/Kdi2iR3mfGT0S7WfD9WNN9FimbdpnrMVwkQNrgrshDE0PBq1PASTLo8lmLvas4JgwnklEi6uT5rgTfbbQO5qvmWE8hOtw/tftXf319MjcuqwWh058jQoMzXYU++t6wbFPe91im7EFPdLQk4Oft2v/A1o3ZW5qJhgMCOnpD4xX11MkLntK3Jmn58yP1EnhkifumEzWSjYMgF8/v9S3hEJIs1Rp3gsf5F1cwfyi5N3XjTXRF0/ALImGV3pLWLtq+e/KspS5ZOXk2wFKqktOow2YWsW+32Pn1wP9n79/sQ9nKJHhxzVDQSiagEYK9EI5GdQ4PZO8VNvhtddP6WfnHmotTmSSWMBPj/ebBedPaE5ZyKTtuQTqNMBmqW/f2ZJgIwX0q7IWGAK5b5UrAnbdMVJRsFs0dE7kIUjCDsF0RjPCKSxRqrjqps+hjyzKhxe4DgYF22RWqwPYpujBCEae5b3viivdlJCdBZPMd/PC0Lgx2ki+dUHz+twvi6/Za0yeUxzqMv0YCEMAlizvvLdra8LjXjbZduPOgqW/tf9mHdrwjC3AxhmXcicoMCq7J4qcM5noixPESf/lzZIOtzvZnGnKk9vW4wJoYIYDzLWuXk2qnOe4NxzC64q1Z09IbTVh8MEDahXLBAYEm9ZR1p33osFmuswrQ8bs2cSV9klQRim93lWQQJyKHSjG2K13xB0f0/mFUpPmJv9j5VUlV1MHLn6LPH0Jcion2/UjTjNjlDgeZbRc9Xykf832PeqmrVv8L7ppcHj5Y5d6VVB9uLSommewJuVTOfpfVyXti4DXCVkbB+l2b+BUWO7cO6XzGEZYcRuUEEp7K6S+ZwKWkAFUSLkAz/v082ip6+yKTkiMkE+UjUBrD4iE2nbZuIAZgox6G/1CqjfOjeddqWiXgiUbBgPBKGKNgl1dXVn7Bvvf/f3pnAyVFV+59FARX3J76HKKLggn8ViCTTVT0ZdgOyqBAVRBAEXEAFRHxPxQFUSDJd1TNJCCRAAgEUwr6FJSEDSWa6tu6efSazr8lkgSSEBAxJ7v+c21VhSCrJdE/3TC+/78ef1d10V1fdqun7y7nnngsASAbOI1M161oyCp0Jk5A9Rkwu46Qbq+mY5gTC5sRjSxfscZbk5MkLDgzMjB7Jw6xKmfE3nilHP2IR6sBX0GuD9PgdMl7babvN3b4jX6f/rugReh/PurP/ypErtdz5QirLFPkRKKs6LMg5eLq5OnE+/ucK+UhGD6UJa6Dr9VO3SYcFTFj2iCM4zR194kd3x2Rkx/daj1DSiNG+f/NQrYi19Ir1awfFmgzMmmQjxEn4rZ394qYnG6WxTGdR1qE6kfY7aaYtltV1k7FM/z3MBoy3zU1NqUfBbHu2YRjHun92AIBUKA5Ffq5qRouMPmVT3lJ453AUF6ydF9DtC06usL/MQ6lsyBJqOKh4es1RQTnsZ4Xo+F8j9dH73+Jz4aWP2FxKA+QNCfJrbk01d2kkrkG1SX5Oi7xGhqxMCVvnBmZWHcmLr7vNlBpCHEDfdzl9R20i0phF7ZvtkvcjG2ZjcSBkftdt0WEBE5Y94qgUG7GKl1pkDhcZ6t2vdRrE++XI0flzouLxSLuMwm1Yk54IkhfR4/N4paZLXO4m4WdiCJLF58L7v/HRejkjMhORPTZhPd3diaiWj9Hak9xcsO30uCoajV4shEAuGAAjIahFLstKE+aKZ3BSR/wG/TAtUzVrOg9NUed8A4tev1Hh9Td181V6vpq229i4yaieZ7p89rlTnimTRo2/x9xGr3Pk7FUyZlMnapGzSsKVn3CbKiUmhqzjaZ8P0HFukqbS7zig3SSvh2au5OtwWrnzBbc5hwVMWHaJDYzT3CPOmeVkLBrGor9buf9i2v7fY/ViaV23nFXIQ5S8TcaQsfHhaBoPBbI4wjb1uSZx2nRLGqRMDK16YnN3Ev2j7aVolzx2v+MbqdiEpRIF46FL2nZYllUaj8e/6P7JAQBSJdtNmIxoJYYmOSrCZqyf1JcQR73M1+kxmS82Xvw+v30MU9KM2fxjvp2eDwZlsVXzopJwPGUjVjKz4VBFt39F+6sfljGEXHNsblc0o4pz9ni42W3OYQETln1iM8EmJtMGhsUmhqNiXOT0r080iEWxTllnyzNkLI5q8XM2Wix+zK/xf+MIGife9/WvFFUNPeJ2Ou7z7nTksfMQpN93plMcMbz+kTo58zITtcF2RsFSqAtG799h2/YrZMBOcv/cAAAjoThsZudw5K7aGbHaRXzcIzVfu4q/R5busN4mI7AwGDIuHElEbGKFdbwSNueTiXyLj9n3O6GdciOGWwIh44FgyPyK24zDBiYs+8QGp7a1V3z/LkfWvtr1mmdCXBaDk/Ynhk1x8dy4TKR/wmiXxqqhrU+0d/fLqvt9pI6eftHY3ifMxh7xvN0hZr7cIq56oFacXGHJ42XRP858vyedmhAy5XcujmUuCsZqamxMKReMPrOaTFiY9GX3zw0AkCrKPc0fJZPxRyUU6ZFmxudHoZDFRox+eN9WQsYLbMTGTXFSWsdy3Gznw7SfX5EJQzRsH5J5emGbl62Kq7pzdVHp8GdFesCEZZ94eI+H9e5+ZYU4kYwRJ9P7Xf90i40TR8bYRHEki4y9mDTDFhfeExO/mF8jl1f6HenKB2rET+fG5NqP/Dl+Lw9tcuJ9piN3nvh7TphqiFuebkh6+HS4SjUXzB2G3ELm6wnDMM7AGpEgb+EyCZMqWg+m7SF7mxGYDshkjCNj8JCKCM0elchJIyOmGQsDYY6IpTY0GQxRW2tcDsTcAsO7ZwXL2fjyWpGRsglTI8fst5/Y323CYQMTlp3iIb7Onn5xBZmf48nk+F3/TIvNHw8pssHiYb/jp0ak2Pxw1IyjZ6NlEHcVH9P374qK+IqeRBkMnzZMh1KJgkkTFo22OI5zbWVl5aHunxoA+YEQYn8uSjq+bOmxAS3yExmd0o0/KyHzCuqwJ0wIR75YUlF7RHDWsk+6HxkxxXdw5fzIn0gtatjagejMnsXGgLZvBzXjmWDIPHu/FEpYBG9f9klZm0y3ViFB31/8DwFpeMPmM4pmn+U2XdLAhGWvON/qpWinOKXCEuPJdPjdB4WoIo2jbqZ44LU2OQxJ969v+41EHAXr7uqSUbBkTJgsSRGNbiEDtiAej493/8wAyA8mlEc+W6wbZyia9TclZDxEBsygjqhH1Y0BMmJ1qmY8rWjmfNreSZ3T9UVa9SR6z8mBMnNisDzyLU78Jhe3/3DFQ2oTy2Mnqnrkf+k7TPoB2Jb2nKo8VDEbsbC1OqhboZNnRo90L9+w4cimqtkX0bV0aH8wvbsq0R68XFUsoFtXBWfVpfwPDpiw7BUPsXFErPzFZhl54sW4d7sXClAcjfvTo/UyGX/toH/bpUPJRsHYsMmEfMdZwVGwDie1lAwAshIuDEqdzjVktl4gQ9RP2sx/kBwpSSSdU8ekGe+QOduiauZG+m9t9Lxa1SJLE4twG/fRZ29U9OpfJXKO9i1Vs/6Ptv+mz62g7TYMjQ1P3E7UXmQSzKVqufkDrs7vXsZhUzSlejxdsxdJZHxhwoZKRge1CN3j1pwJ4ZEtBgwTlt3iNRd5maHf/qsuo7XDckXjyID9+J6YqGvty9gwZKpRMDcX7G3SAjJhRe6fGAC5j1q+jA3YtdQhc2Rkq2e83t8502Pq/NkAyE5K/jeDowU76IeLp/BvIvXSa+3DlmZyMdPNMvoFA5aU+BpQe68JaJZ2clny0bCJZC6UkHk/GeC35PX0+Y6ClLzH5T84LNIlkyoWjijpFyYs+8VDblx764I5UZmP5XtfFIB4wsDpM2w5RMvV+P3aaqRiA0Z/C6KxoSHlKFjcca41DONj7p8YALlNyWznv8gIXS07Hd3cMfwOmU2ZJzZmCYO201ANQwlDR4+zuRxFtoranaOHMhqmmT8YN9tJqlp00d0Nn1J0+0a69t0JQ41rwO1ABoz+UWGsCOpGqVIx8qnvMGG5Ic4PezHaJet5ZbKIa7ZK5sRphnhgaZuMgGVqzUs2YV2dnb5Ga29ylyfaQkIUDOQPPPsxWG6eqobM5+kPUEbA/P5Ak5PXoQ9Hfp+Hhis3GsaV3G8eX5H8vwyDoaoL6bqjVAWLDZjbnmTCQvTaN9xmGhEwYbkhWbaCzMejVe3iJLoXRqt+WDaIZ2hyTbDpL7fIHLBMrHXJYgPG21SjYPR4RdS2ryMThlwwkB9wYjx1OH8OamYPhqRyTzLyqBmb5SSKaeZx7mUdNnTtzyDTsUjVOS+MI5L+31MIcst/vEuG9jllmnGG20QjBiYsd8SJ+lzIlWcF8lI9hWDE2HxxKYyyhc3UBolq/X5tkw4lcsE6yVQ5ZML8DZefpAGz7UQumGEU8Qx+988LgNxmYnnkGOrA71PkWoKF3QnnpGQESz7mmaU/ci/rsBlf9tpRdO1nkvl4Qxo6v+8oAMkIGBuwsLmUtleUhJz/cptoxMCE5ZbWDCYKuT64tE2U0N9XPg9NcgSMjWbZ801i1UBikoJfm6RTjQ31wrYsX7Plp6FRMJ4RiSgYyBv4XxOKFjlf0Yzl9Ae5veCHo3JSbMJ4pqTRFtTMK91LO2zGlT7zYbr+t6q6sbpQTTgbsGDY3Mq5dbS9ckJ53Wfd5kkLMGG5Jx6O44jYw1XtMlF93LSI772Ty5JRPs0UFS+1yFIUXKrDry3SpVRzwVwDtiUajS6ImmbA/bMCIPfhfDAlZP6WjFgnkuNzVSMzYXQPHFrIJkwOwYflEOTSYMi4KjCr5jC3adJGPpkwOo+EViWG7nhBZ44cDRW/zv9dashnc018Hjxr8nmnU/xgdlRW1VfGqHp9usUzQE+tsMT9r7bKHLDRiICxGurrk8oFY7kzIlvj0eh1mBEJ8oqSUvEBLrhKnXAvhiJzVTBhqSphwCxpwAJkwE5JcwTMI5dNmFfMlIfnWBwd4g6bX2ODxQtOd/cMiB5PvQNugc/Ee/i9/Bn+LD/mCFOmZt1lQnys69euElZTj7jqgZqdSwn53U+5IF4C6YSpETF5TlQsdDqkyWQj7Xfu6dSIo2COs6DGticgFwzkFdKE6cZ11An3wITlqmDCUpHMASMDRue+LKhbV/FKEW6TpJ1cM2FeBIjrRLHRauvqlzW0XnA6xT1LVogpzzWJGxbUi18/VCt+cX+NuOy+93Q5Pf/lgzXi9w/XiVueahQzX24Rj0fahdHQI5o7+kR//4Dc90badyYTwNMtPuZ2aocpzzaJieHEgtqKz32VzeLcNs4Bu/6ROhFf0SuvwWgYYjZgdO8nHQUbUheslWdExuOprZMLQNYyeYE4UE0UaIUJy1nBhCUrufbmTgPGEbDMGTAmF0yYjHitZnPEHeZKUd3QLetF3UxG6pJ5cTl0xVGUIurEuZ4UR4T2Jc454k6fPzcxbMlCqH8gA3Dn4hZZDLSDTA0bPS4LISNkPseVTeL2YeP4jNkhLro3Jof0OCqW7WasyI1+nTPLEXNfbRV0PybqgPmcYybEJqzTjYIlXR3ftt8mE/ZoNBpFLhjIP44tXXAQdUR/pD9UDEfmrGDChqudhYR1600639dGw4Ax2WzC2FRwlIc75GhLr5i9eIX4zUO14qw7HGm2eA1BNlO8oDObKc6JGq7p4Pfx+/lzLDYsbFzYEJxMpo7N3W3PNonF8S7R25swBjx06Xec2SI2qxvIqLZ09Av9hWZZ2JWX+cnGIUo2zNzeJeWm+PPjDcJu7kkMPw76n1smNOIomG23kgFDLhjITyaWx45RtMhMVSvs8gS5LZiwfYuLsLIBs7aTMehUQ+YDqmZckqkcsF3JRhPGeUAcheLhwRejneIv1El/j4wX14xik8TGK1NJ6GzOOELG6zRyxOzkckvmWz24rE0OWW5YMyijTn7HnS1is8haXt8t2+4UMpXHk+Hh8xrLyBh/N0e++Fjo90BcTYaac7/YZHtm2+98MiUZBevo8DVae5Osjh+Nci7Yow6q44N8hTrfk+mHdhH98WIB55wVTNheRW0jE/B1YwPd68vVsHkzdVTfKZnZcKjbBBknm0yYl+81MLBSPGG0i2v+VSeK3Rwnb+jQtx0zJGka6Hs5X+nEMlP85J6YHK5kM7aezFg2541xW8qhVDIalbXdovTJRnHmTFsaWDaXo2nI2HhxG3qm9tqH68TTZsfOHDw+Vr9zyKS8KFh9XV3quWDR6HUdqAsG8hVFi5xFPxJc5JOjBL5/3FC2K2HCAlqknUssuJd22BRp1R9S9cgteWfCOLJL50PmdBs971Y1cz610U+Ct1tfck991MgWE8aRm7XUMb4S75KJ80FqJx5u5A58t/YbA7FhYTN4IonNGOek8WxLGcEZAxMxXCWGKAfFanrMsyi57tZP743Livsc7WPxcK7fOY9EbJi5vfgactTr/DlRcevTjWJJTReZr8Sw6WgOPe4qvtc72tt9jdbe5M6I5Or4j9Y6Dqrjg/yFjNeZimYa8o8aJiw3xdeNpRlxMhoXuZd22BTr9v8ooUiYTNi6vDBhOyNf5lZSP93fLwdC5i2K7hRPqmg92D3tUWWsTRibhI1rBkVje7/MweJIyQnTyHyFsrPUApsLjupwTtqvH6yVpoIjTtk+m5LbWZbjoGPlsh3P2x1yJinPGD2F23yqkTCZ7rlxpIyvAZtgL2+OxcPAQ5+zgeP3ct6ZF2XjfRVTW/EEgb892SAeqWoXLR19O4dJx7qtOAo20N8vo2DJVMdn8VCkFwWrrKzEjEiQv8CE5b7ctSPfUUPmY6qWfO4ED0mTeXuO9rFVRo98viMnJM0XR77MdxXd6Fc16yV6/ZagZk4qmWb+d2mpOMA95VFnLE2YrM1F5uApo0NGl9h8cYe+W/tlodiAcBTp9OmWqHixWXT29MshytHOa0pWfHwcgeJIFNdH49IWS+u6xUPL2sTfn24UV86vFT+Y7YgzZtiihMwZmyk+V74uQ8WvcbSS33MatcG5dzri0vvi4qYnGsTcylbxCpnTpvY+Gd30Sn5kS8SQTVh7W5uvydqbZBSMc8GiUcyIBPkPTFjuy436rCYzdXtRafWn3Es7bNSy6h+RcamR1z8X7wE6ZjaibL7oeX9AN14Ohq1bi3X7jFO06s+5pzmmjJUJ42G8rp4BuS5grta2Yp1IhoSjPzxr02zsSQz9ZYnZ2JfYFLERZkMmc7Potb7+ARm14jIgC51O8cjydll/bebiFjH95RZR8XKzuIMez6HX/k3G7VmrQyyr7xYNbX2yOC6bPDZ33A4c9crGtuAoWF1tbVK5YCwvFyxm239obW3FjEiQ38CE5bgSxmm7qhk2da4/nbyg4SD30g4L5Z7mj6p65Pdk4DoS1z/H7gHPgGnmSjqHlxXNupVeO5MjX/tlUR7JaJsw7vg3UIfPBTmveaiODEzuRL/2JBkVmxoR590ZlXW62ITwcjt+55+tYvPEhomjZBy1YnPG58HDl2zQ2KjxdeNon2faWF7pDv4M11PjffC+/L4jG8RRsI72tpQMGG1lLhivEYlcMJD3cIelhJCYn6uSVd81Yz1dw7uUsPVV97IOm2Co5iuBkDWH9rXRjajljlwDRo/bqQ3KA2Hzu8qM5Ydnk/nyGE0TxgaMO+7Xart2Dj+ygdmt/XJU3uy/+3jNQ+rssz1PrNDk5YIlGwXzZkTS49a4bV9XV1f3SffPB4D8hfNlAroZkT9wMGE5JWlA6JopumFyFKxkXuUh7mUdNsVT7RNoX8/zUJ5raHJGwTCZRs1YHdCM6UV69QnuKWUlo2XCOELCBuxFp1OcPcuR+VS5OPy4L3FyOhtLHrrjiFC21xQrJHm5YCOJgsUsS3H/dADIb4orLEXVIk+puvGfvKwRlcdyTVN3QIv8U6mwv+xe0mFTUlr5AVUzf0CdNJlwa3tOmXA+d83k0hNLlJB1bjZGv4YyGibMi4BxYc5JM20ZMdqt3fJIPLw6vswU4RebpRHLtaHJfJQXBautqUnahMkZkbbdapvmH1AdHxQMsjyBZtyuatZgrkVCClnBiihvtwQ04+HxmlGUigkp0qo/F9Ss2+n6r8y1oUi+V+UwrG7OCJRVHemeUtaSaRPGJoSTtLnyPRcL5QR8v3bLN7ERKwqZYvpLLTJXiuXXPtDoaJDu7VSiYG5Jirfpc49hRiQoLErFAYpuXKdoJhbwzhElDJO1ja5bVUCzLku18vvEUORcMjKVZGRybrUEWYpCMwfVUOSWknldSQ/DjjaZNmEcAVte1y1LGHD9KL82y1fJBbQ1U8x7tVUmsOfKrMl8E0fB+vv6ko6CDc0Fi9r29cuWLUMuGCgcSkrFB6gDvpY6Y5iwHJAbAePZkNVBzfoNRzLdS5kUJRW1RygcBdONVbl43T0TFtSt0nGznQ+7p5W1ZNKEsfGoa+0TP703VnAGzBOXsOBkfV6mh2cX+rUTlFnxfd3W2ppSLhh95h3HcR6zkAsGCg02YUrYvJ5MWC9MWBYrbMshONIWVYtUqyHjamXq8sPdy5gUfM2DIfPsAOdTacb2XDZhqmbeXMgmbN3gKlk3itcJ5PINHBHya69CEFfYP+9OR5hNPTIy6NdeUGbkRcFSrQtGWxkFIyOGNSJBYZFIzravCWhGR6IzxgzJrBKXYeDrwrMgtUifEjKeUHTzilQNGCNzwXRrSiIKlmNlKVx5JiwYMkqPHqOliJIhEyaMh91eJxMWfqFFrrWYT2UoUhVHAnmZI66sjxmToyc2YSOIgr3NUTDMiAQFCRfDC4SM76ua8RrnGeVablB+iq6BNF9kkKT5MjfR6zE1bE4l41RMJirpqvhDof2fQ/tbQvvOubIUnqQx1Yx1Qd0IBStin3FPLWvJhAnjgp5cioKH4Tgvyq+dCk0cCRw3LSLKX2zO2kry+SiOgrmzG33N1p7kmrA2x7JuwBqRoGApmhk9WtUi81XdeAszJMdQbLx4yDFhMLZSh7Kerkmdohn3cfRr4pTI191LljITwpEvBrTIVEWL5GwUTEr+Y8H4D7XNouKw9WOu/O+eYlaSbhPGBqO1s19cOjc+5jMh6d6U5ocjcbzl537vGy1NCJnitOm2WBzvwrDkKIijYK0rViRtwNi0RW17M+kRx3GKUB0fFCwTyus+S53ybPoBezMxJOn/4wZlTtL8asYOju6QWqgzW0iaSdflSnr+7SKt+kPu5UqZ4O3LPkkd5K9ofzZ9Z27VBfORe69uovN5OqgbF+zNiE2qWHgwRxCLplWrSijyY/rMJfSZn/FW0ayLlfLIWcVlxlHjZjsfdD+SVtJpwji688bqQRntkWtBjvIwJH8fl4bg7z5uakQOAXLx1ETdrsQaj8fz69MiMkInzZnPfjIpPqZfPlgrunsHUD8sgxrJjEjabiMtj9n2pcgFAwVNyUzzv1Utcif9eG2ECRt97Sw5oRlRRTcqlLD56wllkZM4d+v0spqPuJdphIj9A2XmRNr/E/Sdb+d0FGyIErNFjc3Uds8EyoyfBcqiR05eIA50T3q/okd6PxSsiB2rllVfqpQZXBPtcTJeMWqHZnrcRKJtpJH28WpAtzR6fNb4ivQXikynCePZkFUN3bIg62gNQ7LxkgaLzRbprDts8asHa8QtTzXIGl33vLJCPLC0VcytXCFmLVohbn+uSU4WOH92VH6WP8dGrWiUDGNASxRy5bIV69euIrPg35bQyDSSKBh9ZsC27X9Go9GU81sByAs4QkA/XDdRR4QZkqMtjoCFZckJi4zBdUrF8i9nIhozoTzyLdp/SNHNvny7xglDKY3Ycup8NTrHnxaXGd/jGaBkAK4kgzsnqFuOKmdTGu/ICKBs90TunXysGzvofYP0/seVsHXupDQn+6fLhHEUjPYj/vx4/agNQ0oDRd91zixH/O9jDeKJSIeIt/bK5PdEVI4XnR4UG9cOyi0PAfJ6jjxrs7G9TyyKdYppzzfJdSw5KjZaSylx+/z47qg8Bh6+9WtPKHWxAevr7U06F0zOhoxG36XPLCYTdhaGIUHBw51+IGx8nzoggzqpHbk+TJVTCls7OCITCJt/Kr7D+rx7SdIH/cAlDJh5GxmNdjnsmY/Xl4wlneM2un9X07aWztVkY0vGi6Nd6/k9bNZ2nr+PiqfHeR9vkBmbpYSXJ70Y+t5Ilwnjqvic63RKuSWH/3ZrhzSKK9GzkTnvzqhcGshp7hVrXNPF0Tg2WtIUusaQj4+3/Jxf5+r1bH74vTxTcUVXn3hoaZu47P4aGcHjyJjf96ZTbB7veLlFHrN3jFB6lIiCtSQdBZMmzLZXkv4ZXZ76LG8A8oqJ5daJihZ5kTqsbUjOHx25Eak3qeO/Xwmbx7mXIq0Ep5EB0+QwXIeMGLHh8DmWvBDdt4k2HXKOdL7ytWGdN72XRNfDIQN3STojkukwYdLYUMf358cbZE0w/3NIjzj6VRw2xS1PN4r4il5ZAJUNVarDevw5Nm0cLevsGRD3LGkV58yKyryxTJbW4PO4YHZMNLf3oWRFGjWiKJjjbOMoWMyyzlywYMHO1AEACholbH1VKYvMVrUI8sJGRW4ERjfbqBP6XapLD+2F/Yu06m8mDFjENWAFcl25XYfK7z17UDDscA7TeiVk3jUxPPLZqB7pMGFyaaL6bjFpRmZzwTj69YO7HPFYpF1Gvvh705lTxWaIy2sYjT3iNw/WSqNUpGXmfNjgccTwXjJ9HEX0Ox4oebEJW9HSImzL2s1o7U1s2mKOg1wwAHZlXOkzH6Z//V9DP1xtqXReUJJy25hMUm1QMye7lyFtTNTsb5KRSAxBymE4XM9hyWsnzbCDmnVxutalHKkJ4ygYR5K0F5rFuAwtTaSQeN8/vy8uTDJIHLVanaGZhWzqOLrW1TMgbnmqURolHv70O66RiqOGV8yvkd/FKwz4HQ80fHlRMDeqNWy573+XTBjngn3P/dMAAHioZZEzVd1aTB13zpcvyHoNNWG6fYF7CdLCBB6C5BywkBcBw7VMRtxmdF3WB3XzLo4Qu806IkZqwtiAtXb1iwvmROUsRb/jHqm4yOkV99eI+jYefhwclRwqL2F+2vPN8rwyMXuSo2H0Dx3xYqxTGstdjwFKTl4ULNlcMI6CkfniXLDbaJvSmrcA5DVcJykxJGluRF5YhjXUhJUZaTFh40uNj9F1m8CV9b0IWMEMQaZTCdO6I525YWTC1JGYMB4SfNJol8cXyMBQJA9BXjIvLmpbE/lffseQKfHw5MqBleLvTzfKZP1M5Ihx3bLbnm2SOXUcVfQ7DmjfGhoFSzkXzLbPqqys/ID7pwEA8CgprTw0oBn/oB+t1bID9/kxg9Ik14RRJ18fDBkXupcgZb4Teu3z1DlfrujGvxXN7B5+MjrkJxkN0803FD1y18lpiIaxCaNObHEqJoyH7niNyJueaJCFUHnY0O+YUxUbn+/d4ch8s41rx2a4jiNiXFj1t/+qkyUs/I5zJOIcuh/fE5OrDHBU0e8YoH2LTVhLc7NwksgF48Ks0oTZ9sqY4/wjHo9/zv2zAAAMpaS065Bg2LySfuTrgmGb6yb5/qBB6RCbMDJKmtlHz29Kdf3DY8k4035OCmjmzXTdIrTfTTvLMPh+LzQsvWeSbWrfXwb1ZV86Q2v41KkzzE8PVyeSmpr6P/1ytOfwwYHBizasWbX89dUrt69fO5go8zBMbVo3KNq6+mWdrXTXBvPysB5c2iaT5UdjCHJP2kAG0G7qEd+/MyqT9Xc91pGoiExYSbklXox2omZYimID1ptCFExWx7ftbQ5ywQDYB0Lsr4TjxymaOZ9+uN5ENCzDSpiwdxTdeLZIt04rLRUHuFdi3ywQBxZPN46iz19E+3qY9tHDRV9xzdIouj5kbDcomrEoqEVmUlvr9DycjM6c5eg3PlpX/kKs87FFsc6+xTVdO16p6RK0HbaWNXSLOUtWiJPIRKQ7eZ1N3R8X1ItVA1zXy7/zHS2xAWQjdv9rrfI8ueq93zGnIroWMueMJzZw3bKxNJu5KhkFS3FGJBmwAZkL1tSEXDAA9oYydflHlZD5WzVkYJbkKIiHDamTX0mdxAwlbAZ4jUP3UuwOmeRAWdVhxWFzYpFuXqqEImH67HIyzZuCFUjAz4ioTamN3yYDtp6u0Rv0eH0ymhAy3phYbqz/7gx702nTzR2nzbDFqdMtcVoyos+wAWMj4XuMKYpnJJ4+3RZL67pHPQ9sT+KhQq60f9UDNXLo1e+4UxXPkuSSGINkOJEXlpxkFKynJ6UoGOldMmCvcBRMiCT+oQlAoaJMM86gjr1S/nghsTuzok4+UZfN6KVO9n4ywFcU6fYJQd36kjJt+ZdZ/LhIqz5a0Y0z6DM3kVl7Jqgb9fSZtfR8W+LzMGAZk3uNUhX/DRXR9Zng1qxKRemeNciGjgul3vxUgzQ+nLDu1/mOhXgSwhNGO5nfxMxGv+NPRWzqfjg7KmpW9KJwawpqbmpKaUYk54JFo9F/IhcMgGFSokWPpg6+QtWMdVy80u8HDUqjOIJFnTV1jBuozeO0fZK2Dw4VdUj/UjRjEW276Nps3WneYJKhFMSJ6qdWWOKVeJccAvTrdMdKbJA6uvvFZffH05qkz3lhHFHkvDCUqhi+Uo2C7ZwRyblghoEoGADDZfKCBQcGNesnZAYicnFpRFlGQWyqEoaXjNY7tN2ymzTz3Z3Gi43bbvuAoOGJc8GunF8jS0NkqiBrquLZoG+SSZrxcossHstRO79zSFYcWeNo2PzXWuX+/b4b8tOqlKNgXB2fc8GaUR0fgOTgITBVs6YrurEWyd6jKI5wkcnyE4wXlA6xGeEk9Wxe2JqHJF+t6RZnpHmJJq4Xpr/QIqNtyAvbtxJRsG4vqjVs8fu9XDDHcc6mLmX/RM8CABgWkypaD1a0yMU8PCZ/wGAAICgvxHlWJeWmHIrM1nINawZ5SaN+8bO58bQm6LMJ+8sTDTICyOti+n039J7YhDU1NiYfBWPTZtsrbcu6HWtEApAixVr1eFUznyYjtlUOg/n8qEEQlFviKNgP7oqKhra+rDVhPCTJRuxPj9XLmmHpGpLkHLPf/qtW9PQOoGjrPsRFhXu6u+UMx1RywbwZkaiOD0CKKFOXH66GzZvpx6svYcIQDYOgXBebml8+UCsXtM5WI8JDpGwQK15qlrNDeQjV71ySFZ/7L+6vEe3d/VjMexhqakohCoYZkQCkj+Kw892AZr1EP4LbMBMPgnJfnJR/42P1or9/QEab/DrfsZZnwh5Ylijcmi4Txks08fJFzZ19KFOxF/EwZCpRMH4/bbfZ7+WCAQBGwullNYcFdatU1Y1uJOhDUO6L86L+/kyjHPLL5uR0NmGPp7leGA/FTr47Kpo6sncoNluUUi7Ye1Gw25ALBkA6KBUHBHVbVcLGffRjuF7O0vP5cYMgKDfEJmzac01ibQ6YsOftThEMw4SNpjgK1t3VlWoumJwRGU9Uxz/Q7UUAACPh6IqFBwe8umH0QwYjBkG5K16+51Y3EpbNMwQzFQm7ACZsj2IDxttko2Bs2IZGwQzDOMLtPgAA6aBEqz5aDVvT6Yfs9eLyqO8PHARB2S+eIZjICRv7Rbv3pPdywtrkkk3pNGE/vicqc8JgwnYXz4jkKJif0dqbZBTMtreTAXvFMc2zS1EdH4D0UlJa+QFFs85XdWMx/ZhtRTQMgnJTXHfrlw/U5MbsyBczMTsyLtq7+pGYvwc1ppgL5jjOKtu2b8eMSAAyRGBWzWFqufV7VTOaUMEdgnJTbGq+n+V1wjhXjYdK//hook6Y33mkIp4Z+jvUCfOVlwsWTcxwHLaGVMdfwjMiS0tLEQUDIFMoYfM4MmF3K7r5BmZLQlDuiYf3SsoTi3dnqwnjYdLO7gFx8dxY2ivm/xUV8/eohvr6lKNgZN4QBQMg05SUVh6ihCPnKrrxgqykj2FJCMopcfV5zo2ayWtHrslOE7Z+7aBYUtMlTp+e7rUjDRF+oVm8PrhKTkzw++5CVCIK1unV+Rq2OApGpm27bVlLOBcM1fEBGAWKtOpPBTTzT2TEVmBYEoJyTzwsd+X8WhkRysYyFRvXDYrpL7WIE8g0pWvJIs4r46ja/KVt4k3av9/3FqLYgK0cGBCNDQ0pRcGitr2KdFttbS1mRAIwGoj9xP5yWFI37yAjthbDklDhiv8BMhz5fXbsxHlhp1ZYYnGsS2xYm12GhBPmOXH+5/PiZBYjvsefiiaQCTup3BIvRjvFxiw757EUm7Cuzk5pqpIxYUNzwaKWdY7bPQAARoVScUAgZHxf1cxX6F+q22HEoIJS2JL18vapclsotC3SLGkC2PykIs7j8j2OEYjrhf3tyUa5dFG2RMN4VuT6NavEo9VcHyx9syJZnOD/w9lRUbOiFzMjd9FIcsFIU1AdH4AxoFi3/ycYjvxO1SI2/Wt/G3c6fj9+EJRfsgTd81vJIKykf4B0klno2pMCmtl5coXZ9b1Z9qozZlhbz7jDEWfMtJPSd0knV1hpNSQsNnenT7fEa3XdYsPa7DAlawdXiu7eAfGL+TVpnRXJ4qT8Xz9UK41eNq8UMJriKFhnR4c0VclGwWi7zZsRiVwwAMaIkoraI4o041rqcKJq2NoeRH4YlM9K3N87VN1oJlUooerfqiHjalUzrvGVbl196bzY756ItM58ta5rBWnHa/XdZHy6hq1Ic7eY+2qrNGL0t7b7MY1AXLj1D4/UiVU8W3CMSzawOdqwZlDMreRFu420FWhl8b54MkLohaasnYww2vJywZKNgu2sju84g1wXzLKsz7vdAQBgLCguM45SyozbyYitDFagmj6UxyITpujGNtJitSxyZsm8ykNKS8UBfuIhe64c3tvb+6HNb6w6Z9O6wVfXr1m1feO61dJsDFeb3xgUHd394qJ7YzKh3ve4UhQPc3KEbf5rbWI9fRcbIb8OezS0gcyR2dgjzpnliBPTHAWTZTnCpngh2olK+a68KFiKyfhb6XMvkAnjNSL3d7sCAMBYUTxt+RmKbj5OP3ibYcSgvFXY5lylbaoeeZHu83Hu7b9P+vv7Fer4Fq8cGNjOS8Ps2iHuTWyM2Dj87cmGtNbM8sSG56w7bPFabbdMWB8LI/Y6GTCuC/abh2pkrprfcY5EHAX70d0x0drVL9bChI0oCkbi5YlilmVdHVu69DPuLQ4AGEvGVxgfC+r2BdRBPaPqBowYlJ/yTJgWealYs8e7t/8+GRgYCJK5eSUVE8ZaT8bhKbNDHkNGkvSnRcRP743JpPXRni3JBnNgYKUofbJRmsx0laQYKi51cfuzTTLnDPlg70XB/IzW3uQm428g3VVrWV91b28AQDYgjZhmTqYO6tmEEcOMSSjPNEYmjJfYaevql9GcE0Ppj4ax8eGhzsvvrxG1bX0yUX80ipm+QQaMa5Xd+nSjjMilMw/ME+8zSNuXo51ZV45jrMRRsPq6uqSjYPKxbTtRy/pZV1fXIe7tDQDIFtiI0Y/e5J0RsXJExKA80hiZMDZE68iIhV9skcn0vsc2QiWMWERcPDcuqht6pBHLVLI+nw/nu3GuGy8jxMOF6Z504ImHN6/0Fixf7X88hSSOgnW0t6eWC+Y462OOc1c0Gv26e2sDALINLyIGIwblncbIhLG4flZ1Q7c4c2Z6l/IZKs+InXunIx6uapPrK/L3pjNPjGt0ce7Zsvpu8csHauUQZCaGWFm8Xy7FcW/liqwpwzGW8nLBUomCkXZwFCxm25c6jvNB99YGAGQj505t/ijniAWlETNhxKD80BiaMM5lWkudKEeOuOaV7/GlSTw0GNQt+V1WU4/M2+LSDqlGxvjYeR88A5OHVe9ctEKceYcjh0DTXf9sqLjW2OQ5UdHS0SfzwfyOrZA0kigYGa/19LnZtbW1yAUDIBdIRMScyapuPEs/iEjWh3JfY2jCWOvXrpILW5863ZYRHt9jTJM4isQJ7WfPcoS2sFnYzT3yGDiKxdExNmR7yxvzjBe/n3Pa2AhxKYyL58bEiWS+0l2GYldxVI+/587FK2TuWTqjebkqjoLV1dYmnwuWiILR/+xLkAsGQA7x3tCkTNbfAiMG5bTG2ISxsVntRsPSXTPMT2xkOF+Lzcx3yfj96dF68a9l7SLS2CO6egekueFhPjZlnrjeF+d7rexfKWpae8XTZoeY8lyTuGB2VBpHjk5lIgF/V/Gw6k/ujonm9j5pBv3as5DkRcHYWCVjwtzq+Bs4CoZcMABykPGlQ42YGxFDZX0oFzXGJozFw4IGmaCzZqa/qOmexGaMDRQPgxaFTFlQ9Rf3x8WNZMqmksGatahF3FO5Qty1eIUIL2yWJvE3D9WK8+dERTF9lj/HeWyZHHocKi8X7P7XWqUhHI2ZntksNmAD/f0pRcFkJMy26WP2JQ0NDQe5tzQAIJcYX9H6Mfpx/JGqmU/ymnv0eAfWmoRyTllgwjgaxnXDpr/UIqM9o2VsPHEUi80f1xbjmYccJfOWGWKDxpEzPi7+bxz1ylTS/d7Ew6i8TmRP34AcCvVrx0ISm7D2traUcsFoiygYAPlAYmiyelJAs6ZSJxZXw+b2YDlqiUE5pCwwYSyeYcgJ7pfdF89YyYrhiqNkbMA8sSnk1/zeOxriiNvp022xJN4lh0f92q+Q5EXBamtqko6CxWOx7ZwLxjMiW1tbD3ZvZwBAzlJaekDx9JqjlLB5PXVmzntGDMOTUA4oS0wYiw3Gy9EucUqFRcbD51gLUGwAOQrHUUKZjF/gw5AsLwrmZ7T2Ji8KRiZsTp3jfM29lQEA+YBa7nxBDVvX0o9mJf14vq6W21meJ0bHRh1wkI5zp3g4FblthaUsMmHe7MOZL7e41ebHNiI21uLoGw+BXvNQrejuHZDRQr92KySNNBeM5MRiMcyIBCAfKdKqP6eWWT+kH8+7FN3okRExNja7/LiOtRJmi6QZ/1E1803SRhZ1xptpuyMYRiSvYJRFJoy1bnCl6OsbEDcsqJcGZCyHAcdaPFv0B3c5spQGT17wa69CE5uwttbWEeWCxQzjWPc2BgDkHUIcECi3TlTCZhn9kNYrmvl2Ns2edHPW/kPH1Uom7GkyXbNpO0vVWeYD9LpBWxnJCyIqlv/KMhPGYsPR0NYnLpnL+WGZLeKareJI4KkVlnjO6hBcEJba2retCkkjyQUjybpgnAu2YMECzIgEIK8pFQdM1Kq/SebmGvpBfZoMzlr548pDlLv82I6eLJGoaWZsDujmy/T8BkU3iot1+39Kppn/fUp53WcnhCNfL9LsiwK6MYc+05WI5MGI5bWy0ISx3iDjwUsa/eCu6Jgn6o+2vDIdXAiW88B4mNavjQpNI42CIRcMgAJDLv6tG99TNHOmEorUkAHaOibGhr7PjYBtVsPmc8GwfeGJt5mfdg/zfZSUVn5A0c3vcCSPtmTEeOgSRixvlaUmjCM/XDT15ViX+J5cDqgwImJcDoN+L2ReHC9LtAZLE0mxAevv60spCsZbO1Ed/9Lq6uoPubcwAKAQmFTRenAwZH6Fo2L047qQOrxBaWqkKcq8uWETpejGDvreHlUzH6XXfjRuyqKPu4e3B8T+Eyqi4wI8TKkZa6UR89k3lAfKUhPG4pmAG9YOihecTvG9WWTEpuZ3RIxLUQRCprhjUcKAoR7Ye2IT1rpiRdJRsJ3V8R1ntmma33BvXwBAoREoqzpMLbPOJCOkBzWjgQzZOztnJPr8IKdF0jwZO0gx6mhvVcsiJ02qMD7mHtLeKS09gMziD9WQuZT2tR3RsDxVFpswljRiXLoi1im+f2c0b5P1eQiyOGyKWYtbxBoyHDBg72kkUTAZCXNzwVAdHwCwH/3gfkPRjevIhD1J5qhd1XiIknO10mtyEsOe5g7afzSgmX8YX2Yc5R7CsAnq1peUUOQu6qA3YjWAPFWWmzCWZ8SW1XWLi+6NieOnjs5ajaMhNpSc88ZJ+A+81irWkfniKJhfOxSqRpgLtp5zwVAdHwCwk5Jw5Sc4KZ50I3WAi8mArWeTk5Z8Mc7/4hITYWsLGTBbCdnXB8qiR7pfnRTfKnvpI2TCbqPjxJBkvioHTBiLjRgXc61r7RXX/rtOfIeMC+dP+Z5TjoiNJEf2LpgTlUOub6weFGsQAXuf2ID19fZKQ5VCLtgOMl9RxzR/jur4AIDdKAk5/0Um58f0r+F7qSOsVTVrozRRqZgx93NuWYl+2t/jim7/iovIul+XNCUzKw9VyyL/hAnLY+WICfPE5St6egeE/kKzOKncklGkXBye5PwvXqPy92Qooy29WJR7D+J7q3VFS0pRMPrMRo6CGagLBgDYE6eX1XyEy1kENfNKVbfnKppZSz/Sb8qSEmyq2PywsZLmaojc12ReGZs2fo2LrupmTNGtUHE4OrEkHP+E+zUpcWxp5aHUQd9OnRxMWL4qx0wYiyvHvz64Sjxnd4iL7o3LmZO5EhXjxb+59tkZMywxa9EK0duXiPD5nWehK9UoGCfj78wFQ3V8AMBwKJnXdYiqGd9WQuYVZKjmkZGqoc5xDb32JhmzbYllkIaInpM5os5TGq/VpBi9796gZl02YUr06/sJsb+765SZGI58XQkZZAyNTcgJy1PloAljce0sLmHR3NEnyp5vFmdMt8UJUw0yOdlpxrzcL/obFb9/uE4sre2WNcCQgL93pTIjcmhdMDJhiIIBAIZPIjJmf1PV7F+QIbtN1Y051EkuVnSjmX7I20itcquZTbR9WdEis5VpkdvYfJ2sx79RpKWnDs6xCxoOUjTrYupATNmRJIY5oXxTjpowT7zWJEfFXiVT84dH6kWQzokjTWzG2Pj4nvMoivO+vlNmSP1sblz8e3m76O9PRL9QhHXP8qJgHNVKNheMxNXxY1HLugwzIgEAKcFmiocTJ4TjX1Q0+yw1ZFwe1K2reNgysbUuI2N0ZqCs6kh+X7rMFzNutvNB6pxPCoSMB1TN2IChyDxWjpswFpsZNjUrB1aK5+1Oce3DdeLkCkuuvcjmh6NPvueeIbH545wvL/J1MZmvea+2itaufpn7hQKs+xabsBUtI8oFuxszIgEAOQdXzC8uq5oY0K05qm6sTuSb+Xc2UB4oD0yYJzY3XNy1v39ALIp1ib8+0SDOu9OR+WI8C3ECGSM2RZmIkPE+OerFxo+/69Tptvj1g7Xi38vbRBuZLzaJHLXzO27o/RrJjEh3VmTMcZyfkz7s3q4AAJD9cAQsqFklqmbcTR3L6mxaeBzKkPLIhHniMg88i5JNT7ylV0ahrnu4Tpw505ZGjAujcoSMt/yczdNwjZlntni4k6Nd3n7Y6JXQ38rl98VF+YvNorKmW6waWCnWr03kfWHmY3JqaW5OPRcsGp0TR3V8AEAuISNgYXNiwoAZMGCFojw0YZ7Y+LAZ4+hYX9+ALAXxaHW7KH2qQVw6Ly7OudMRJ5dboihkyrpjx02JiOOmRsTxJI5myagWiZ+zvk3/nV9nwzWR/jYmkan70d1Rcf0jdeKeJa1iaV23aO/ul+aPvxM5X8mLo2C9vb0ixssNpZAL5jgOcsEAALlFUWn1pxTdOON9BkyWwvDptKH8Uh6bME90nInoGCfxk7gqfV/fShFt7hXPWh3i3ldbhbawWQ5fXkeG6uqHasWvHqwVl99XI66aXyOfcz2vPz1WL257tlHMWtQizdyyejJdXf1iDZktLpvBho+3iHqlLjZhqUbByITxjMi7MSMSAJAzKOHlXyUDdp2iRZ6lznhNsMKtOebXYUP5pwIwYUPFhoxNkmecOFdr49rEVuZsDawUvb0DortnQLR19ovO7n75fKA/saA2G7mNawZlpIvfz+aOI168X7/vg4YvNmA93d0pzYik7Q5SzLKsyyorK1EXDACQ/Shh66tK2Pibqhv11CG/gyT8AlSBmbA9yTNnbKjYWLHhYpPGW37OSf/SbJH8Pg+NXGzCmpuaUs0FkzMikQsGAMgJgjNqvqLoRqmqmU3vVd336aSh/BZMGJQFkrlgPT1eVGvYcnPB+LHMBUMUDACQ1XACPnW+3whKA2ZIA8Yd8W6dM5S6eEIDt6mc2JDlQ7swYVCWKNUoGH1mo23bd5uIggEAspmS2c5/TQxbP1Q0cyYZsBZe7BvLEaVJblu6EcXtbGxYso1lsdssNWMwYdAYKxEF65YRrWRMGOeOkbbGHOc1xzR/unDhwoPd2xMAALKL4D9jn+Gq+4puvqzqxrpEtCbLozS5ItfIkpnZpOhGL6mKTO6Lqma+wsO91Oabdq79uetnx1owYdAYK5EL1ph0Mr5M4HecVtu2/xSNRg93b00AAMgughVLP0OG63LqbCup492KGmDpE0e/yGRtI9UEdfP+YMj8i6pb50wst04MlJkT6fHV1NYPKprZSMZsc9bl3sGEQWMob0ZkKlEw2r5NepQMWMC9LQEAILs4jg2YjIC5BgwJ+GmTO8y4TdUjZjBsXh8sW3ps8PZlnywtLT3Abf79lKnLPxoMGeMCmvUbMmJPkhFbn1XXACYMGiOxAeNtsrlgQ6NgUdu+3lm06OPubQkAANlDsCL2GTXMC39HllCHCwOWTiWGc3eQsapVQub1JVOMI9xm96VkZsOhZITPU0KRJ+jzb2XNougwYdAYyYuC+RmtvcktzLqFTNhjiIIBALKSY0sbDirWIucrWmQRmYX/wIClV8VyVQFjHU9yCIbMr7jNvldOL6v5SDBkXEWmpzYxHJwFQ8IwYdAYiWuuNTUmlwvGcociORfsD/HKyk+4tyQAAGQP42Y/82E1ZN6k6MaqxDJEPh1wzktGo3aX73vTp0ROnfkWGZenOP/rqtnOB91m3yfKNPM4uiYPyfwwMkB++x9VwYRBY6BEFKwrpVwwev879Fjmggkh9ndvSQAAyB6Kdft/yCBUUAe7PmuGvtIoGdljw6UZO96nof9tl8+MXBYZsBhtjc30/OlAmXHB+ArjY26TD4vTZjsfV8JmmaKbr2fFdYEJg8ZIyUbB3pcLFo1eVxmPIwoGAMhOyCCcomjmc2RMtnJH69sB56LIXCVmJBpv0bm1qqFINRmIpapmujJivAg5mZztaTVjssSEjLS9Tt/xdFA3LuCke7e5h80kMm302Sl0/OtgwqBCFEfBursSUTA/s7UneTMiY47zWCwWU9xbEQAAso+AZv2EOtdaacAyEhUaA7EBI+NC59VDRuhhVbd+HwhVfVcti5xE53kSvX5yIGRcSGZMJxO2jD6zWkavUjVj7vfx52l/79Jr9UrIvKtYN84bNyW1GVmnTXE+DhMGFboaGxpSygWjz7SRCbvBaG1NKgINAACjSlC3fkbGoUmajzwxYTKHSjO7FM0sU6aZAR7ac093J+Oucj54cln0yGLNOp/MRbmqG3V0/lvk58lMyX3I9tiDZHt5le/psWa+Q58dJNO3iEzTdRPC0a+XzOtKeX06jp7R/qYpugUTBhWcvCiYn8nam4ZGwaKmiVwwAEB2EywjE6bljwlLRKOMDapmzQuUWSe6p7lHJi8QB5aEnK/R+68lk/EIfdak/QyQmdqshmmf0oztQZrBxmt1UDPiZE6eUjTrdjJk53Cenbv71KCOo3iGfQLt+wEyyJuQmA8Vmuh+EQ1JRsF25oLZdls0Gr2+rq7uk+5tCAAA2Ykiy1MYVr6YMDJBO8i41JCuIIN1kHua+4RXCwiUVf2/QLkzWQ1FbiEzxjMTLdqu2E2cY0bGi7aPKyFjCn3vpUV69QlFWvXn9htSgDVVxk8xjqBjuEnVjTZeUzIrrgtMGDRK4ihYlxsFS8aEuQbsHa4LZtu26t6CAACQvXCVdjIW2VMKYSRKRKe2qpr5HJmw77inmBTjZjsfHDfF+Xigwjo+oJEh04xf7ColVH2FOs28KBCylBNvW/TpktLKlIcdd2VSxcKDyXTx4umVdA7b5Tn5netoCyYMGgWxAeNtsrlgMgoWj8soGNcFIyOG6vgAgOyHDQeZlqlkLrIj92gEcmdD/ocjVIFQ1dfcU8wZ2ADSsZ9MRmc+GbA3Evlm/uc66oIJg0ZBMgrW2elrtPYmro5P27fJhD1uWRZmRAIAcoOS0spDVd34B5mXtflkwoJlxrHuKeYEvHJBoKzqFCVkzFX0CF2LLDJgLJgwKMNiA8a5YPV1dclHwXgo0nHaSDfEURcMAJAryFl4mvnPfDJh9PixXDJhbMA4AhbQqufJ65CotO97jmMm14SRXoYJgzIhNmHtbW1JGTCWNyOSo2AxjoJhRiQAIFdgE6bo5m3UuebPcGTIeCJXhiPHzRaJIUgZATMTBszn3MZawbDDJuwdRYs8qmrGt93D3ycwYdBwxAasv69P1NXWJm3CeCiSPtMW4zUiEQUDAOQSJTMrD1U1+2ZFMwezbggsWYUtMmGyWOqSgG58r6S08gPuaWYlx5YuOEjRbGnAVC8CJuuQ+ZzbmIpnaLJBNwaKNOPW46cuP9w9hX0CEwYNT6vEipaWlKJgDkfBHOfxOGZEAgByDZ7ZVxQyryATVksmRq6pmMuS0TwylFyxfmI4Gpi8YMGB7qlmFTuT8LM8ApbQThPWTM8vdU9hWMCEQfsSR8G85YlSNGGyOj5tMSMSAJBjCLH/hLLIBOpcn1fzZP1IWbBVM1aSabijOFSl7JdlRoyLuSph61w6xvtkEr7MAcvGCJgr954gs7iMi9G6pzEsYMKgvYkN2EB/f9LJ+Cw2YHaiLpjMBUN1fABATqJMW/5lNWQ8QKZlc67nhUmRoWFjE9SNATZiE8qdYElp6ksIpQseHp1QHvmWqln/RwZsER3r68GK7B8CduvHvUmaS/qGezrDAiYM2pvYhKUyDDm0Oj7ngqE6PgAgZzmlPPJZRTdKVc3sczvc3BcbMTciFtCNh4K6dVWQDBDnwLmnPWpMqmg9uEiLHk3te5GqGXfS8bWQtuZKDp5sR91Yw7Nok20/mDBoT+L7wasJltIwJEfBbPtxx3GC7u0GAAC5B+dNBTWTq8PHE/k/WTw0lpToPBKRvTdV3ahTNOu+YNi8kmf3XaBVf8g9/YzBkS8lbH01GDIuVHTzDhKvS/k6H1MuRRxdE7ZC0e3fFiXZbjBhkJ84AtbX1ydqa2qSNmAsWZzVttsdy0IuGAAg9wmGzFMVzagkg7Ijf0xYQmwiEhE+ayMZobqAbs0r1u0rAiHr+OCsuk9ynS63GUZOqTigJFz5CTZfHPlSdGsGbQ06jte9Y8mp9k0cKy8F9dJ4zTh58uTk8utgwqBdxQaM7oeklyby5FXHJxP2RCwWQ3V8AEDuM77MODagG3Oos92YN0OS71NieNI1FW8qYbOGDOfDZJL+HtAiPyFz9p0J4cjXS8LJ1xkqeqT6QxPKI8eQsTtBmWacF9DMv8qk+/fM146cM1+u5HHrxgZqv1lqufMF95SHDUwYtKtSzQNjeblgMbc6ft2yZcgFAwDkPkdXtB6shCLXkwnrSnS8/p1yzouMkDSZCUO0hXPGyIxZim68QEZsLhmyPwTDxoVBzSJjtvy88ZrxbS5oe3rZSx9JqOYjJ86o+YqiRc4qDls/5vcFyq3fqJo1i0zXc7SvKtpXDz3exN835LtyT/K4SZrRouj2r7gd3Ntl2MCEQUPFBoyr4vsZrOGIDVjUnRGJumAAgLyCC5ySCXuFOt538zMaNkSuGXMjPTvIgL1LhmwTmadOelxPj+sDmlHNES3a/iOoG6VB3Sql57fSf7+L3ldJ2zp+Hz1upe16aruttO/tnO+V0+bLlXsPbKf2WUz3xinubZIUMGGQJzZgXZ0dKdUD88RDkV4UDNXxAQB5hTIjengwbN1OpmJlXkfDdhWbJc+Qyceu+L9JY2asoceDZLIGyZCspscb6PVE7pyrfDFeQ8VLFdF2NRkwrXi6cZR7myQFTBjEYgPGBVndWY2+BmtfklEwNxeMDBiiYACA/IJn8xXrthsNM7blQ+HW5PWesZLmSpqzhEFLbD2z5RouabpYfvvKYcnzMreTIV8e0MzJ+5WWHuDeJkkBEwaxAevp7h6RAWO5n+9wHOePmBEJAMhLSiqMIxTdvI1M2KpENCwPDQa0T7HZpHvgLR6O5Rpn7u2RNDBhhS3PgNXGUytF4cmdEbmFtMBCdXwAQB6zfzDknK2GrVcU3djuRkSgApNrwrrp+v/fuCmpRx1gwgpXfL15CJIN1EgMGOeQ0XYbqSpqWZd1IAoGAMhnlBnLD1e0AswNg6RcA8aTDJ4PhMxTJy8QKa+9CRNWmEok4XeOeAiSxSbOtu2VtmXdHo/HP+feWgAAkKcsmHxgMGSeTZ3wEkW33i3M3LBCVaKemqIZPWrIvClQVnWYe1ekBExYYYnNF6ujvX1EsyA9ucn422hfrziOc7YQIqXcRAAAyCk4NyyoGbdTZ7wqERnx67ChfJO81pqxWdHNBWqZfZJ7O6QMTFjhiM0Xb1tXrJAGaqQGzCvMSvvpiDnO36LR6OHubQUAAPmNXE9SRsMiSzg3zK0ZBeWz5DW2ttH1rlK0yMXK1Oaki7PuCkxYYYiv7UB/v2hqbJTma6QGjOXmkq23bftuwzDGIQoGACgoSqYYRygyGmauLC6P7t5pQ3klOQypG2tVzdJLwpEvurfBiIAJy39xBIwT8Otqa9NivlgcAYtFo9uitr00ZtsXVlZWfsC9pQAAoHAoDpnfVTXzSeqkNyNJP3/13pCz9ZpaZv1w3Gzng+4tMCJgwvJXbL7ouoq21ta05H954n3JKJjjtEaj0T8hGR8AULBQZ/xxNWRdroSM6M4ipbt04FCOS15Xc4eqG/VB3bixOGR93r38IwYmLP/kJd/39vSIxoaGtA0/eqqtkTXF3iTNJxP2HfdWAgCAwiQYMr8S1K2QqhkDQR6WRO2wvJI7DNmthK1bJ5RHjnEve1qACcsvedGv1tbWtJSf2FWyKKttb6bHT8Xj8e/XvPTSR9xbCQAAChO5nFGoSlHC5mxFj6zFsGT+KFhBploz3yY9GtTttK/H55qwJTBhuS02X7zl2l/1dXU8VJh2A8bDkKQd0Wg0QvpZc/PIJ4YAAEBewEZMLYucqWjGi1w7DEYs9+Xmgb2j6sZiRbMuPm0ElfH3hBcJow4cJiwHJc0XqaenR858ZLOUbvPFYgPGw5D0uM+xrKnxeDwtE0MAACBv4MKdwbB9PXXadXJIEvlhuSt5/Syh6GaM9KtTZ5ifdi9zWlm/Zs3xHR0dj3R3d7+9ds0a344eyi55OV/8WJqvpiYRy8DQo6edBsy2V5LucBynSGA2JAAA7Mb+JVr06KBu/FkJRRo4UR/1w3JRlhyG5HIUZMBmBEM1X3Gvb9rZtGnTYa0tLaU1NTX9vJDz0A4eyi7Ja+NGK/laNbP5cmc9jpIBmxU1zQDKUQAAwF4omUlGLGT+RdWMeo6GoaJ+LilhwOjx66oWmR8sN089uvMqGvsAAAu1SURBVGLhwe6lzQhN9fVX2JbVxknX7W1tOzv8oQYAGht5ppjV39cnlxviGY+ZNl+sXQ1YzLIUGDAAABgGE6dGjgmGjD8rWqRBDm3BiOWEPAMW1M37g3r1aZMybMAYy7J+Rp1uA3e63PlyblFvb+/Ozt/PHECZ01DjxVXuu7u7RUtzs5eTlVHj5el9BsyyZkWj0QAq4gMAQBJMnPrqMUrY/IusL0VGDEOT2Sw3AhZORMDU8sjpkypaM27AGNu2T6dO9kXq3HkhZtnJc3kDXmOwr68PZizDGmq6WBzx4lmOK1paZJV7NkWZjnoNlWfA6PtWIQIGAAAjYGJ55BiFc8RkRIxMGIxY9okNshsBo+s0Xw1FTp9cKg5yL2HGIQN2uOM406kDfkPWgaKO2Ov0+TmbAc5BWrlyYDfD4GcqoPdr1zbz5P13jnZx+3Jle45CehEv27JGzXh58jNgQogD3VsFAABAshRxsj7niOkmImLZJpmzx+VErHWeATt6lCJgHl2VlYfYtn0NdbrNHAEb2il7Zow75/r6OtHaukKuQ9jX2yuLgu7NZEAJo8XtxEaLI1xcxZ4NF+d2sbltqK+XpseLQI6F8fLE137nEKRrwBbAgAEAwMjhiBgbMY6IcaI+6oiNveQ10IytpBYyYXMSQ5CZzwHbFc71IRM2gfQIdb6bvWjYUHlmzDMI/B42EBy54XwlNhTQ+8WzF5ubGmUiPRdQ9czWru05tF3HSu6C3Nvp+vezAaN7QcUQJAAApBFe8iaYyBGLkwnYLJP1OWnfxyBAmZQ3/Gj8R9HMSiVkXh8MRceNdgRsKPF4/BOWZd1AZqDL7ZB9O2tPnnHgyI0XvYHek9cufm3j155jJb7ObvRrM1fC50KsVlUVhiABACATlGjVR5MR+3UgZDymaMZgsUwGx/DkqImHgxPDj1tULfKKEjZ/HqxY+hn38owptm2fRZ3xMu6cdx2WhPJPfI3d6/xmzHGeoet/CVfCrywtRQQMAAAyRcnMykMVzT5Z0SN3KbrRq+jWNmkMEBXLqGS9Nm5jzehWQpFHA7rxs1NnNGWkEn4q1JjmVxzLmuLYdh8PN+4rGgblpvi6ukPO2x3HaSUDNj9qWT9cuHDhx9xbAQAAQCbhtSaVsBkgA/Z3RTOWqbrxFoxYhiSjX9KAbVfCRkNAM/4RnGarJeH4J9zLkRUsWLDgQOqUg6RHqaPeIoepfDpxKHfFkS/XgG3gqCdd6/+LRqPfaaisPNS9DQAAAIwGkycvOFCZET28qNy8iMzCvxXN7CQztsMdLtvdTEBJitpQzn6MCmrbN1TNXKrqkf8NhsyMLUM0Upqbmz8ad5wrqYM2yIhtw7BkfsiLftH2Xce2Ox3LuicWi11YW1t7hHvpAQAAjAXK1OUf5ciMGorcpOhmhAzEm3IGJXLFUpZct5PakNrzXTJgHbS9V9Gs89XyZV9wmz1b2Z87ZjJh11NnXet14Lt26lDuiM0XXcvt0WiUS08sId1sWdaJjuN80L3mAAAAxhq13PmCEjJ/Liu262Y3D59hiDJJ7Rx6NHnmYw+Zr4WqZv6Vh37Hzc6dTi8Wix1DnTQXcF3HVdthxHJLfL28oceY42yh5xG6nlPIiJ0Tj8c/J8hsu5caAABAtlCkVX9I1YwizlsiE1FFJmLNziFKmLE9i80XRw45+qVFVlHbLaTXb1JD9unBithn9hMipzo9IcQHopZ1TtS2n6QOfJ3Xqft1+FD2iK+RJ3r+NhmvTjJhj9mmeQU9/gJKTwAAQLZDhqG4zDhK0aLnk5koVzVzOZsxEiJju0pGvna2yRZSPbVTeEIocnrJtMr/dls0J2ltbf0YGbFzba6eHo3WUae+HUYsO8XXpYZERmsbPV9H5rmZDbRjmv8bj8fVumXLPuleVgAAALnAsaUNBxVPN45S9eofsbEgQ7Zc0Yx1ZDSkGZORn4I0ZHTOXs6XZm6j195UdKOZtv+m/3b1RM3+Zq5FvvZEZWXlIVVVVV9zLOsG6twtMmPb3QRvXzMAjY64/b3opDvbcZtj24NkmJeQEdOi0egva2tri6urqz/lXkoAAAC5SKkQBxRxkVfdvkDRrQoyHFVkOAZU3dj8XiSoAJL45bm6Q44y4d7oUUPmEjJi99Lz3xZr9nie5OA2W17BQ1nUwV9HHX01dfhvsgHgyAvM2OhpqOniLT+n67KJ/lsvqZIeT5VDyNHokWSeUXAVAADyiXGzZ38wePuyL0kzpll/I1PyIBmQWjJjb8qIkIwOeUNzeRIh43Pxzivx/O1EgVtzYZDaIBB2vhvUrS+dNsX5uNtMeYtlWZ+P2falZMTmUodfQ539RmnGhpiCoaYBSl3clp7pGhLtYnGJibdI3fS4iozxPLoufyady7NaeR1Q93IBAADIR0roX9klMxsOLdbtE4Ih6yoyJPcE5RqIRoeqmRvJrGznaFFilmCORcik6Uok2Q8Zbt1CRnOVqhm2ohmPBzXjb3R+pwfKqg7Ll2HH4cLDk2S+vkUO7HIyYnOjtl1DZmAd6T+eYfAMGZSchrafJ2rfrWS43qT2XUWP6aH9Ev3ffHp8Ixni8+Km+Y2ampqPcKFd9xIBAAAoFHgJpECo6muKbpyh6tYNZFTuZkNG2/cMmRtJSpgaNmVZFiXzTJeMdtGxacYOMlvv0HYlbWOKFllA5/LPQMi4kM71+JKZZk4n3KcDMmAfJkPwTTICvyBDECY9S+agkbZryVCwcdgBJSdqO263NaRuUhepibSQXp8Tc5x/OKb5U2rzCbFY7FjkegEAAHgfp01Z9HGeVRksN89WpxnXBkLWHDIyr5GBaVd0cyMZmrfp8TtBNj1syjha5kWbPGXCoA3dv1QiSpcQGS/N3CaPTTfWkeFqTExAMB+l12+m5xdPCBnjTpxhfponKrinClzYjNXU1BwWNc2JZBCuIMNQRnqOzEMVlJx4EW3Hsqbapvk7asNrqD1/Qe17SjQaPbyhoeFTCxcuPNhtdgAAAGDPlJRWHhIsM47lYTsyM38gUzNb0Y2HyOw8o4aMOjJHnNi/mp5vosc73m+QElGztIhN1vsMGEk3/kOmcC0dzyr6/g76/iUBzXhYKTPK6fUr1FDk9KIp1eNlfa/SUuTYDBPOR6qqqjqSzINKOh1KTpZlKZx3x0OL3JaluPcAAACMlOCsZZ8MlFUdqUxb/mUyRhPY6ARD5l/IBPHi4feRKariBH96vY62nfT6JtK7I5P5rqoZW8lgvU4msEXun8wfbaP0/GklbJbx5AJ673VKuX3WhKmRY0qmGEd8q+ylj7iHDQAAAACQXxxdsfBgrszPyf1klL6t6tXnkFn6kRKK/JjM0fX02jwyR88qWuQ5uU1BgZDxPO3nadL0oG5dFSw3J8vv0CLnB8LmxFPKI58dN9v5cMm8ykP2K8WMMgAAAAAUOCXhyk/IRP+wedxIFAhZx7PBC86yvjSpohW5NAAAAAAAAAAAAAAAAAAAAAAAAAAAAAAAAAAAAAAAAAAAAAAAAAAAAAAAAAAAAAAAAAAAAAAAAAAAAAAAAAAAAAAAAAAAAAAAAAAAAAAAAAAAAAAAAAAAAAAAAAAAAAAAAAAAAAAAAAAAAAAAAAAAAAAAAAAAAAAAAAAAAAAAAAAAAAAAAAAAAAAAAAAAAAAAAAAAAAAAAAAAAAAAAAAAAAAAAAAAAAAAAAAAAAAAAAAAAAAAAAAAAAAAAAAAAAAAAAAAAAAAAAAAAAAAAAAAAAAAAAAAAAAAAAAAAAAAAAAAAAAAAAAAAAAAAAAAAAAAAAAAAAAAAAAAAAAAAAAAAAAAAAAAAAAAAAAAAAAAAAAAAAAAAAAAAAAAAAAAAAAAAAAAAAAAAAAAAAAAAAAAAAAAAAAAAAAAAAAAAAAAAAAAAAAAAAAAAAAAAAAAAAAAAAAAAAAAAAAAAAAAAAAAAAAAAAAAAAAAAAAAAAAAAAAAAAAAAAAAAAAAAAAAAAAAAAAAAAAAAAAAAAAAAAAAsov99vv/5RMlKj+qCEwAAAAASUVORK5CYII=;" vertex="1" parent="UEzPUAAOIrF-is8g5C7q-107">
          <mxGeometry x="138" y="237" width="60.35" height="65.5" as="geometry" />
        </mxCell>
        <mxCell id="Aq2h1w9snX1bM9AUR9E7-1" value="" style="shape=image;verticalLabelPosition=bottom;labelBackgroundColor=default;verticalAlign=top;aspect=fixed;imageAspect=0;image=https://linecampus.co.kr/data/item/la_H020107.gif;clipPath=inset(18.75% 9.5% 17.5% 10%);" vertex="1" parent="UEzPUAAOIrF-is8g5C7q-107">
          <mxGeometry x="118.17000000000002" y="97" width="83.66" height="53" as="geometry" />
        </mxCell>
        <mxCell id="Aq2h1w9snX1bM9AUR9E7-2" value="" style="shape=image;verticalLabelPosition=bottom;labelBackgroundColor=default;verticalAlign=top;aspect=fixed;imageAspect=0;image=https://velog.velcdn.com/images/cho876/post/435f7c0c-9fda-4a67-aecc-a9633f5ffff4/image.png;clipPath=inset(20.41% 21.67% 21.6% 24.67%);" vertex="1" parent="UEzPUAAOIrF-is8g5C7q-107">
          <mxGeometry x="108.25" y="17" width="103.5" height="63" as="geometry" />
        </mxCell>
        <mxCell id="IiSIE2QJ0df0l0FEDecD-57" style="edgeStyle=orthogonalEdgeStyle;rounded=0;hachureGap=4;orthogonalLoop=1;jettySize=auto;html=1;fontFamily=Architects Daughter;fontSource=https%3A%2F%2Ffonts.googleapis.com%2Fcss%3Ffamily%3DArchitects%2BDaughter;fontSize=16;" edge="1" parent="UEzPUAAOIrF-is8g5C7q-74" source="UEzPUAAOIrF-is8g5C7q-80" target="UEzPUAAOIrF-is8g5C7q-81">
          <mxGeometry relative="1" as="geometry" />
        </mxCell>
        <mxCell id="UEzPUAAOIrF-is8g5C7q-80" value="Amazon&lt;br&gt;CloudWatch" style="outlineConnect=0;fontColor=#232F3E;gradientColor=#F34482;gradientDirection=north;fillColor=#BC1356;strokeColor=#ffffff;dashed=0;verticalLabelPosition=bottom;verticalAlign=top;align=center;html=1;fontSize=12;fontStyle=0;aspect=fixed;shape=mxgraph.aws4.resourceIcon;resIcon=mxgraph.aws4.cloudwatch;labelBackgroundColor=#ffffff;" vertex="1" parent="UEzPUAAOIrF-is8g5C7q-74">
          <mxGeometry x="292" y="217" width="78" height="78" as="geometry" />
        </mxCell>
        <mxCell id="IiSIE2QJ0df0l0FEDecD-53" style="edgeStyle=orthogonalEdgeStyle;rounded=0;hachureGap=4;orthogonalLoop=1;jettySize=auto;html=1;fontFamily=Architects Daughter;fontSource=https%3A%2F%2Ffonts.googleapis.com%2Fcss%3Ffamily%3DArchitects%2BDaughter;fontSize=16;" edge="1" parent="UEzPUAAOIrF-is8g5C7q-74" source="IiSIE2QJ0df0l0FEDecD-7" target="IiSIE2QJ0df0l0FEDecD-9">
          <mxGeometry relative="1" as="geometry" />
        </mxCell>
        <mxCell id="IiSIE2QJ0df0l0FEDecD-60" style="edgeStyle=orthogonalEdgeStyle;rounded=0;hachureGap=4;orthogonalLoop=1;jettySize=auto;html=1;fontFamily=Architects Daughter;fontSource=https%3A%2F%2Ffonts.googleapis.com%2Fcss%3Ffamily%3DArchitects%2BDaughter;fontSize=16;" edge="1" parent="UEzPUAAOIrF-is8g5C7q-74" source="IiSIE2QJ0df0l0FEDecD-24" target="UEzPUAAOIrF-is8g5C7q-80">
          <mxGeometry relative="1" as="geometry" />
        </mxCell>
        <mxCell id="IiSIE2QJ0df0l0FEDecD-47" style="edgeStyle=orthogonalEdgeStyle;rounded=0;hachureGap=4;orthogonalLoop=1;jettySize=auto;html=1;fontFamily=Architects Daughter;fontSource=https%3A%2F%2Ffonts.googleapis.com%2Fcss%3Ffamily%3DArchitects%2BDaughter;fontSize=16;strokeColor=default;" edge="1" parent="1" source="IiSIE2QJ0df0l0FEDecD-3" target="IiSIE2QJ0df0l0FEDecD-7">
          <mxGeometry relative="1" as="geometry">
            <Array as="points">
              <mxPoint x="920" y="182" />
              <mxPoint x="920" y="182" />
            </Array>
          </mxGeometry>
        </mxCell>
        <mxCell id="IiSIE2QJ0df0l0FEDecD-3" value="" style="shape=image;verticalLabelPosition=bottom;labelBackgroundColor=#ffffff;verticalAlign=top;aspect=fixed;imageAspect=0;image=data:image/svg+xml,PHN2ZyB4bWxuczpjYz0iaHR0cDovL2NyZWF0aXZlY29tbW9ucy5vcmcvbnMjIiB4bWxuczpkYz0iaHR0cDovL3B1cmwub3JnL2RjL2VsZW1lbnRzLzEuMS8iIHhtbG5zOmlua3NjYXBlPSJodHRwOi8vd3d3Lmlua3NjYXBlLm9yZy9uYW1lc3BhY2VzL2lua3NjYXBlIiB4bWxuczpyZGY9Imh0dHA6Ly93d3cudzMub3JnLzE5OTkvMDIvMjItcmRmLXN5bnRheC1ucyMiIHhtbG5zOnNvZGlwb2RpPSJodHRwOi8vc29kaXBvZGkuc291cmNlZm9yZ2UubmV0L0RURC9zb2RpcG9kaS0wLmR0ZCIgeG1sbnM6c3ZnPSJodHRwOi8vd3d3LnczLm9yZy8yMDAwL3N2ZyIgeG1sbnM9Imh0dHA6Ly93d3cudzMub3JnLzIwMDAvc3ZnIiB4bWxuczp4bGluaz0iaHR0cDovL3d3dy53My5vcmcvMTk5OS94bGluayIgdmVyc2lvbj0iMS4xIiBpZD0ic3ZnMTkxOCIgaW5rc2NhcGU6dmVyc2lvbj0iMC45Mi4zICgyNDA1NTQ2LCAyMDE4LTAzLTExKSIgc29kaXBvZGk6ZG9jbmFtZT0iZGVza3RvcC5zdmciIHg9IjBweCIgeT0iMHB4IiB2aWV3Qm94PSIwIDAgNTUuNjYgMzMuMzMiIHN0eWxlPSJlbmFibGUtYmFja2dyb3VuZDpuZXcgMCAwIDU1LjY2IDMzLjMzOyIgeG1sOnNwYWNlPSJwcmVzZXJ2ZSI+JiN4YTs8c29kaXBvZGk6bmFtZWR2aWV3IGJvcmRlcmNvbG9yPSIjNjY2NjY2IiBib3JkZXJvcGFjaXR5PSIxIiBmaXQtbWFyZ2luLWJvdHRvbT0iMCIgZml0LW1hcmdpbi1sZWZ0PSIwIiBmaXQtbWFyZ2luLXJpZ2h0PSIwIiBmaXQtbWFyZ2luLXRvcD0iMCIgZ3JpZHRvbGVyYW5jZT0iMTAiIGd1aWRldG9sZXJhbmNlPSIxMCIgaWQ9Im5hbWVkdmlldzE5MjAiIGlua3NjYXBlOmN1cnJlbnQtbGF5ZXI9InN2ZzE5MTgiIGlua3NjYXBlOmN4PSI1NC43MjUwMzkiIGlua3NjYXBlOmN5PSIxNy4zOTkwNDQiIGlua3NjYXBlOnBhZ2VvcGFjaXR5PSIwIiBpbmtzY2FwZTpwYWdlc2hhZG93PSIyIiBpbmtzY2FwZTp3aW5kb3ctaGVpZ2h0PSIxMDE3IiBpbmtzY2FwZTp3aW5kb3ctbWF4aW1pemVkPSIxIiBpbmtzY2FwZTp3aW5kb3ctd2lkdGg9IjE5MjAiIGlua3NjYXBlOndpbmRvdy14PSItOCIgaW5rc2NhcGU6d2luZG93LXk9Ii04IiBpbmtzY2FwZTp6b29tPSIxMS4xMTE0NjQiIG9iamVjdHRvbGVyYW5jZT0iMTAiIHBhZ2Vjb2xvcj0iI2ZmZmZmZiIgc2hvd2dyaWQ9ImZhbHNlIj4mI3hhOwk8L3NvZGlwb2RpOm5hbWVkdmlldz4mI3hhOzxnIGlkPSJncm91cDM1MTgtMyIgdHJhbnNmb3JtPSJ0cmFuc2xhdGUoMTAuMTE4ODU4LC04LjA0Njc1MikiPiYjeGE7CTx0aXRsZSBpZD0idGl0bGUxNzYyIj5nOTk5NDwvdGl0bGU+JiN4YTsJPGcgaWQ9Imdyb3VwMzUxOS00IiB0cmFuc2Zvcm09InRyYW5zbGF0ZSg1LjM1NzA2KSI+JiN4YTsJCTx0aXRsZSBpZD0idGl0bGUxNzY0Ij5nOTk4MDwvdGl0bGU+JiN4YTsJCTxnIGlkPSJzaGFwZTM1MjAtNSIgdHJhbnNmb3JtPSJ0cmFuc2xhdGUoMCwtMC44OTI4NDQpIj4mI3hhOwkJCTx0aXRsZSBpZD0idGl0bGUxNzY2Ij5wb2x5Z29uOTk3NDwvdGl0bGU+JiN4YTsJCQk8cGF0aCBpZD0icGF0aDE3NjgiIGlua3NjYXBlOmNvbm5lY3Rvci1jdXJ2YXR1cmU9IjAiIHN0eWxlPSJmaWxsOiM4MDgwODA7IiBkPSJNMi4xOCwzOWgzMC42bDIuMDQsMi4zOEgwTDIuMTgsMzl6Ii8+JiN4YTsJCTwvZz4mI3hhOwkJPGcgaWQ9InNoYXBlMzUyMS03IiB0cmFuc2Zvcm09InRyYW5zbGF0ZSgzLjI3Mzc2LC0xLjE5MDQ2KSI+JiN4YTsJCQk8dGl0bGUgaWQ9InRpdGxlMTc3MSI+cG9seWdvbjk5NzY8L3RpdGxlPiYjeGE7CQkJPHBhdGggaWQ9InBhdGgxNzczIiBpbmtzY2FwZTpjb25uZWN0b3ItY3VydmF0dXJlPSIwIiBzdHlsZT0iZmlsbDojMkUyRTJFOyIgZD0iTTAuOTksMzkuODloMjYuMzJsMC45NiwxLjQ5SDBMMC45OSwzOS44OXoiLz4mI3hhOwkJPC9nPiYjeGE7CQk8ZyBpZD0ic2hhcGUzNTIyLTkiPiYjeGE7CQkJPHRpdGxlIGlkPSJ0aXRsZTE3NzYiPnBhdGg5OTc4PC90aXRsZT4mI3hhOwkJCTxwYXRoIGlkPSJwYXRoMTc3OCIgaW5rc2NhcGU6Y29ubmVjdG9yLWN1cnZhdHVyZT0iMCIgc3R5bGU9ImZpbGw6IzFBMUExQTsiIGQ9Ik0zMy4zNyw0MS4zOEgxLjQ5QzAuMDEsNDEuMzgsMCw0MC41MSwwLDQwLjUxICAgICBoMzQuNzRDMzQuNzQsNDAuNTEsMzQuOTEsNDEuMzgsMzMuMzcsNDEuMzh6Ii8+JiN4YTsJCTwvZz4mI3hhOwk8L2c+JiN4YTsJPGcgaWQ9InNoYXBlMzUyMy0xMSIgdHJhbnNmb3JtPSJ0cmFuc2xhdGUoMTkuNjQyNiwtNC45MTA2NCkiPiYjeGE7CQk8dGl0bGUgaWQ9InRpdGxlMTc4MiI+cG9seWdvbjk5ODI8L3RpdGxlPiYjeGE7CQk8cGF0aCBpZD0icGF0aDE3ODQiIGlua3NjYXBlOmNvbm5lY3Rvci1jdXJ2YXR1cmU9IjAiIHN0eWxlPSJmaWxsOiMxQTFBMUE7IiBkPSJNMC42LDM3LjIxaDQuNzZsMC4wNCwwLjNsMC41NSwzLjg3SDBMMC42LDM3LjIxeiIvPiYjeGE7CTwvZz4mI3hhOwk8ZyBpZD0ic2hhcGUzNTI0LTEzIiB0cmFuc2Zvcm09InRyYW5zbGF0ZSgyMi42MTg3LC00LjkxMDY0KSI+JiN4YTsJCTx0aXRsZSBpZD0idGl0bGUxNzg3Ij5wb2x5Z29uOTk4NDwvdGl0bGU+JiN4YTsJCTxwYXRoIGlkPSJwYXRoMTc4OSIgaW5rc2NhcGU6Y29ubmVjdG9yLWN1cnZhdHVyZT0iMCIgc3R5bGU9ImZpbGw6IzJFMkUyRTsiIGQ9Ik0wLDM3LjUxaDIuNDJsMC41NiwzLjg3SDBWMzcuNTF6Ii8+JiN4YTsJPC9nPiYjeGE7CTxnIGlkPSJzaGFwZTM1MjUtMTUiIHRyYW5zZm9ybT0idHJhbnNsYXRlKDAsLTguMzMzMjEpIj4mI3hhOwkJPHRpdGxlIGlkPSJ0aXRsZTE3OTIiPnJlY3Q5OTg2PC90aXRsZT4mI3hhOwkJPHBhdGggaWQ9InBhdGgxNzk0IiBpbmtzY2FwZTpjb25uZWN0b3ItY3VydmF0dXJlPSIwIiBzdHlsZT0iZmlsbDojMjIxRjFGOyIgZD0iTTAsNDAuMTljMCwwLjY2LDAuNTMsMS4xOSwxLjE5LDEuMTloNDMuMTUgICAgYzAuNjYsMC4wMSwxLjE5LTAuNTIsMS4yLTEuMThjMCwwLDAtMC4wMSwwLTAuMDFWMTcuNTdjMC0wLjY2LTAuNTMtMS4xOS0xLjE5LTEuMTljMCwwLTAuMDEsMC0wLjAxLDBIMS4xOSAgICBDMC41MywxNi4zOCwwLDE2LjkxLDAsMTcuNTdWNDAuMTl6Ii8+JiN4YTsJPC9nPiYjeGE7CTxnIGlkPSJzaGFwZTM1MjYtMTciIHRyYW5zZm9ybT0idHJhbnNsYXRlKDEuMTkwNDYsLTkuNTIzNjcpIj4mI3hhOwkJPHRpdGxlIGlkPSJ0aXRsZTE3OTciPnJlY3Q5OTg4PC90aXRsZT4mI3hhOwkJPHJlY3QgaWQ9InJlY3QxNzk5IiB4PSIwIiB5PSIxOC43NiIgc3R5bGU9ImZpbGw6IzgwQkNFQjsiIHdpZHRoPSI0My4xNSIgaGVpZ2h0PSIyMi42MiIvPiYjeGE7CTwvZz4mI3hhOwk8ZyBpZD0ic2hhcGUzNTI3LTE5IiB0cmFuc2Zvcm09InRyYW5zbGF0ZSgxMy4zOTI3LC0zLjg2ODk5KSI+JiN4YTsJCTx0aXRsZSBpZD0idGl0bGUxODAyIj5wYXRoOTk5MDwvdGl0bGU+JiN4YTsJCTxwYXRoIGlkPSJwYXRoMTgwNCIgaW5rc2NhcGU6Y29ubmVjdG9yLWN1cnZhdHVyZT0iMCIgc3R5bGU9ImZpbGw6IzJFMkUyRTsiIGQ9Ik0xOC4wOSw0MS4zOEgwLjY2QzAuMzEsNDEuNCwwLjAyLDQxLjEzLDAsNDAuNzggICAgYzAsMC4wMSwxLjExLTAuODksMS4xNy0wLjg5aDE2LjEyYzAuNjcsMCwxLjQ2LDAuOSwxLjQ2LDAuOUMxOC43Myw0MS4xNCwxOC40NCw0MS40LDE4LjA5LDQxLjM4TDE4LjA5LDQxLjM4eiIvPiYjeGE7CTwvZz4mI3hhOwk8ZyBpZD0ic2hhcGUzNTI4LTIxIiB0cmFuc2Zvcm09InRyYW5zbGF0ZSgzMi43Mzc2LC0yMC41MzU0KSI+JiN4YTsJCTx0aXRsZSBpZD0idGl0bGUxODA3Ij5wb2x5Z29uOTk5MjwvdGl0bGU+JiN4YTsJCTxwYXRoIGlkPSJwYXRoMTgwOSIgaW5rc2NhcGU6Y29ubmVjdG9yLWN1cnZhdHVyZT0iMCIgc3R5bGU9ImZpbGw6I0FBRDJGMjsiIGQ9Ik0wLDI5Ljc3aDExLjYxdjExLjYxTDAsMjkuNzd6Ii8+JiN4YTsJPC9nPiYjeGE7PC9nPiYjeGE7PGcgaWQ9InNoYXBlMzUyOS0yMyIgdHJhbnNmb3JtPSJ0cmFuc2xhdGUoNy43Mzc5Mzc4LC02LjI2MTA2MikiPiYjeGE7CTx0aXRsZSBpZD0idGl0bGUxODEzIj5yZWN0OTk5NjwvdGl0bGU+JiN4YTsJPHJlY3QgaWQ9InJlY3QxODE1IiB4PSIwIiB5PSIxLjUiIHN0eWxlPSJmaWxsOm5vbmU7IiB3aWR0aD0iNTAiIGhlaWdodD0iMzkuODgiLz4mI3hhOzwvZz4mI3hhOzxnIGlkPSJzaGFwZTM1MzEtMjYiIHRyYW5zZm9ybT0idHJhbnNsYXRlKC00LjIyMzMzMTNlLTUsLTguMzQ0MzYyKSI+JiN4YTsJPHRpdGxlIGlkPSJ0aXRsZTE4MjEiPnJlY3QxMDAwMDwvdGl0bGU+JiN4YTsJPHJlY3QgaWQ9InJlY3QxODIzIiB4PSIwIiB5PSIxNCIgc3R5bGU9ImZpbGw6IzY2NjY2NjsiIHdpZHRoPSIxMy42OSIgaGVpZ2h0PSIyNy4zOCIvPiYjeGE7PC9nPiYjeGE7PGcgaWQ9Imdyb3VwMzUzMi0yOCIgdHJhbnNmb3JtPSJ0cmFuc2xhdGUoMC4yMzIwOTY3NywtOC4zNDQzNjIpIj4mI3hhOwk8dGl0bGUgaWQ9InRpdGxlMTgyNiI+ZzEwMDE0PC90aXRsZT4mI3hhOwk8ZyBpZD0ic2hhcGUzNTMzLTI5IiB0cmFuc2Zvcm09InRyYW5zbGF0ZSg4LjM5ODY4KSI+JiN4YTsJCTx0aXRsZSBpZD0idGl0bGUxODI4Ij5yZWN0MTAwMDI8L3RpdGxlPiYjeGE7CQk8cmVjdCBpZD0icmVjdDE4MzAiIHg9IjAiIHk9IjE0IiBzdHlsZT0iZmlsbDojNEQ0RDREOyIgd2lkdGg9IjUuMDYiIGhlaWdodD0iMjcuMzgiLz4mI3hhOwk8L2c+JiN4YTsJPGcgaWQ9InNoYXBlMzUzNC0zMSIgdHJhbnNmb3JtPSJ0cmFuc2xhdGUoMCwtMjMuOTgxOCkiPiYjeGE7CQk8dGl0bGUgaWQ9InRpdGxlMTgzMyI+cG9seWdvbjEwMDA0PC90aXRsZT4mI3hhOwkJPHJlY3QgaWQ9InJlY3QxODM1IiB4PSIwIiB5PSI0MC42NCIgc3R5bGU9ImZpbGw6bm9uZTsiIHdpZHRoPSI5LjE1IiBoZWlnaHQ9IjAuNzQiLz4mI3hhOwk8L2c+JiN4YTsJPGcgaWQ9InNoYXBlMzUzNS0zMyIgdHJhbnNmb3JtPSJ0cmFuc2xhdGUoMCwtMjMuOTgxOCkiPiYjeGE7CQk8dGl0bGUgaWQ9InRpdGxlMTgzOCI+cG9seWxpbmUxMDAwNjwvdGl0bGU+JiN4YTsJCTxyZWN0IGlkPSJyZWN0MTg0MCIgeD0iMCIgeT0iNDAuNjQiIHN0eWxlPSJmaWxsOm5vbmU7IiB3aWR0aD0iOS4xNSIgaGVpZ2h0PSIwLjc0Ii8+JiN4YTsJPC9nPiYjeGE7CTxnIGlkPSJzaGFwZTM1MzYtMzUiIHRyYW5zZm9ybT0idHJhbnNsYXRlKDguMTAxMDcsLTI0LjEwNjgpIj4mI3hhOwkJPHRpdGxlIGlkPSJ0aXRsZTE4NDMiPnJlY3QxMDAwODwvdGl0bGU+JiN4YTsJCTxyZWN0IGlkPSJyZWN0MTg0NSIgeD0iMCIgeT0iNDAuNzkiIHdpZHRoPSI0Ljc2IiBoZWlnaHQ9IjAuNiIvPiYjeGE7CTwvZz4mI3hhOwk8ZyBpZD0ic2hhcGUzNTM3LTM3IiB0cmFuc2Zvcm09InRyYW5zbGF0ZSgwLjM2MzA5LC0yNC4xMDY4KSI+JiN4YTsJCTx0aXRsZSBpZD0idGl0bGUxODQ4Ij5yZWN0MTAwMTA8L3RpdGxlPiYjeGE7CQk8cmVjdCBpZD0icmVjdDE4NTAiIHg9IjAiIHk9IjQwLjc5IiBzdHlsZT0iZmlsbDojMzMzMzMzOyIgd2lkdGg9IjUuMDYiIGhlaWdodD0iMC42Ii8+JiN4YTsJPC9nPiYjeGE7CTxnIGlkPSJzaGFwZTM1MzgtMzkiIHRyYW5zZm9ybT0idHJhbnNsYXRlKDUuNDIyNTQsLTI0LjEwNjgpIj4mI3hhOwkJPHRpdGxlIGlkPSJ0aXRsZTE4NTMiPnBvbHlnb24xMDAxMjwvdGl0bGU+JiN4YTsJCTxyZWN0IGlkPSJyZWN0MTg1NSIgeD0iMCIgeT0iNDAuNzkiIHN0eWxlPSJmaWxsOiNENEU4Rjg7IiB3aWR0aD0iMi45OCIgaGVpZ2h0PSIwLjYiLz4mI3hhOwk8L2c+JiN4YTs8L2c+JiN4YTs8ZyBpZD0ic2hhcGUzNTM5LTQxIiB0cmFuc2Zvcm09InRyYW5zbGF0ZSgtNC4yMjMzMzEzZS01LC0zMi40NTExNjIpIj4mI3hhOwk8dGl0bGUgaWQ9InRpdGxlMTg1OSI+cmVjdDEwMDE2PC90aXRsZT4mI3hhOwk8cmVjdCBpZD0icmVjdDE4NjEiIHg9IjAiIHk9IjQwLjc5IiBzdHlsZT0iZmlsbDojRkZGRkZGOyIgd2lkdGg9IjAuNiIgaGVpZ2h0PSIwLjYiLz4mI3hhOzwvZz4mI3hhOzxnIGlkPSJzaGFwZTM1NDAtNDMiIHRyYW5zZm9ybT0idHJhbnNsYXRlKDguMzMzMTY3OCwtMzAuNjY1NDYyKSI+JiN4YTsJPHRpdGxlIGlkPSJ0aXRsZTE4NjQiPnJlY3QxMDAxODwvdGl0bGU+JiN4YTsJPHJlY3QgaWQ9InJlY3QxODY2IiB4PSIwIiB5PSI0MC43OSIgd2lkdGg9IjQuNzYiIGhlaWdodD0iMC42Ii8+JiN4YTs8L2c+JiN4YTs8ZyBpZD0ic2hhcGUzNTQxLTQ1IiB0cmFuc2Zvcm09InRyYW5zbGF0ZSgwLjU5NTE4Njc3LC0zMC42NjU0NjIpIj4mI3hhOwk8dGl0bGUgaWQ9InRpdGxlMTg2OSI+cmVjdDEwMDIwPC90aXRsZT4mI3hhOwk8cmVjdCBpZD0icmVjdDE4NzEiIHg9IjAiIHk9IjQwLjc5IiBzdHlsZT0iZmlsbDojMzMzMzMzOyIgd2lkdGg9IjUuMDYiIGhlaWdodD0iMC42Ii8+JiN4YTs8L2c+JiN4YTs8ZyBpZD0ic2hhcGUzNTQyLTQ3IiB0cmFuc2Zvcm09InRyYW5zbGF0ZSg1LjY1NDYzNzgsLTMwLjY2NTQ2MikiPiYjeGE7CTx0aXRsZSBpZD0idGl0bGUxODc0Ij5wb2x5Z29uMTAwMjI8L3RpdGxlPiYjeGE7CTxyZWN0IGlkPSJyZWN0MTg3NiIgeD0iMCIgeT0iNDAuNzkiIHN0eWxlPSJmaWxsOiNENEU4Rjg7IiB3aWR0aD0iMi45OCIgaGVpZ2h0PSIwLjYiLz4mI3hhOzwvZz4mI3hhOzxnIGlkPSJzaGFwZTM1NDMtNDkiIHRyYW5zZm9ybT0idHJhbnNsYXRlKC00LjIyMzMzMTNlLTUsLTMwLjY2NTQ2MikiPiYjeGE7CTx0aXRsZSBpZD0idGl0bGUxODc5Ij5yZWN0MTAwMjQ8L3RpdGxlPiYjeGE7CTxyZWN0IGlkPSJyZWN0MTg4MSIgeD0iMCIgeT0iNDAuNzkiIHN0eWxlPSJmaWxsOiNGRkZGRkY7IiB3aWR0aD0iMC42IiBoZWlnaHQ9IjAuNiIvPiYjeGE7PC9nPiYjeGE7PGcgaWQ9InNoYXBlMzU0NC01MSIgdHJhbnNmb3JtPSJ0cmFuc2xhdGUoOC4zMzMxNjc4LC0yOC44Nzk3NjIpIj4mI3hhOwk8dGl0bGUgaWQ9InRpdGxlMTg4NCI+cmVjdDEwMDI2PC90aXRsZT4mI3hhOwk8cmVjdCBpZD0icmVjdDE4ODYiIHg9IjAiIHk9IjQwLjc5IiB3aWR0aD0iNC43NiIgaGVpZ2h0PSIwLjYiLz4mI3hhOzwvZz4mI3hhOzxnIGlkPSJzaGFwZTM1NDUtNTMiIHRyYW5zZm9ybT0idHJhbnNsYXRlKDAuNTk1MTg2NzcsLTI4Ljg3OTc2MikiPiYjeGE7CTx0aXRsZSBpZD0idGl0bGUxODg5Ij5yZWN0MTAwMjg8L3RpdGxlPiYjeGE7CTxyZWN0IGlkPSJyZWN0MTg5MSIgeD0iMCIgeT0iNDAuNzkiIHN0eWxlPSJmaWxsOiMzMzMzMzM7IiB3aWR0aD0iNS4wNiIgaGVpZ2h0PSIwLjYiLz4mI3hhOzwvZz4mI3hhOzxnIGlkPSJzaGFwZTM1NDYtNTUiIHRyYW5zZm9ybT0idHJhbnNsYXRlKDUuNjU0NjM3OCwtMjguODc5NzYyKSI+JiN4YTsJPHRpdGxlIGlkPSJ0aXRsZTE4OTQiPnBvbHlnb24xMDAzMDwvdGl0bGU+JiN4YTsJPHJlY3QgaWQ9InJlY3QxODk2IiB4PSIwIiB5PSI0MC43OSIgc3R5bGU9ImZpbGw6I0Q0RThGODsiIHdpZHRoPSIyLjk4IiBoZWlnaHQ9IjAuNiIvPiYjeGE7PC9nPiYjeGE7PGcgaWQ9InNoYXBlMzU0Ny01NyIgdHJhbnNmb3JtPSJ0cmFuc2xhdGUoLTQuMjIzMzMxM2UtNSwtMjguODc5NzYyKSI+JiN4YTsJPHRpdGxlIGlkPSJ0aXRsZTE4OTkiPnJlY3QxMDAzMjwvdGl0bGU+JiN4YTsJPHJlY3QgaWQ9InJlY3QxOTAxIiB4PSIwIiB5PSI0MC43OSIgc3R5bGU9ImZpbGw6I0ZGRkZGRjsiIHdpZHRoPSIwLjYiIGhlaWdodD0iMC42Ii8+JiN4YTs8L2c+JiN4YTs8ZyBpZD0ic2hhcGUzNTQ4LTU5IiB0cmFuc2Zvcm09InRyYW5zbGF0ZSgtNC4yMjMzMzEzZS01LC0yNy4wOTQwNjIpIj4mI3hhOwk8dGl0bGUgaWQ9InRpdGxlMTkwNCI+cmVjdDEwMDM0PC90aXRsZT4mI3hhOwk8cmVjdCBpZD0icmVjdDE5MDYiIHg9IjAiIHk9IjQwLjc5IiBzdHlsZT0iZmlsbDojRkZGRkZGOyIgd2lkdGg9IjAuNiIgaGVpZ2h0PSIwLjYiLz4mI3hhOzwvZz4mI3hhOzxnIGlkPSJzaGFwZTM1NDktNjEiIHRyYW5zZm9ybT0idHJhbnNsYXRlKC00LjIyMzMzMTNlLTUsLTI1LjMwODM2MikiPiYjeGE7CTx0aXRsZSBpZD0idGl0bGUxOTA5Ij5yZWN0MTAwMzY8L3RpdGxlPiYjeGE7CTxyZWN0IGlkPSJyZWN0MTkxMSIgeD0iMCIgeT0iNDAuNzkiIHN0eWxlPSJmaWxsOiNGRkZGRkY7IiB3aWR0aD0iMC42IiBoZWlnaHQ9IjAuNiIvPiYjeGE7PC9nPiYjeGE7PC9zdmc+;" vertex="1" parent="1">
          <mxGeometry x="940" y="150" width="101.82" height="60" as="geometry" />
        </mxCell>
        <mxCell id="IiSIE2QJ0df0l0FEDecD-41" value="" style="edgeStyle=orthogonalEdgeStyle;rounded=0;sketch=1;hachureGap=4;jiggle=2;curveFitting=1;orthogonalLoop=1;jettySize=auto;html=1;fontFamily=Architects Daughter;fontSource=https%3A%2F%2Ffonts.googleapis.com%2Fcss%3Ffamily%3DArchitects%2BDaughter;fontSize=16;" edge="1" parent="1" source="IiSIE2QJ0df0l0FEDecD-6" target="IiSIE2QJ0df0l0FEDecD-15">
          <mxGeometry relative="1" as="geometry" />
        </mxCell>
        <mxCell id="IiSIE2QJ0df0l0FEDecD-42" value="" style="edgeStyle=orthogonalEdgeStyle;rounded=0;sketch=1;hachureGap=4;jiggle=2;curveFitting=1;orthogonalLoop=1;jettySize=auto;html=1;fontFamily=Architects Daughter;fontSource=https%3A%2F%2Ffonts.googleapis.com%2Fcss%3Ffamily%3DArchitects%2BDaughter;fontSize=16;" edge="1" parent="1" source="IiSIE2QJ0df0l0FEDecD-6" target="IiSIE2QJ0df0l0FEDecD-15">
          <mxGeometry relative="1" as="geometry" />
        </mxCell>
        <mxCell id="IiSIE2QJ0df0l0FEDecD-6" value="users" style="sketch=0;outlineConnect=0;gradientColor=none;fontColor=#545B64;strokeColor=none;fillColor=#879196;dashed=0;verticalLabelPosition=bottom;verticalAlign=top;align=center;html=1;fontSize=12;fontStyle=0;aspect=fixed;shape=mxgraph.aws4.illustration_users;pointerEvents=1" vertex="1" parent="1">
          <mxGeometry x="984.09" y="380" width="100" height="100" as="geometry" />
        </mxCell>
        <mxCell id="IiSIE2QJ0df0l0FEDecD-43" style="edgeStyle=orthogonalEdgeStyle;rounded=0;sketch=1;hachureGap=4;jiggle=2;curveFitting=1;orthogonalLoop=1;jettySize=auto;html=1;fontFamily=Architects Daughter;fontSource=https%3A%2F%2Ffonts.googleapis.com%2Fcss%3Ffamily%3DArchitects%2BDaughter;fontSize=16;" edge="1" parent="1" source="IiSIE2QJ0df0l0FEDecD-15" target="IiSIE2QJ0df0l0FEDecD-6">
          <mxGeometry relative="1" as="geometry" />
        </mxCell>
        <mxCell id="IiSIE2QJ0df0l0FEDecD-15" value="" style="shape=image;verticalLabelPosition=bottom;labelBackgroundColor=#ffffff;verticalAlign=top;aspect=fixed;imageAspect=0;image=data:image/svg+xml,PHN2ZyB4bWxuczpjYz0iaHR0cDovL2NyZWF0aXZlY29tbW9ucy5vcmcvbnMjIiB4bWxuczpkYz0iaHR0cDovL3B1cmwub3JnL2RjL2VsZW1lbnRzLzEuMS8iIHhtbG5zOmlua3NjYXBlPSJodHRwOi8vd3d3Lmlua3NjYXBlLm9yZy9uYW1lc3BhY2VzL2lua3NjYXBlIiB4bWxuczpyZGY9Imh0dHA6Ly93d3cudzMub3JnLzE5OTkvMDIvMjItcmRmLXN5bnRheC1ucyMiIHhtbG5zOnNvZGlwb2RpPSJodHRwOi8vc29kaXBvZGkuc291cmNlZm9yZ2UubmV0L0RURC9zb2RpcG9kaS0wLmR0ZCIgeG1sbnM6c3ZnPSJodHRwOi8vd3d3LnczLm9yZy8yMDAwL3N2ZyIgeG1sbnM9Imh0dHA6Ly93d3cudzMub3JnLzIwMDAvc3ZnIiB4bWxuczp4bGluaz0iaHR0cDovL3d3dy53My5vcmcvMTk5OS94bGluayIgdmVyc2lvbj0iMS4xIiBpZD0ic3ZnMjQ3ODciIGlua3NjYXBlOnZlcnNpb249IjAuOTIuMyAoMjQwNTU0NiwgMjAxOC0wMy0xMSkiIHNvZGlwb2RpOmRvY25hbWU9Im1vYmlsZV80LnN2ZyIgeD0iMHB4IiB5PSIwcHgiIHZpZXdCb3g9IjAgMCAzMS4zNSA0OS4wOSIgc3R5bGU9ImVuYWJsZS1iYWNrZ3JvdW5kOm5ldyAwIDAgMzEuMzUgNDkuMDk7IiB4bWw6c3BhY2U9InByZXNlcnZlIj4mI3hhOzxzb2RpcG9kaTpuYW1lZHZpZXcgYm9yZGVyY29sb3I9IiM2NjY2NjYiIGJvcmRlcm9wYWNpdHk9IjEiIGZpdC1tYXJnaW4tYm90dG9tPSIwIiBmaXQtbWFyZ2luLWxlZnQ9IjAiIGZpdC1tYXJnaW4tcmlnaHQ9IjAiIGZpdC1tYXJnaW4tdG9wPSIwIiBncmlkdG9sZXJhbmNlPSIxMCIgZ3VpZGV0b2xlcmFuY2U9IjEwIiBpZD0ibmFtZWR2aWV3MjQ3ODkiIGlua3NjYXBlOmN1cnJlbnQtbGF5ZXI9InN2ZzI0Nzg3IiBpbmtzY2FwZTpjeD0iMjAuODk4MTQzIiBpbmtzY2FwZTpjeT0iMzIuNzI3NjgxIiBpbmtzY2FwZTpwYWdlb3BhY2l0eT0iMCIgaW5rc2NhcGU6cGFnZXNoYWRvdz0iMiIgaW5rc2NhcGU6d2luZG93LWhlaWdodD0iMTAxNyIgaW5rc2NhcGU6d2luZG93LW1heGltaXplZD0iMSIgaW5rc2NhcGU6d2luZG93LXdpZHRoPSIxOTIwIiBpbmtzY2FwZTp3aW5kb3cteD0iLTgiIGlua3NjYXBlOndpbmRvdy15PSItOCIgaW5rc2NhcGU6em9vbT0iMTMuMjQ2NDc4IiBvYmplY3R0b2xlcmFuY2U9IjEwIiBwYWdlY29sb3I9IiNmZmZmZmYiIHNob3dncmlkPSJmYWxzZSI+JiN4YTsJPC9zb2RpcG9kaTpuYW1lZHZpZXc+JiN4YTs8ZyBpZD0iZzI0Nzg1IiB0cmFuc2Zvcm09InRyYW5zbGF0ZSgwLDJlLTQpIj4mI3hhOwk8dGl0bGUgaWQ9InRpdGxlMjQ2OTAiPlBhZ2UtMTwvdGl0bGU+JiN4YTsJPGcgaWQ9Imdyb3VwMzM1My0xIj4mI3hhOwkJPHRpdGxlIGlkPSJ0aXRsZTI0NjkyIj5Nb2JpbGUgIzQ8L3RpdGxlPiYjeGE7CQk8ZyBpZD0ic2hhcGUzMzU0LTIiIHRyYW5zZm9ybT0idHJhbnNsYXRlKDIyLjU0MTgsLTI2LjM1MDkpIj4mI3hhOwkJCTx0aXRsZSBpZD0idGl0bGUyNDY5NCI+U2hlZXQuMzM1NDwvdGl0bGU+JiN4YTsJCQk8cGF0aCBpZD0icGF0aDI0Njk2IiBpbmtzY2FwZTpjb25uZWN0b3ItY3VydmF0dXJlPSIwIiBzdHlsZT0iZmlsbDojQkM5MDZGOyIgZD0iTTEuOTksNDUuMjFDMC44NSw0NS4yMSwwLDQ2LjA2LDAsNDcuMTVsMCwwICAgICBjMCwxLjA5LDAuODUsMS45NCwxLjk5LDEuOTRjNC45MSwwLDQuOTEsMCw0LjkxLDBjMS4wNiwwLDEuOTEtMC44NSwxLjkxLTEuOTRsMCwwYzAtMS4wOS0wLjg1LTEuOTQtMS45MS0xLjk0TDEuOTksNDUuMjF6Ii8+JiN4YTsJCTwvZz4mI3hhOwkJPGcgaWQ9InNoYXBlMzM1NS00IiB0cmFuc2Zvcm09InRyYW5zbGF0ZSgyMi41NDE4LC0yMC40NDYyKSI+JiN4YTsJCQk8dGl0bGUgaWQ9InRpdGxlMjQ2OTkiPlNoZWV0LjMzNTU8L3RpdGxlPiYjeGE7CQkJPHBhdGggaWQ9InBhdGgyNDcwMSIgaW5rc2NhcGU6Y29ubmVjdG9yLWN1cnZhdHVyZT0iMCIgc3R5bGU9ImZpbGw6I0JDOTA2RjsiIGQ9Ik0xLjk5LDQ1LjIxQzAuODUsNDUuMjEsMCw0Ni4xMywwLDQ3LjE5bDAsMCAgICAgYzAsMS4wNywwLjg1LDEuOSwxLjk5LDEuOWM0LjkxLDAsNC45MSwwLDQuOTEsMGMxLjA2LDAsMS45MS0wLjgzLDEuOTEtMS45bDAsMGMwLTEuMDYtMC44NS0xLjk4LTEuOTEtMS45OEgxLjk5eiIvPiYjeGE7CQk8L2c+JiN4YTsJCTxnIGlkPSJzaGFwZTMzNTYtNiI+JiN4YTsJCQk8dGl0bGUgaWQ9InRpdGxlMjQ3MDQiPlNoZWV0LjMzNTY8L3RpdGxlPiYjeGE7CQkJPHBhdGggaWQ9InBhdGgyNDcwNiIgaW5rc2NhcGU6Y29ubmVjdG9yLWN1cnZhdHVyZT0iMCIgc3R5bGU9ImZpbGw6I0JDOTA2RjsiIGQ9Ik0wLDQ5LjA5YzUuOTctMTEuNzMsNS45Ny0xMS43Myw1Ljk3LTExLjczICAgICBjLTAuNTMtMS4zLTAuNzYtMi44Mi0wLjc2LTQuNDJjMC01LjMzLDAtNS4zMywwLTUuMzNjMC01LjQ5LDMuMTMtOS45OCw4LjcyLTkuOThjNS41MSwwLDEwLjAyLDQuNDksMTAuMDIsOS45OCAgICAgYzAsNS4zMywwLDUuMzMsMCw1LjMzYzAsMy45Ni0yLjI5LDcuMzktNS42Niw4Ljk5Yy0yLjA3LDcuMTYtMi4wNyw3LjE2LTIuMDcsNy4xNkgweiIvPiYjeGE7CQk8L2c+JiN4YTsJCTxnIGlkPSJzaGFwZTMzNTctOCIgdHJhbnNmb3JtPSJ0cmFuc2xhdGUoMjcuNTYwOSwtMzIuMjU1NikiPiYjeGE7CQkJPHRpdGxlIGlkPSJ0aXRsZTI0NzA5Ij5TaGVldC4zMzU3PC90aXRsZT4mI3hhOwkJCTxwYXRoIGlkPSJwYXRoMjQ3MTEiIGlua3NjYXBlOmNvbm5lY3Rvci1jdXJ2YXR1cmU9IjAiIGQ9Ik0wLDQ2LjQ0djIuNjVoMC43OXYtMi42NUgweiIvPiYjeGE7CQk8L2c+JiN4YTsJCTxnIGlkPSJzaGFwZTMzNTgtMTAiIHRyYW5zZm9ybT0idHJhbnNsYXRlKDI3LjU2MDksLTM4LjUxMjkpIj4mI3hhOwkJCTx0aXRsZSBpZD0idGl0bGUyNDcxNCI+U2hlZXQuMzM1ODwvdGl0bGU+JiN4YTsJCQk8cGF0aCBpZD0icGF0aDI0NzE2IiBpbmtzY2FwZTpjb25uZWN0b3ItY3VydmF0dXJlPSIwIiBkPSJNMCw0My45OHY1LjExaDAuNzl2LTUuMTFIMHoiLz4mI3hhOwkJPC9nPiYjeGE7CQk8ZyBpZD0ic2hhcGUzMzU5LTEyIiB0cmFuc2Zvcm09InRyYW5zbGF0ZSg4LjgwNTQsLTEzLjY2MDIpIj4mI3hhOwkJCTx0aXRsZSBpZD0idGl0bGUyNDcxOSI+U2hlZXQuMzM1OTwvdGl0bGU+JiN4YTsJCQk8cGF0aCBpZD0icGF0aDI0NzIxIiBpbmtzY2FwZTpjb25uZWN0b3ItY3VydmF0dXJlPSIwIiBzdHlsZT0iZmlsbDojOTY5Njk2OyIgZD0iTTAsMTMuNjZ2MzUuNDNoMTkuMDJWMTMuNjZIMHoiLz4mI3hhOwkJPC9nPiYjeGE7CQk8ZyBpZD0ic2hhcGUzMzYwLTE0IiB0cmFuc2Zvcm09InRyYW5zbGF0ZSg5Ljc3Mzk5LC0xNC4zNjUyKSI+JiN4YTsJCQk8dGl0bGUgaWQ9InRpdGxlMjQ3MjQiPlNoZWV0LjMzNjA8L3RpdGxlPiYjeGE7CQkJPHBhdGggaWQ9InBhdGgyNDcyNiIgaW5rc2NhcGU6Y29ubmVjdG9yLWN1cnZhdHVyZT0iMCIgZD0iTTAsNDguNDFjMCwwLjM4LDAuMzEsMC42OCwwLjY5LDAuNjhjMTUuNywwLDE1LjcsMCwxNS43LDAgICAgIGMwLjM5LDAsMC42OS0wLjMsMC42OS0wLjY4YzAtMzIuODQsMC0zMi44NCwwLTMyLjg0YzAtMC40Ni0wLjMtMC43Ni0wLjY5LTAuNzZjLTE1LjcsMC0xNS43LDAtMTUuNywwICAgICBjLTAuMzgsMC0wLjY5LDAuMy0wLjY5LDAuNzZMMCw0OC40MXoiLz4mI3hhOwkJPC9nPiYjeGE7CQk8ZyBpZD0ic2hhcGUzMzYxLTE2IiB0cmFuc2Zvcm09InRyYW5zbGF0ZSgxMS4yMjY5LC0yMC41Nzg0KSI+JiN4YTsJCQk8dGl0bGUgaWQ9InRpdGxlMjQ3MjkiPlNoZWV0LjMzNjE8L3RpdGxlPiYjeGE7CQkJPHBhdGggaWQ9InBhdGgyNDczMSIgaW5rc2NhcGU6Y29ubmVjdG9yLWN1cnZhdHVyZT0iMCIgc3R5bGU9ImZpbGw6IzAwMjA2MDsiIGQ9Ik0wLDI1LjI5djIzLjhoMTQuMTh2LTIzLjhIMHoiLz4mI3hhOwkJPC9nPiYjeGE7CQk8ZyBpZD0ic2hhcGUzMzYyLTE4IiB0cmFuc2Zvcm09InRyYW5zbGF0ZSgxMS4yMjY5LC0yMC41Nzg0KSI+JiN4YTsJCQk8dGl0bGUgaWQ9InRpdGxlMjQ3MzQiPlNoZWV0LjMzNjI8L3RpdGxlPiYjeGE7CQkJJiN4YTsJCQkJPHBhdGggaWQ9InBhdGgyNDczNiIgaW5rc2NhcGU6Y29ubmVjdG9yLWN1cnZhdHVyZT0iMCIgc3R5bGU9ImZpbGw6bm9uZTtzdHJva2U6IzMwMzAzMDtzdHJva2Utd2lkdGg6MC42MTI0O3N0cm9rZS1saW5lY2FwOnJvdW5kO3N0cm9rZS1saW5lam9pbjpyb3VuZDtzdHJva2UtbWl0ZXJsaW1pdDozOyIgZD0iICAgICBNMTQuMTgsMjUuMjlIMHYyMy44aDE0LjE4VjI1LjI5Ii8+JiN4YTsJCTwvZz4mI3hhOwkJPGcgaWQ9InNoYXBlMzM2My0yMSIgdHJhbnNmb3JtPSJ0cmFuc2xhdGUoMjMuNjg2NSwtNDYuMjY4MykiPiYjeGE7CQkJPHRpdGxlIGlkPSJ0aXRsZTI0NzM5Ij5TaGVldC4zMzYzPC90aXRsZT4mI3hhOwkJCTxwYXRoIGlkPSJwYXRoMjQ3NDEiIGlua3NjYXBlOmNvbm5lY3Rvci1jdXJ2YXR1cmU9IjAiIHN0eWxlPSJmaWxsOiM1MDUwNTA7IiBkPSJNMS41OCw0OC4zNGMwLTAuNDEtMC4zNS0wLjc1LTAuNzktMC43NSAgICAgQzAuMzYsNDcuNTksMCw0Ny45MywwLDQ4LjM0YzAsMC40MiwwLjM2LDAuNzUsMC43OSwwLjc1QzEuMjMsNDkuMDksMS41OCw0OC43NiwxLjU4LDQ4LjM0eiIvPiYjeGE7CQk8L2c+JiN4YTsJCTxnIGlkPSJzaGFwZTMzNjQtMjMiIHRyYW5zZm9ybT0idHJhbnNsYXRlKDUuNDMwOTUsLTI3LjQ0NjYpIj4mI3hhOwkJCTx0aXRsZSBpZD0idGl0bGUyNDc0NCI+U2hlZXQuMzM2NDwvdGl0bGU+JiN4YTsJCQk8cGF0aCBpZD0icGF0aDI0NzQ2IiBpbmtzY2FwZTpjb25uZWN0b3ItY3VydmF0dXJlPSIwIiBzdHlsZT0iZmlsbDojQkM5MDZGOyIgZD0iTTcuMTksNDEuOTVjMC43NiwwLjc3LDAuNzYsMi4wNywwLDIuOTEgICAgIGMtMy42NywzLjY4LTMuNjcsMy42OC0zLjY3LDMuNjhjLTAuODQsMC43Ni0yLjE0LDAuNzYtMi45MSwwYy0wLjg1LTAuODUtMC44NS0yLjE1LDAtMi45MWM1LjEzLTUuMTQsNS4xMy01LjE0LDUuMTMtNS4xNCAgICAgTDcuMTksNDEuOTV6Ii8+JiN4YTsJCTwvZz4mI3hhOwkJPGcgaWQ9InNoYXBlMzM2NS0yNSIgdHJhbnNmb3JtPSJ0cmFuc2xhdGUoNS4xOTUxOSwtMTkuODcyNykiPiYjeGE7CQkJPHRpdGxlIGlkPSJ0aXRsZTI0NzQ5Ij5TaGVldC4zMzY1PC90aXRsZT4mI3hhOwkJCTxwYXRoIGlkPSJwYXRoMjQ3NTEiIGlua3NjYXBlOmNvbm5lY3Rvci1jdXJ2YXR1cmU9IjAiIHN0eWxlPSJmaWxsOiNCQzkwNkY7IiBkPSJNMCw0Ni40NGMwLDEuMzgsMS4xNCwyLjUzLDIuNTEsMi41M2wwLDAgICAgIGMxLjM3LDAsMi41MSwwLjYsMi41MS0wLjg1YzAtOS43NywwLTkuNzcsMC05Ljc3YzAtMS4zOC0xLjE0LTAuODQtMi41MS0wLjg0bDAsMEMxLjE0LDM3LjUxLDAsMzguNjYsMCw0MC4wM1Y0Ni40NHoiLz4mI3hhOwkJPC9nPiYjeGE7CQk8ZyBpZD0ic2hhcGUzMzY2LTI3IiB0cmFuc2Zvcm09InRyYW5zbGF0ZSgyNi4wNjQsLTE1LjE1ODQpIj4mI3hhOwkJCTx0aXRsZSBpZD0idGl0bGUyNDc1NCI+U2hlZXQuMzM2NjwvdGl0bGU+JiN4YTsJCQk8cGF0aCBpZD0icGF0aDI0NzU2IiBpbmtzY2FwZTpjb25uZWN0b3ItY3VydmF0dXJlPSIwIiBzdHlsZT0iZmlsbDojQkM5MDZGOyIgZD0iTTEuOTMsNDUuMjFDMC44NSw0NS4yMSwwLDQ2LjEzLDAsNDcuMTlsMCwwICAgICBjMCwxLjA3LDAuODUsMS45LDEuOTMsMS45YzAuNTUsMCwwLjU1LDAsMC41NSwwYzEuMDgsMCwxLjkyLTAuODMsMS45Mi0xLjlsMCwwYzAtMS4wNi0wLjg0LTEuOTgtMS45Mi0xLjk4SDEuOTN6Ii8+JiN4YTsJCTwvZz4mI3hhOwkJPGcgaWQ9InNoYXBlMzM2Ny0yOSIgdHJhbnNmb3JtPSJ0cmFuc2xhdGUoOS4yNDU2NywtMzQuMTY1NikiPiYjeGE7CQkJPHRpdGxlIGlkPSJ0aXRsZTI0NzU5Ij5TaGVldC4zMzY3PC90aXRsZT4mI3hhOwkJCTxwYXRoIGlkPSJwYXRoMjQ3NjEiIGlua3NjYXBlOmNvbm5lY3Rvci1jdXJ2YXR1cmU9IjAiIHN0eWxlPSJmaWxsOiNFNUQwQzE7IiBkPSJNMS45Miw0Ny4yMWMwLjQ2LDAuNTQsMC40NiwwLjU0LDAuNDYsMC41NCAgICAgYy0wLjc3LDAuNzgtMC43NywwLjc4LTAuNzcsMC43OEMxLjE2LDQ4Ljk5LDAuNjIsNDkuMTUsMCw0OS4wN0wxLjkyLDQ3LjIxeiIvPiYjeGE7CQk8L2c+JiN4YTsJCTxnIGlkPSJzaGFwZTMzNjgtMzEiIHRyYW5zZm9ybT0idHJhbnNsYXRlKDguNDUzMTgsLTEuODUwNzMpIj4mI3hhOwkJCTx0aXRsZSBpZD0idGl0bGUyNDc2NCI+U2hlZXQuMzM2ODwvdGl0bGU+JiN4YTsJCQk8cGF0aCBpZD0icGF0aDI0NzY2IiBpbmtzY2FwZTpjb25uZWN0b3ItY3VydmF0dXJlPSIwIiBzdHlsZT0iZmlsbDojQkM5MDZGOyIgZD0iTTAsMjcuNWM0LjcxLDEuMzcsOC4xOSw1LjcsOC4xOSwxMC43OSAgICAgYzAsNS4xNy0zLjQ4LDkuNDMtOC4xOSwxMC44VjI3LjV6Ii8+JiN4YTsJCTwvZz4mI3hhOwkJPGcgaWQ9InNoYXBlMzM2OS0zMyIgdHJhbnNmb3JtPSJ0cmFuc2xhdGUoMTYuNjQyMiwtOS4xNjU1NCkiPiYjeGE7CQkJPHRpdGxlIGlkPSJ0aXRsZTI0NzY5Ij5TaGVldC4zMzY5PC90aXRsZT4mI3hhOwkJCTxwYXRoIGlkPSJwYXRoMjQ3NzEiIGlua3NjYXBlOmNvbm5lY3Rvci1jdXJ2YXR1cmU9IjAiIHN0eWxlPSJmaWxsOiNBMDZCNDc7IiBkPSJNNC40NCw0OS4wOUMwLDQ0LjU5LDAsNDQuNTksMCw0NC41OSAgICAgYzYuOTYsMCw2Ljk2LDAsNi45NiwwQzYuNSw0Ni4zLDUuNTgsNDcuODUsNC40NCw0OS4wOXoiLz4mI3hhOwkJPC9nPiYjeGE7CQk8ZyBpZD0ic2hhcGUzMzcwLTM1IiB0cmFuc2Zvcm09InRyYW5zbGF0ZSgyMi4xMDE2LC0xNy4wOTczKSI+JiN4YTsJCQk8dGl0bGUgaWQ9InRpdGxlMjQ3NzQiPlNoZWV0LjMzNzA8L3RpdGxlPiYjeGE7CQkJPHBhdGggaWQ9InBhdGgyNDc3NiIgaW5rc2NhcGU6Y29ubmVjdG9yLWN1cnZhdHVyZT0iMCIgc3R5bGU9ImZpbGw6IzczNzM3MzsiIGQ9Ik0xLjA2LDQ4Ljc4YzAsMC4yMS0wLjE5LDAuMzEtMC4yOSwwLjMxICAgICBjLTAuNDgsMC0wLjQ4LDAtMC40OCwwQzAuMSw0OS4wOSwwLDQ4Ljk5LDAsNDguNzhsMCwwYzAtMC4xLDAuMS0wLjMxLDAuMjktMC4zMWMwLjQ4LDAsMC40OCwwLDAuNDgsMCAgICAgQzAuODcsNDguNDcsMS4wNiw0OC42OCwxLjA2LDQ4Ljc4eiIvPiYjeGE7CQk8L2c+JiN4YTsJCTxnIGlkPSJzaGFwZTMzNzEtMzciIHRyYW5zZm9ybT0idHJhbnNsYXRlKDE3LjM0NjYsLTE2LjgzMjkpIj4mI3hhOwkJCTx0aXRsZSBpZD0idGl0bGUyNDc3OSI+U2hlZXQuMzM3MTwvdGl0bGU+JiN4YTsJCQk8cGF0aCBpZD0icGF0aDI0NzgxIiBpbmtzY2FwZTpjb25uZWN0b3ItY3VydmF0dXJlPSIwIiBzdHlsZT0iZmlsbDojNzM3MzczOyIgZD0iTTIuMiw0OC41MmMwLDAuMzgtMC4xOSwwLjU3LTAuNTcsMC41NyAgICAgYy0xLjA1LDAtMS4wNSwwLTEuMDUsMEMwLjI5LDQ5LjA5LDAsNDguOSwwLDQ4LjUybDAsMGMwLTAuMjksMC4yOS0wLjU4LDAuNTgtMC41OGMxLjA1LDAsMS4wNSwwLDEuMDUsMCAgICAgQzIuMDEsNDcuOTQsMi4yLDQ4LjIzLDIuMiw0OC41MnoiLz4mI3hhOwkJPC9nPiYjeGE7CTwvZz4mI3hhOzwvZz4mI3hhOzwvc3ZnPg==;" vertex="1" parent="1">
          <mxGeometry x="1008.1800000000001" y="182.59000000000003" width="51.82" height="81.91" as="geometry" />
        </mxCell>
        <mxCell id="IiSIE2QJ0df0l0FEDecD-17" value="" style="shape=image;verticalLabelPosition=bottom;labelBackgroundColor=#ffffff;verticalAlign=top;aspect=fixed;imageAspect=0;image=data:image/svg+xml,PHN2ZyB4bWxuczpjYz0iaHR0cDovL2NyZWF0aXZlY29tbW9ucy5vcmcvbnMjIiB4bWxuczpkYz0iaHR0cDovL3B1cmwub3JnL2RjL2VsZW1lbnRzLzEuMS8iIHhtbG5zOmlua3NjYXBlPSJodHRwOi8vd3d3Lmlua3NjYXBlLm9yZy9uYW1lc3BhY2VzL2lua3NjYXBlIiB4bWxuczpyZGY9Imh0dHA6Ly93d3cudzMub3JnLzE5OTkvMDIvMjItcmRmLXN5bnRheC1ucyMiIHhtbG5zOnNvZGlwb2RpPSJodHRwOi8vc29kaXBvZGkuc291cmNlZm9yZ2UubmV0L0RURC9zb2RpcG9kaS0wLmR0ZCIgeG1sbnM6c3ZnPSJodHRwOi8vd3d3LnczLm9yZy8yMDAwL3N2ZyIgeG1sbnM9Imh0dHA6Ly93d3cudzMub3JnLzIwMDAvc3ZnIiB4bWxuczp4bGluaz0iaHR0cDovL3d3dy53My5vcmcvMTk5OS94bGluayIgdmVyc2lvbj0iMS4xIiBpZD0ic3ZnMzY3MTEiIGlua3NjYXBlOnZlcnNpb249IjAuOTIuMyAoMjQwNTU0NiwgMjAxOC0wMy0xMSkiIHNvZGlwb2RpOmRvY25hbWU9InRhYmxldF8zLnN2ZyIgeD0iMHB4IiB5PSIwcHgiIHZpZXdCb3g9IjAgMCA3Ny4wNyA1Ny41OSIgc3R5bGU9ImVuYWJsZS1iYWNrZ3JvdW5kOm5ldyAwIDAgNzcuMDcgNTcuNTk7IiB4bWw6c3BhY2U9InByZXNlcnZlIj4mI3hhOzxzb2RpcG9kaTpuYW1lZHZpZXcgYm9yZGVyY29sb3I9IiM2NjY2NjYiIGJvcmRlcm9wYWNpdHk9IjEiIGZpdC1tYXJnaW4tYm90dG9tPSIwIiBmaXQtbWFyZ2luLWxlZnQ9IjAiIGZpdC1tYXJnaW4tcmlnaHQ9IjAiIGZpdC1tYXJnaW4tdG9wPSIwIiBncmlkdG9sZXJhbmNlPSIxMCIgZ3VpZGV0b2xlcmFuY2U9IjEwIiBpZD0ibmFtZWR2aWV3MzY3MTMiIGlua3NjYXBlOmN1cnJlbnQtbGF5ZXI9InN2ZzM2NzExIiBpbmtzY2FwZTpjeD0iNTEuMzc4MjM5IiBpbmtzY2FwZTpjeT0iMzguMzkwOTI4IiBpbmtzY2FwZTpwYWdlb3BhY2l0eT0iMCIgaW5rc2NhcGU6cGFnZXNoYWRvdz0iMiIgaW5rc2NhcGU6d2luZG93LWhlaWdodD0iMTAxNyIgaW5rc2NhcGU6d2luZG93LW1heGltaXplZD0iMSIgaW5rc2NhcGU6d2luZG93LXdpZHRoPSIxOTIwIiBpbmtzY2FwZTp3aW5kb3cteD0iLTgiIGlua3NjYXBlOndpbmRvdy15PSItOCIgaW5rc2NhcGU6em9vbT0iMTEuMjkwMzMzIiBvYmplY3R0b2xlcmFuY2U9IjEwIiBwYWdlY29sb3I9IiNmZmZmZmYiIHNob3dncmlkPSJmYWxzZSI+JiN4YTsJPC9zb2RpcG9kaTpuYW1lZHZpZXc+JiN4YTs8ZyBpZD0iZzM2NzA5IiB0cmFuc2Zvcm09InRyYW5zbGF0ZSgwLDAuMDAxMDM3MzQpIj4mI3hhOwk8dGl0bGUgaWQ9InRpdGxlMzY1MjkiPlBhZ2UtMTwvdGl0bGU+JiN4YTsJPGcgaWQ9Imdyb3VwMzI1OS0xIj4mI3hhOwkJPHRpdGxlIGlkPSJ0aXRsZTM2NTMxIj5UYWJsZXQgIzM8L3RpdGxlPiYjeGE7CQk8ZyBpZD0ic2hhcGUzMjYwLTIiIHRyYW5zZm9ybT0idHJhbnNsYXRlKDAsLTMuMDg1MzcpIj4mI3hhOwkJCTx0aXRsZSBpZD0idGl0bGUzNjUzMyI+U2hlZXQuMzI2MDwvdGl0bGU+JiN4YTsJCQk8cGF0aCBpZD0icGF0aDM2NTM1IiBpbmtzY2FwZTpjb25uZWN0b3ItY3VydmF0dXJlPSIwIiBzdHlsZT0iZmlsbDojRTVCNUFDOyIgZD0iTTAsNTcuNTlDNS41Niw0Ni42LDUuNTYsNDYuNiw1LjU2LDQ2LjYgICAgIGMtMC41Mi0xLjMyLTAuNjgtMi43Ni0wLjY4LTQuMjRjMC01LjE3LDAtNS4xNywwLTUuMTdjMC01LjE4LDIuOTYtOS40Miw4LjMyLTkuNDJjNS4yLDAsOS40MSw0LjI0LDkuNDEsOS40MiAgICAgYzAsNS4xNywwLDUuMTcsMCw1LjE3YzAsMy43My0yLjA5LDYuOTctNS4zNyw4LjQ1Yy0xLjkyLDYuNzgtMS45Miw2Ljc4LTEuOTIsNi43OEgweiIvPiYjeGE7CQk8L2c+JiN4YTsJCTxnIGlkPSJzaGFwZTMyNjEtNCIgdHJhbnNmb3JtPSJ0cmFuc2xhdGUoOC43MzQzMSwtMTUuOTQxMSkiPiYjeGE7CQkJPHRpdGxlIGlkPSJ0aXRsZTM2NTM4Ij5TaGVldC4zMjYxPC90aXRsZT4mI3hhOwkJCTxwYXRoIGlkPSJwYXRoMzY1NDAiIGlua3NjYXBlOmNvbm5lY3Rvci1jdXJ2YXR1cmU9IjAiIHN0eWxlPSJmaWxsOiMzRjU3NjU7IiBkPSJNNjYuNzksNTYuNjNjMCwwLjQ4LTAuMzIsMC45Ni0wLjgsMC45NiAgICAgQzEsNTcuNTksMSw1Ny41OSwxLDU3LjU5Yy0wLjQ5LDAtMS0wLjQ4LTEtMC45NmMwLTM5LjY5LDAtMzkuNjksMC0zOS42OWMwLTAuNDgsMC41MS0xLDEtMWM2NC45OSwwLDY0Ljk5LDAsNjQuOTksMCAgICAgYzAuNDgsMCwwLjgsMC41MiwwLjgsMVY1Ni42M3oiLz4mI3hhOwkJPC9nPiYjeGE7CQk8ZyBpZD0ic2hhcGUzMjYyLTYiIHRyYW5zZm9ybT0idHJhbnNsYXRlKDEzLjg3MjEsLTIxLjU5NzYpIj4mI3hhOwkJCTx0aXRsZSBpZD0idGl0bGUzNjU0MyI+U2hlZXQuMzI2MjwvdGl0bGU+JiN4YTsJCQk8cGF0aCBpZD0icGF0aDM2NTQ1IiBpbmtzY2FwZTpjb25uZWN0b3ItY3VydmF0dXJlPSIwIiBzdHlsZT0iZmlsbDojNTlCNEQ5OyIgZD0iTTU2LjUyLDU2Ljc5YzAsMC40OC0wLjQ5LDAuOC0wLjgxLDAuOCAgICAgYy01NC44OCwwLTU0Ljg4LDAtNTQuODgsMGMtMC40OCwwLTAuODMtMC4zMi0wLjgzLTAuOGMwLTI5LjI1LDAtMjkuMjUsMC0yOS4yNWMwLTAuNDgsMC4zNS0wLjgsMC44My0wLjggICAgIGM1NC44OCwwLDU0Ljg4LDAsNTQuODgsMGMwLjMyLDAsMC44MSwwLjMyLDAuODEsMC44TDU2LjUyLDU2Ljc5eiIvPiYjeGE7CQk8L2c+JiN4YTsJCTxnIGlkPSJzaGFwZTMyNjMtOCIgdHJhbnNmb3JtPSJ0cmFuc2xhdGUoNS4zMzg1MywtMjkuMDMwNykiPiYjeGE7CQkJPHRpdGxlIGlkPSJ0aXRsZTM2NTQ4Ij5TaGVldC4zMjYzPC90aXRsZT4mI3hhOwkJCTxwYXRoIGlkPSJwYXRoMzY1NTAiIGlua3NjYXBlOmNvbm5lY3Rvci1jdXJ2YXR1cmU9IjAiIHN0eWxlPSJmaWxsOiNFNUI1QUM7IiBkPSJNNi43LDUwLjYzYzAuODEsMC44MywwLjgxLDEuOTksMCwyLjgzICAgICBjLTMuMzcsMy41My0zLjM3LDMuNTMtMy4zNywzLjUzYy0wLjgsMC44NC0yLjA5LDAuODQtMi43MywwYy0wLjgtMC42Ny0wLjgtMS45OSwwLTIuODZjNC44Mi01LjA0LDQuODItNS4wNCw0LjgyLTUuMDRMNi43LDUwLjYzICAgICB6Ii8+JiN4YTsJCTwvZz4mI3hhOwkJPGcgaWQ9InNoYXBlMzI2NC0xMCIgdHJhbnNmb3JtPSJ0cmFuc2xhdGUoNS4xMzc4MywtMjEuOTkyMikiPiYjeGE7CQkJPHRpdGxlIGlkPSJ0aXRsZTM2NTUzIj5TaGVldC4zMjY0PC90aXRsZT4mI3hhOwkJCTxwYXRoIGlkPSJwYXRoMzY1NTUiIGlua3NjYXBlOmNvbm5lY3Rvci1jdXJ2YXR1cmU9IjAiIHN0eWxlPSJmaWxsOiNFNUI1QUM7IiBkPSJNMCw1NS4xYzAsMS4yOCwwLjk2LDIuNDEsMi40MSwyLjQxbDAsMCAgICAgYzEuMjgsMCwyLjIxLDAuNDgsMi4yMS0wLjgxYzAtOS4yMiwwLTkuMjIsMC05LjIyYzAtMS4zMi0wLjkzLTAuOC0yLjIxLTAuOGwwLDBDMC45Niw0Ni42OCwwLDQ3LjY0LDAsNDkuMDlWNTUuMXoiLz4mI3hhOwkJPC9nPiYjeGE7CQk8ZyBpZD0ic2hhcGUzMjY1LTEyIiB0cmFuc2Zvcm09InRyYW5zbGF0ZSg5LjI0ODEsLTM1LjU4OSkiPiYjeGE7CQkJPHRpdGxlIGlkPSJ0aXRsZTM2NTU4Ij5TaGVldC4zMjY1PC90aXRsZT4mI3hhOwkJCTxwYXRoIGlkPSJwYXRoMzY1NjAiIGlua3NjYXBlOmNvbm5lY3Rvci1jdXJ2YXR1cmU9IjAiIHN0eWxlPSJmaWxsOiNFRkQ5Q0I7IiBkPSJNMS42NCw1NS42NGMwLjQyLDAuNTIsMC40MiwwLjUyLDAuNDIsMC41MiAgICAgYy0wLjcxLDAuODctMC43MSwwLjg3LTAuNzEsMC44N0MxLjAzLDU3LjU0LDAuNDUsNTcuNywwLDU3LjU0TDEuNjQsNTUuNjR6Ii8+JiN4YTsJCTwvZz4mI3hhOwkJPGcgaWQ9InNoYXBlMzI2Ni0xNCIgdHJhbnNmb3JtPSJ0cmFuc2xhdGUoOC4yMjA1MywtNC42MjgwNSkiPiYjeGE7CQkJPHRpdGxlIGlkPSJ0aXRsZTM2NTYzIj5TaGVldC4zMjY2PC90aXRsZT4mI3hhOwkJCTxwYXRoIGlkPSJwYXRoMzY1NjUiIGlua3NjYXBlOmNvbm5lY3Rvci1jdXJ2YXR1cmU9IjAiIHN0eWxlPSJmaWxsOiNFNUI1QUM7IiBkPSJNMCwzNy4wMmM0LjUsMS4zMiw3LjcxLDUuNCw3LjcxLDEwLjI5ICAgICBjMCw0LjkyLTMuMjEsOS4xNi03LjcxLDEwLjI4VjM3LjAyeiIvPiYjeGE7CQk8L2c+JiN4YTsJCTxnIGlkPSJzaGFwZTMyNjctMTYiIHRyYW5zZm9ybT0idHJhbnNsYXRlKDE1LjkyNzMsLTExLjgyNzIpIj4mI3hhOwkJCTx0aXRsZSBpZD0idGl0bGUzNjU2OCI+U2hlZXQuMzI2NzwvdGl0bGU+JiN4YTsJCQk8cGF0aCBpZD0icGF0aDM2NTcwIiBpbmtzY2FwZTpjb25uZWN0b3ItY3VydmF0dXJlPSIwIiBzdHlsZT0iZmlsbDojQ0M4NjdGOyIgZD0iTTQuMzcsNTcuNTlDMCw1My40OCwwLDUzLjQ4LDAsNTMuNDggICAgIGM2LjY4LDAsNi42OCwwLDYuNjgsMEM2LjM2LDU1LjA5LDUuNTIsNTYuNSw0LjM3LDU3LjU5eiIvPiYjeGE7CQk8L2c+JiN4YTsJCTxnIGlkPSJzaGFwZTMyNjgtMTgiIHRyYW5zZm9ybT0idHJhbnNsYXRlKDE1LjY3MDQsLTM0LjE5NjEpIj4mI3hhOwkJCTx0aXRsZSBpZD0idGl0bGUzNjU3MyI+U2hlZXQuMzI2ODwvdGl0bGU+JiN4YTsJCQk8cGF0aCBpZD0icGF0aDM2NTc1IiBpbmtzY2FwZTpjb25uZWN0b3ItY3VydmF0dXJlPSIwIiBzdHlsZT0iZmlsbDojRkZGRkZGOyIgZD0iTTAsNDkuODh2Ny43MWg1MS44OXYtNy43MUgweiIvPiYjeGE7CQk8L2c+JiN4YTsJCTxnIGlkPSJzaGFwZTMyNjktMjAiIHRyYW5zZm9ybT0idHJhbnNsYXRlKDE5LjAxLC00OC44NTE2KSI+JiN4YTsJCQk8dGl0bGUgaWQ9InRpdGxlMzY1NzgiPlNoZWV0LjMyNjk8L3RpdGxlPiYjeGE7CQkJJiN4YTsJCQkJPHBhdGggaWQ9InBhdGgzNjU4MCIgaW5rc2NhcGU6Y29ubmVjdG9yLWN1cnZhdHVyZT0iMCIgc3R5bGU9ImZpbGw6bm9uZTtzdHJva2U6I0ZGRkZGRjtzdHJva2Utd2lkdGg6MS4yMjQ5O3N0cm9rZS1saW5lY2FwOnJvdW5kO3N0cm9rZS1saW5lam9pbjpyb3VuZDtzdHJva2UtbWl0ZXJsaW1pdDozOyIgZD0iICAgICBNMCw1Ny41OWg0NS42NiIvPiYjeGE7CQk8L2c+JiN4YTsJCTxnIGlkPSJzaGFwZTMyNzAtMjMiIHRyYW5zZm9ybT0idHJhbnNsYXRlKDE1LjQxMzUsLTMwLjMzOTQpIj4mI3hhOwkJCTx0aXRsZSBpZD0idGl0bGUzNjU4MyI+U2hlZXQuMzI3MDwvdGl0bGU+JiN4YTsJCQkmI3hhOwkJCQk8cGF0aCBpZD0icGF0aDM2NTg1IiBpbmtzY2FwZTpjb25uZWN0b3ItY3VydmF0dXJlPSIwIiBzdHlsZT0iZmlsbDpub25lO3N0cm9rZTojRkZGRkZGO3N0cm9rZS13aWR0aDoxLjIyNDk7c3Ryb2tlLWxpbmVjYXA6cm91bmQ7c3Ryb2tlLWxpbmVqb2luOnJvdW5kO3N0cm9rZS1taXRlcmxpbWl0OjM7IiBkPSIgICAgIE0wLDU3LjU5aDUyLjM3Ii8+JiN4YTsJCTwvZz4mI3hhOwkJPGcgaWQ9InNoYXBlMzI3MS0yNiIgdHJhbnNmb3JtPSJ0cmFuc2xhdGUoMTUuNDEzNSwtMjcuNzY4MykiPiYjeGE7CQkJPHRpdGxlIGlkPSJ0aXRsZTM2NTg4Ij5TaGVldC4zMjcxPC90aXRsZT4mI3hhOwkJCSYjeGE7CQkJCTxwYXRoIGlkPSJwYXRoMzY1OTAiIGlua3NjYXBlOmNvbm5lY3Rvci1jdXJ2YXR1cmU9IjAiIHN0eWxlPSJmaWxsOm5vbmU7c3Ryb2tlOiNGRkZGRkY7c3Ryb2tlLXdpZHRoOjEuMjI0OTtzdHJva2UtbGluZWNhcDpyb3VuZDtzdHJva2UtbGluZWpvaW46cm91bmQ7c3Ryb2tlLW1pdGVybGltaXQ6MzsiIGQ9IiAgICAgTTAsNTcuNTloNTIuMzciLz4mI3hhOwkJPC9nPiYjeGE7CQk8ZyBpZD0ic2hhcGUzMjcyLTI5IiB0cmFuc2Zvcm09InRyYW5zbGF0ZSgxNS40MTM1LC0yNS4xOTcyKSI+JiN4YTsJCQk8dGl0bGUgaWQ9InRpdGxlMzY1OTMiPlNoZWV0LjMyNzI8L3RpdGxlPiYjeGE7CQkJJiN4YTsJCQkJPHBhdGggaWQ9InBhdGgzNjU5NSIgaW5rc2NhcGU6Y29ubmVjdG9yLWN1cnZhdHVyZT0iMCIgc3R5bGU9ImZpbGw6bm9uZTtzdHJva2U6I0ZGRkZGRjtzdHJva2Utd2lkdGg6MS4yMjQ5O3N0cm9rZS1saW5lY2FwOnJvdW5kO3N0cm9rZS1saW5lam9pbjpyb3VuZDtzdHJva2UtbWl0ZXJsaW1pdDozOyIgZD0iICAgICBNMCw1Ny41OWg1Mi4zNyIvPiYjeGE7CQk8L2c+JiN4YTsJCTxnIGlkPSJzaGFwZTMyNzMtMzIiIHRyYW5zZm9ybT0idHJhbnNsYXRlKDMzLjU5NjYsLTE4LjUxMjIpIj4mI3hhOwkJCTx0aXRsZSBpZD0idGl0bGUzNjU5OCI+U2hlZXQuMzI3MzwvdGl0bGU+JiN4YTsJCQk8cGF0aCBpZD0icGF0aDM2NjAwIiBpbmtzY2FwZTpjb25uZWN0b3ItY3VydmF0dXJlPSIwIiBzdHlsZT0iZmlsbDojRTVCNUFDOyIgZD0iTTEyLjEzLDU0Ljg5Yy04LjY3LTguODMtOC42Ny04LjgzLTguNjctOC44MyAgICAgYy0wLjgtMC44MS0yLjA2LTAuODEtMi44NiwwYy0wLjgsMC44LTAuOCwxLjkyLDAsMi43M2M4LjcsOC44LDguNyw4LjgsOC43LDguOEwxMi4xMyw1NC44OXoiLz4mI3hhOwkJPC9nPiYjeGE7CQk8ZyBpZD0ic2hhcGUzMjc0LTM0IiB0cmFuc2Zvcm09InRyYW5zbGF0ZSgzMy45MDk3LC0yNi45MTA4KSI+JiN4YTsJCQk8dGl0bGUgaWQ9InRpdGxlMzY2MDMiPlNoZWV0LjMyNzQ8L3RpdGxlPiYjeGE7CQkJPHBhdGggaWQ9InBhdGgzNjYwNSIgaW5rc2NhcGU6Y29ubmVjdG9yLWN1cnZhdHVyZT0iMCIgc3R5bGU9ImZpbGw6I0YyRDNDQzsiIGQ9Ik0xLDU1LjEzYy0wLjQ5LDAuMjktMC44MSwwLjc3LTEsMS4wOSAgICAgYzEsMC45MywxLDAuOTMsMSwwLjkzYzAuNjQsMC42MSwxLjQ3LDAuNjEsMi4xMSwwYzAuNDktMC40OCwwLjQ5LTEuNDEsMC0xLjg2Yy0wLjk2LTEuMTMtMC45Ni0xLjEzLTAuOTYtMS4xMyAgICAgQzEuNjQsNTQuNDksMS4zMiw1NC44MSwxLDU1LjEzeiIvPiYjeGE7CQk8L2c+JiN4YTsJCTxnIGlkPSJzaGFwZTMyNzUtMzYiIHRyYW5zZm9ybT0idHJhbnNsYXRlKDM1LjU2ODEsLTI2LjczOTgpIj4mI3hhOwkJCTx0aXRsZSBpZD0idGl0bGUzNjYwOCI+U2hlZXQuMzI3NTwvdGl0bGU+JiN4YTsJCQk8cGF0aCBpZD0icGF0aDM2NjEwIiBpbmtzY2FwZTpjb25uZWN0b3ItY3VydmF0dXJlPSIwIiBzdHlsZT0iZmlsbDojRTBBM0EwOyIgZD0iTTAuNDYsNTYuMThjLTAuMzgsMC4zOS0wLjU4LDAuOC0wLjM4LDEuNDEgICAgIGMwLjM4LDAsMC45My0wLjE5LDEuMzEtMC42MWMwLjM5LTAuNDEsMC41NS0wLjgsMC4zOS0xLjQ0QzEuMzksNTUuNTQsMC44NSw1NS43NiwwLjQ2LDU2LjE4eiIvPiYjeGE7CQk8L2c+JiN4YTsJCTxnIGlkPSJzaGFwZTMyNzYtMzgiIHRyYW5zZm9ybT0idHJhbnNsYXRlKDM3Ljc2MzEsLTI0Ljk0KSI+JiN4YTsJCQk8dGl0bGUgaWQ9InRpdGxlMzY2MTMiPlNoZWV0LjMyNzY8L3RpdGxlPiYjeGE7CQkJJiN4YTsJCQkJPHBhdGggaWQ9InBhdGgzNjYxNSIgaW5rc2NhcGU6Y29ubmVjdG9yLWN1cnZhdHVyZT0iMCIgc3R5bGU9ImZpbGw6bm9uZTtzdHJva2U6I0NDODY3RjtzdHJva2Utd2lkdGg6MC42MTI0O3N0cm9rZS1saW5lY2FwOnJvdW5kO3N0cm9rZS1saW5lam9pbjpyb3VuZDtzdHJva2UtbWl0ZXJsaW1pdDozOyIgZD0iICAgICBNMS41NCw1Ni4wNWMtMC4yOSwwLTAuNzcsMC4xNi0xLjA2LDAuNDhDMC4xNiw1Ni44MiwwLDU3LjE0LDAsNTcuNTkiLz4mI3hhOwkJPC9nPiYjeGE7CQk8ZyBpZD0ic2hhcGUzMjc3LTQxIiB0cmFuc2Zvcm09InRyYW5zbGF0ZSgzOC4yNzY5LC0yNC40MjU4KSI+JiN4YTsJCQk8dGl0bGUgaWQ9InRpdGxlMzY2MTgiPlNoZWV0LjMyNzc8L3RpdGxlPiYjeGE7CQkJJiN4YTsJCQkJPHBhdGggaWQ9InBhdGgzNjYyMCIgaW5rc2NhcGU6Y29ubmVjdG9yLWN1cnZhdHVyZT0iMCIgc3R5bGU9ImZpbGw6bm9uZTtzdHJva2U6I0NDODY3RjtzdHJva2Utd2lkdGg6MC42MTI0O3N0cm9rZS1saW5lY2FwOnJvdW5kO3N0cm9rZS1saW5lam9pbjpyb3VuZDtzdHJva2UtbWl0ZXJsaW1pdDozOyIgZD0iICAgICBNMCw1Ny41OWMwLjQ4LDAsMC43Ny0wLjEzLDEuMDktMC40NXMwLjQ1LTAuNzcsMC40NS0xLjA5Ii8+JiN4YTsJCTwvZz4mI3hhOwkJPGcgaWQ9InNoYXBlMzI3OC00NCIgdHJhbnNmb3JtPSJ0cmFuc2xhdGUoMzguMjc2OSwtMjUuNDU0MykiPiYjeGE7CQkJPHRpdGxlIGlkPSJ0aXRsZTM2NjIzIj5TaGVldC4zMjc4PC90aXRsZT4mI3hhOwkJCSYjeGE7CQkJCTxwYXRoIGlkPSJwYXRoMzY2MjUiIGlua3NjYXBlOmNvbm5lY3Rvci1jdXJ2YXR1cmU9IjAiIHN0eWxlPSJmaWxsOm5vbmU7c3Ryb2tlOiNDQzg2N0Y7c3Ryb2tlLXdpZHRoOjAuNjEyNDtzdHJva2UtbGluZWNhcDpyb3VuZDtzdHJva2UtbGluZWpvaW46cm91bmQ7c3Ryb2tlLW1pdGVybGltaXQ6MzsiIGQ9IiAgICAgTTAuNTEsNTcuMDhjLTAuMTksMC0wLjI5LDAuMTMtMC4zOCwwLjIyQzAsNTcuNCwwLDU3LjUsMCw1Ny41OSIvPiYjeGE7CQk8L2c+JiN4YTsJCTxnIGlkPSJzaGFwZTMyNzktNDciIHRyYW5zZm9ybT0idHJhbnNsYXRlKDM4LjI3NjksLTI0Ljk0KSI+JiN4YTsJCQk8dGl0bGUgaWQ9InRpdGxlMzY2MjgiPlNoZWV0LjMyNzk8L3RpdGxlPiYjeGE7CQkJJiN4YTsJCQkJPHBhdGggaWQ9InBhdGgzNjYzMCIgaW5rc2NhcGU6Y29ubmVjdG9yLWN1cnZhdHVyZT0iMCIgc3R5bGU9ImZpbGw6bm9uZTtzdHJva2U6I0NDODY3RjtzdHJva2Utd2lkdGg6MC42MTI0O3N0cm9rZS1saW5lY2FwOnJvdW5kO3N0cm9rZS1saW5lam9pbjpyb3VuZDtzdHJva2UtbWl0ZXJsaW1pdDozOyIgZD0iICAgICBNMCw1Ny41OWMwLjIyLTAuMTYsMC40Mi0wLjE2LDAuNjQtMC4zMmMwLjE5LTAuMTksMC4zOS0wLjM1LDAuMzktMC43Ii8+JiN4YTsJCTwvZz4mI3hhOwkJPGcgaWQ9InNoYXBlMzI4MC01MCIgdHJhbnNmb3JtPSJ0cmFuc2xhdGUoNDEuMzU5NiwtMjEuODU0NykiPiYjeGE7CQkJPHRpdGxlIGlkPSJ0aXRsZTM2NjMzIj5TaGVldC4zMjgwPC90aXRsZT4mI3hhOwkJCSYjeGE7CQkJCTxwYXRoIGlkPSJwYXRoMzY2MzUiIGlua3NjYXBlOmNvbm5lY3Rvci1jdXJ2YXR1cmU9IjAiIHN0eWxlPSJmaWxsOm5vbmU7c3Ryb2tlOiNDQzg2N0Y7c3Ryb2tlLXdpZHRoOjAuNjEyNDtzdHJva2UtbGluZWNhcDpyb3VuZDtzdHJva2UtbGluZWpvaW46cm91bmQ7c3Ryb2tlLW1pdGVybGltaXQ6MzsiIGQ9IiAgICAgTTEuNTQsNTYuMDVjLTAuNDUsMC4xNi0wLjc3LDAuMzItMS4wNiwwLjY0QzAuMTYsNTYuOTgsMCw1Ny4zLDAsNTcuNTkiLz4mI3hhOwkJPC9nPiYjeGE7CQk8ZyBpZD0ic2hhcGUzMjgxLTUzIiB0cmFuc2Zvcm09InRyYW5zbGF0ZSg0MS44NzMzLC0yMC44MjYyKSI+JiN4YTsJCQk8dGl0bGUgaWQ9InRpdGxlMzY2MzgiPlNoZWV0LjMyODE8L3RpdGxlPiYjeGE7CQkJJiN4YTsJCQkJPHBhdGggaWQ9InBhdGgzNjY0MCIgaW5rc2NhcGU6Y29ubmVjdG9yLWN1cnZhdHVyZT0iMCIgc3R5bGU9ImZpbGw6bm9uZTtzdHJva2U6I0NDODY3RjtzdHJva2Utd2lkdGg6MC42MTI0O3N0cm9rZS1saW5lY2FwOnJvdW5kO3N0cm9rZS1saW5lam9pbjpyb3VuZDtzdHJva2UtbWl0ZXJsaW1pdDozOyIgZD0iICAgICBNMCw1Ny41OWMwLjQ4LDAsMC43Ny0wLjEzLDEuMDktMC40NXMwLjQ1LTAuNzcsMC40NS0xLjA5Ii8+JiN4YTsJCTwvZz4mI3hhOwkJPGcgaWQ9InNoYXBlMzI4Mi01NiIgdHJhbnNmb3JtPSJ0cmFuc2xhdGUoNDEuMzU5NiwtMjEuODU0NykiPiYjeGE7CQkJPHRpdGxlIGlkPSJ0aXRsZTM2NjQzIj5TaGVldC4zMjgyPC90aXRsZT4mI3hhOwkJCSYjeGE7CQkJCTxwYXRoIGlkPSJwYXRoMzY2NDUiIGlua3NjYXBlOmNvbm5lY3Rvci1jdXJ2YXR1cmU9IjAiIHN0eWxlPSJmaWxsOm5vbmU7c3Ryb2tlOiNDQzg2N0Y7c3Ryb2tlLXdpZHRoOjAuNjEyNDtzdHJva2UtbGluZWNhcDpyb3VuZDtzdHJva2UtbGluZWpvaW46cm91bmQ7c3Ryb2tlLW1pdGVybGltaXQ6MzsiIGQ9IiAgICAgTTEuMDMsNTcuMDhjLTAuMzIsMC0wLjUyLDAuMTMtMC42OCwwLjIyQzAuMTksNTcuNCwwLjE5LDU3LjUsMCw1Ny41OSIvPiYjeGE7CQk8L2c+JiN4YTsJCTxnIGlkPSJzaGFwZTMyODMtNTkiIHRyYW5zZm9ybT0idHJhbnNsYXRlKDQxLjg3MzMsLTIxLjM0MDUpIj4mI3hhOwkJCTx0aXRsZSBpZD0idGl0bGUzNjY0OCI+U2hlZXQuMzI4MzwvdGl0bGU+JiN4YTsJCQkmI3hhOwkJCQk8cGF0aCBpZD0icGF0aDM2NjUwIiBpbmtzY2FwZTpjb25uZWN0b3ItY3VydmF0dXJlPSIwIiBzdHlsZT0iZmlsbDpub25lO3N0cm9rZTojQ0M4NjdGO3N0cm9rZS13aWR0aDowLjYxMjQ7c3Ryb2tlLWxpbmVjYXA6cm91bmQ7c3Ryb2tlLWxpbmVqb2luOnJvdW5kO3N0cm9rZS1taXRlcmxpbWl0OjM7IiBkPSIgICAgIE0wLDU3LjU5YzAuMjIsMCwwLjQyLDAsMC42NC0wLjE5YzAuMTktMC4xOSwwLjM5LTAuNDIsMC4zOS0wLjgzIi8+JiN4YTsJCTwvZz4mI3hhOwkJPGcgaWQ9InNoYXBlMzI4NC02MiIgdHJhbnNmb3JtPSJ0cmFuc2xhdGUoNDQuMzg2MSwtMjEuMDgzMykiPiYjeGE7CQkJPHRpdGxlIGlkPSJ0aXRsZTM2NjUzIj5TaGVldC4zMjg0PC90aXRsZT4mI3hhOwkJCTxwYXRoIGlkPSJwYXRoMzY2NTUiIGlua3NjYXBlOmNvbm5lY3Rvci1jdXJ2YXR1cmU9IjAiIHN0eWxlPSJmaWxsOiNDQzg2N0Y7IiBkPSJNMTIuMTMsNTAuODhjLTEuMDktMS4xNi0xLjA5LTEuMTYtMS4wOS0xLjE2ICAgICBjLTAuOC0wLjg3LTIuMDktMC44Ny0yLjczLDBjLTEuNDUsMS41MS0xLjQ1LDEuNTEtMS40NSwxLjUxYy0wLjgtMC42Ny0xLjkyLTAuNjctMi43MywwLjE2Yy0xLjQ0LDEuNjctMS40NCwxLjY3LTEuNDQsMS42NyAgICAgYy0wLjgtMC4zMi0xLjYxLTAuMTYtMi4wOSwwLjUyYy0wLjgsMC42Ny0wLjgsMi4wMiwwLDIuODZjMS4xMywxLjE1LDEuMTMsMS4xNSwxLjEzLDEuMTVjMi4yNC0yLjM0LDIuMjQtMi4zNCwyLjI0LTIuMzQgICAgIGMwLjE2LDAuMTYsMC4xNiwwLjE2LDAuMTYsMC4xNmMwLjY1LTAuNDgsMC42NS0wLjQ4LDAuNjUtMC40OGMwLjQ4LDAuNDgsMC40OCwwLjQ4LDAuNDgsMC40OGMyLjI1LTIuMzUsMi4yNS0yLjM1LDIuMjUtMi4zNSAgICAgYzEuNiwxLjcxLDEuNiwxLjcxLDEuNiwxLjcxYzEuOTMtMi4xOSwxLjkzLTIuMTksMS45My0yLjE5Yy0wLjMyLTAuMTktMC4zMi0wLjE5LTAuMzItMC4xOUwxMi4xMyw1MC44OHoiLz4mI3hhOwkJPC9nPiYjeGE7CQk8ZyBpZD0ic2hhcGUzMjg1LTY0IiB0cmFuc2Zvcm09InRyYW5zbGF0ZSg0Mi42NDQsLTYuMTcwNzMpIj4mI3hhOwkJCTx0aXRsZSBpZD0idGl0bGUzNjY1OCI+U2hlZXQuMzI4NTwvdGl0bGU+JiN4YTsJCQk8cGF0aCBpZD0icGF0aDM2NjYwIiBpbmtzY2FwZTpjb25uZWN0b3ItY3VydmF0dXJlPSIwIiBzdHlsZT0iZmlsbDojRTVCNUFDOyIgZD0iTTEyLjY1LDU3LjU5bDguOTMtNS44OEwxMy43NCwzNmwtMy4wMSwyLjU3ICAgICBMNyw0MC41M2wtMy45NSwxLjY0TDAsNDQuNzFMMTIuNjUsNTcuNTl6Ii8+JiN4YTsJCTwvZz4mI3hhOwkJPGcgaWQ9InNoYXBlMzI4Ni02NiIgdHJhbnNmb3JtPSJ0cmFuc2xhdGUoNDUuNDEzNiwtMjAuMDU0OSkiPiYjeGE7CQkJPHRpdGxlIGlkPSJ0aXRsZTM2NjYzIj5TaGVldC4zMjg2PC90aXRsZT4mI3hhOwkJCTxwYXRoIGlkPSJwYXRoMzY2NjUiIGlua3NjYXBlOmNvbm5lY3Rvci1jdXJ2YXR1cmU9IjAiIHN0eWxlPSJmaWxsOiNFNUI1QUM7IiBkPSJNNC40Miw1NC42Yy0xLjA5LTEuMjUtMS4wOS0xLjI1LTEuMDktMS4yNSAgICAgYy0wLjgtMC45LTIuMDktMC45LTIuNzMsMGMtMC44LDAuOS0wLjgsMi4zMiwwLDMuMThjMC45NywxLjA2LDAuOTcsMS4wNiwwLjk3LDEuMDZMNC40Miw1NC42eiIvPiYjeGE7CQk8L2c+JiN4YTsJCTxnIGlkPSJzaGFwZTMyODctNjgiIHRyYW5zZm9ybT0idHJhbnNsYXRlKDQ5LjAxMDEsLTIyLjExMTgpIj4mI3hhOwkJCTx0aXRsZSBpZD0idGl0bGUzNjY2OCI+U2hlZXQuMzI4NzwvdGl0bGU+JiN4YTsJCQk8cGF0aCBpZD0icGF0aDM2NjcwIiBpbmtzY2FwZTpjb25uZWN0b3ItY3VydmF0dXJlPSIwIiBzdHlsZT0iZmlsbDojRTVCNUFDOyIgZD0iTTQuNDIsNTQuNzNjLTEuMDktMS4xMi0xLjA5LTEuMTItMS4wOS0xLjEyICAgICBjLTAuNjQtMC42NC0xLjkzLTAuNjQtMi43MywwYy0wLjgsMC44LTAuOCwyLjA5LDAsMi44OWMxLjEzLDEuMDksMS4xMywxLjA5LDEuMTMsMS4wOUw0LjQyLDU0LjczeiIvPiYjeGE7CQk8L2c+JiN4YTsJCTxnIGlkPSJzaGFwZTMyODgtNzAiIHRyYW5zZm9ybT0idHJhbnNsYXRlKDQ0Ljk5ODEsLTcuMTk5MTkpIj4mI3hhOwkJCTx0aXRsZSBpZD0idGl0bGUzNjY3MyI+U2hlZXQuMzI4ODwvdGl0bGU+JiN4YTsJCQk8cGF0aCBpZD0icGF0aDM2Njc1IiBpbmtzY2FwZTpjb25uZWN0b3ItY3VydmF0dXJlPSIwIiBzdHlsZT0iZmlsbDojRTVCNUFDOyIgZD0iTTEyLjAzLDU3LjU5YzAsMC03LjUxLTAuNDgtMTAuNTktMy43MiAgICAgYy0zLjc5LTQuMDksMS4xMi02LjU2LDEuMTItNi41NkwxMi4wMyw1Ny41OXoiLz4mI3hhOwkJPC9nPiYjeGE7CQk8ZyBpZD0ic2hhcGUzMjg5LTcyIiB0cmFuc2Zvcm09InRyYW5zbGF0ZSg0MS44NzEyLC0xMC41MjExKSI+JiN4YTsJCQk8dGl0bGUgaWQ9InRpdGxlMzY2NzgiPlNoZWV0LjMyODk8L3RpdGxlPiYjeGE7CQkJPHBhdGggaWQ9InBhdGgzNjY4MCIgaW5rc2NhcGU6Y29ubmVjdG9yLWN1cnZhdHVyZT0iMCIgc3R5bGU9ImZpbGw6I0U1QjVBQzsiIGQ9Ik03LjMyLDU0Ljc4YzAuNjUsMC42NCwwLjY1LDEuNzYtMC4xOSwyLjQxbDAsMCAgICAgYy0wLjY3LDAuNjQtMS44MywwLjQ4LTIuNS0wLjE2Yy00LjIxLTQuMzQtNC4yMS00LjM0LTQuMjEtNC4zNGMtMC42Ny0wLjY1LTAuNDgtMS43NywwLjE5LTIuNDFsMCwwICAgICBjMC42NC0wLjY4LDEuODMtMC41MiwyLjUxLDAuMTZMNy4zMiw1NC43OHoiLz4mI3hhOwkJPC9nPiYjeGE7CQk8ZyBpZD0ic2hhcGUzMjkwLTc0IiB0cmFuc2Zvcm09InRyYW5zbGF0ZSg0My44NTA1LC0xMy44ODQxKSI+JiN4YTsJCQk8dGl0bGUgaWQ9InRpdGxlMzY2ODMiPlNoZWV0LjMyOTA8L3RpdGxlPiYjeGE7CQkJPHBhdGggaWQ9InBhdGgzNjY4NSIgaW5rc2NhcGU6Y29ubmVjdG9yLWN1cnZhdHVyZT0iMCIgc3R5bGU9ImZpbGw6I0U1QjVBQzsiIGQ9Ik0wLjQ2LDU2Ljc5YzAsMCwxLjMyLTEuNDUtMC4xNi0yLjg5ICAgICBjLTEuNTEtMS40NSwzLjEyLDEuNDQsMy4xMiwxLjQ0Yy0xLjE2LDIuMjUtMS4xNiwyLjI1LTEuMTYsMi4yNUwwLjQ2LDU2Ljc5eiIvPiYjeGE7CQk8L2c+JiN4YTsJCTxnIGlkPSJzaGFwZTMyOTEtNzYiIHRyYW5zZm9ybT0idHJhbnNsYXRlKDM3LjUwNjIsLTE0LjYwMzMpIj4mI3hhOwkJCTx0aXRsZSBpZD0idGl0bGUzNjY4OCI+U2hlZXQuMzI5MTwvdGl0bGU+JiN4YTsJCQk8cGF0aCBpZD0icGF0aDM2NjkwIiBpbmtzY2FwZTpjb25uZWN0b3ItY3VydmF0dXJlPSIwIiBzdHlsZT0iZmlsbDojRTVCNUFDOyIgZD0iTTAuOCw1Mi44NUMwLDU0LjM5LDAsNTQuMzksMCw1NC4zOSAgICAgYzEuNDUsMC44NCwxLjQ1LDAuODQsMS40NSwwLjg0YzQuMjcsMi4yNSw0LjI3LDIuMjUsNC4yNywyLjI1YzAuNzcsMC4zMiwxLjczLDAsMi4yMS0wLjg3YzAuMjktMC42OCwwLTEuNy0wLjgtMi4yMiAgICAgYy00LjI3LTIuMjUtNC4yNy0yLjI1LTQuMjctMi4yNUMyLjA2LDUxLjYzLDEuMTIsNTEuOTgsMC44LDUyLjg1eiIvPiYjeGE7CQk8L2c+JiN4YTsJCTxnIGlkPSJzaGFwZTMyOTItNzgiIHRyYW5zZm9ybT0idHJhbnNsYXRlKDM3LjUwNjIsLTE2LjQ1NTMpIj4mI3hhOwkJCTx0aXRsZSBpZD0idGl0bGUzNjY5MyI+U2hlZXQuMzI5MjwvdGl0bGU+JiN4YTsJCQk8cGF0aCBpZD0icGF0aDM2Njk1IiBpbmtzY2FwZTpjb25uZWN0b3ItY3VydmF0dXJlPSIwIiBzdHlsZT0iZmlsbDojRjJEM0NDOyIgZD0iTTEuOTYsNTYuMjhjLTEuNDUtMC43NC0xLjQ1LTAuNzQtMS40NS0wLjc0ICAgICBDMCw1Ni4yOCwwLDU2LjI4LDAsNTYuMjhjMS40OCwwLjczLDEuNDgsMC43MywxLjQ4LDAuNzNjMS42LDAuNTgsMS42LDAuNTgsMS42LDAuNThDMi45Miw1Ny4wMSwyLjYsNTYuNTcsMS45Niw1Ni4yOHoiLz4mI3hhOwkJPC9nPiYjeGE7CQk8ZyBpZD0ic2hhcGUzMjkzLTgwIiB0cmFuc2Zvcm09InRyYW5zbGF0ZSg0MC41ODg5LC0xNi40NTUzKSI+JiN4YTsJCQk8dGl0bGUgaWQ9InRpdGxlMzY2OTgiPlNoZWV0LjMyOTM8L3RpdGxlPiYjeGE7CQkJPHBhdGggaWQ9InBhdGgzNjcwMCIgaW5rc2NhcGU6Y29ubmVjdG9yLWN1cnZhdHVyZT0iMCIgc3R5bGU9ImZpbGw6I0NDODY3RjsiIGQ9Ik0xLjkzLDU0Ljk5YzIuMTgsMi42LDIuMTgsMi42LDIuMTgsMi42ICAgICBzLTMuNjYsMC00LjExLTMuNkMxLjE5LDU0LjY3LDEuOTMsNTQuOTksMS45Myw1NC45OXoiLz4mI3hhOwkJPC9nPiYjeGE7CQk8ZyBpZD0ic2hhcGUzMjk0LTgyIiB0cmFuc2Zvcm09InRyYW5zbGF0ZSg1Mi40MDU5KSI+JiN4YTsJCQk8dGl0bGUgaWQ9InRpdGxlMzY3MDMiPlNoZWV0LjMyOTQ8L3RpdGxlPiYjeGE7CQkJPHBhdGggaWQ9InBhdGgzNjcwNSIgaW5rc2NhcGU6Y29ubmVjdG9yLWN1cnZhdHVyZT0iMCIgc3R5bGU9ImZpbGw6I0U1QjVBQzsiIGQ9Ik05LjM4LDQxLjE0bDE1LjI4LDExLjkyTDguMTksNTcuNTlMMCw0OC43OSAgICAgTDkuMzgsNDEuMTR6Ii8+JiN4YTsJCTwvZz4mI3hhOwk8L2c+JiN4YTs8L2c+JiN4YTs8L3N2Zz4=;" vertex="1" parent="1">
          <mxGeometry x="1060" y="162" width="77" height="58" as="geometry" />
        </mxCell>
        <mxCell id="IiSIE2QJ0df0l0FEDecD-21" value="Developer" style="shape=image;verticalLabelPosition=bottom;labelBackgroundColor=#ffffff;verticalAlign=top;aspect=fixed;imageAspect=0;image=data:image/svg+xml,PHN2ZyB4bWxuczpjYz0iaHR0cDovL2NyZWF0aXZlY29tbW9ucy5vcmcvbnMjIiB4bWxuczpkYz0iaHR0cDovL3B1cmwub3JnL2RjL2VsZW1lbnRzLzEuMS8iIHhtbG5zOmlua3NjYXBlPSJodHRwOi8vd3d3Lmlua3NjYXBlLm9yZy9uYW1lc3BhY2VzL2lua3NjYXBlIiB4bWxuczpyZGY9Imh0dHA6Ly93d3cudzMub3JnLzE5OTkvMDIvMjItcmRmLXN5bnRheC1ucyMiIHhtbG5zOnNvZGlwb2RpPSJodHRwOi8vc29kaXBvZGkuc291cmNlZm9yZ2UubmV0L0RURC9zb2RpcG9kaS0wLmR0ZCIgeG1sbnM6c3ZnPSJodHRwOi8vd3d3LnczLm9yZy8yMDAwL3N2ZyIgeG1sbnM9Imh0dHA6Ly93d3cudzMub3JnLzIwMDAvc3ZnIiB4bWxuczp4bGluaz0iaHR0cDovL3d3dy53My5vcmcvMTk5OS94bGluayIgdmVyc2lvbj0iMS4xIiBpZD0ic3ZnMTUwMTk3IiBpbmtzY2FwZTp2ZXJzaW9uPSIwLjkyLjMgKDI0MDU1NDYsIDIwMTgtMDMtMTEpIiBzb2RpcG9kaTpkb2NuYW1lPSJkZXZlbG9wZXJfMS5zdmciIHg9IjBweCIgeT0iMHB4IiB2aWV3Qm94PSIwIDAgMTM0LjQgODkuNzkiIHN0eWxlPSJlbmFibGUtYmFja2dyb3VuZDpuZXcgMCAwIDEzNC40IDg5Ljc5OyIgeG1sOnNwYWNlPSJwcmVzZXJ2ZSI+JiN4YTs8c29kaXBvZGk6bmFtZWR2aWV3IGJvcmRlcmNvbG9yPSIjNjY2NjY2IiBib3JkZXJvcGFjaXR5PSIxIiBmaXQtbWFyZ2luLWJvdHRvbT0iMCIgZml0LW1hcmdpbi1sZWZ0PSIwIiBmaXQtbWFyZ2luLXJpZ2h0PSIwIiBmaXQtbWFyZ2luLXRvcD0iMCIgZ3JpZHRvbGVyYW5jZT0iMTAiIGd1aWRldG9sZXJhbmNlPSIxMCIgaWQ9Im5hbWVkdmlldzE1MDE5OSIgaW5rc2NhcGU6Y3VycmVudC1sYXllcj0ic3ZnMTUwMTk3IiBpbmtzY2FwZTpjeD0iODkuNTk4MzE2IiBpbmtzY2FwZTpjeT0iNTkuMzI5NTMzIiBpbmtzY2FwZTpwYWdlb3BhY2l0eT0iMCIgaW5rc2NhcGU6cGFnZXNoYWRvdz0iMiIgaW5rc2NhcGU6d2luZG93LWhlaWdodD0iMTAxNyIgaW5rc2NhcGU6d2luZG93LW1heGltaXplZD0iMSIgaW5rc2NhcGU6d2luZG93LXdpZHRoPSIxOTIwIiBpbmtzY2FwZTp3aW5kb3cteD0iLTgiIGlua3NjYXBlOndpbmRvdy15PSItOCIgaW5rc2NhcGU6em9vbT0iNy4wODk5NTA1IiBvYmplY3R0b2xlcmFuY2U9IjEwIiBwYWdlY29sb3I9IiNmZmZmZmYiIHNob3dncmlkPSJmYWxzZSI+JiN4YTsJPC9zb2RpcG9kaTpuYW1lZHZpZXc+JiN4YTs8ZyBpZD0iZzE1MDE5NSIgdHJhbnNmb3JtPSJ0cmFuc2xhdGUoLTEuMzYxNDY5MiwtMC41NjgzKSI+JiN4YTsJPHRpdGxlIGlkPSJ0aXRsZTE1MDAyMCI+UGFnZS0xPC90aXRsZT4mI3hhOwk8ZyBpZD0iZ3JvdXAzODctMSIgdHJhbnNmb3JtPSJ0cmFuc2xhdGUoMS4yNTg1NiwtMS4zNikiPiYjeGE7CQk8dGl0bGUgaWQ9InRpdGxlMTUwMDIyIj5EZXZlbG9wZXIgIzE8L3RpdGxlPiYjeGE7CQk8ZyBpZD0ic2hhcGUzODgtMiIgdHJhbnNmb3JtPSJtYXRyaXgoMSwwLDAsLTEsNjEuOTc3NywxMzEuNjkyKSI+JiN4YTsJCQk8dGl0bGUgaWQ9InRpdGxlMTUwMDI0Ij5wYXRoMjA2LTA8L3RpdGxlPiYjeGE7CQkJPHBhdGggaWQ9InBhdGgxNTAwMjYiIGlua3NjYXBlOmNvbm5lY3Rvci1jdXJ2YXR1cmU9IjAiIHN0eWxlPSJmaWxsOiMwMDcxQkM7IiBkPSJNNTIuMiw1MS4zOWMwLTIuNi0zLjIyLTQuNy03LjE5LTQuN0g3LjE5ICAgICBjLTMuOTcsMC03LjE5LDIuMS03LjE5LDQuN3YzNS42MmMwLDIuNiwzLjIyLDQuNyw3LjE5LDQuN2gzNy44MmMzLjk3LDAsNy4xOS0yLjEsNy4xOS00LjdMNTIuMiw1MS4zOXoiLz4mI3hhOwkJPC9nPiYjeGE7CQk8ZyBpZD0ic2hhcGUzODktNCIgdHJhbnNmb3JtPSJ0cmFuc2xhdGUoODMuMjY2MywtMzguMTQxMykiPiYjeGE7CQkJPHRpdGxlIGlkPSJ0aXRsZTE1MDAyOSI+cGF0aDIxMC00PC90aXRsZT4mI3hhOwkJCTxwYXRoIGlkPSJwYXRoMTUwMDMxIiBpbmtzY2FwZTpjb25uZWN0b3ItY3VydmF0dXJlPSIwIiBzdHlsZT0iZmlsbDojRTVFNUU1OyIgZD0iTTkuNjIsOTEuNzFIMHYtNS45Nmg5LjYyVjkxLjcxeiIvPiYjeGE7CQk8L2c+JiN4YTsJCTxnIGlkPSJzaGFwZTM5MC02IiB0cmFuc2Zvcm09Im1hdHJpeCgxLDAsMCwtMSw4Ny44Njg0LDE0MS42KSI+JiN4YTsJCQk8dGl0bGUgaWQ9InRpdGxlMTUwMDM0Ij5wYXRoMjE0LTk8L3RpdGxlPiYjeGE7CQkJPHBhdGggaWQ9InBhdGgxNTAwMzYiIGlua3NjYXBlOmNvbm5lY3Rvci1jdXJ2YXR1cmU9IjAiIHN0eWxlPSJmaWxsOm5vbmU7IiBkPSJNMCw5MS43MXYtMi42OFY5MS43MXoiLz4mI3hhOwkJCSYjeGE7CQkJCTxwYXRoIGlkPSJwYXRoMTUwMDM4IiBpbmtzY2FwZTpjb25uZWN0b3ItY3VydmF0dXJlPSIwIiBzdHlsZT0iZmlsbDpub25lO3N0cm9rZTojQjJCMkIyO3N0cm9rZS13aWR0aDoyLjA2MDY7c3Ryb2tlLW1pdGVybGltaXQ6MzsiIGQ9IiAgICAgTTAsOTEuNzF2LTIuNjgiLz4mI3hhOwkJPC9nPiYjeGE7CQk8ZyBpZD0ic2hhcGUzOTEtOSIgdHJhbnNmb3JtPSJtYXRyaXgoMSwwLDAsLTEsNDkuMTA0NywxMzcuMzIxKSI+JiN4YTsJCQk8dGl0bGUgaWQ9InRpdGxlMTUwMDQxIj5wYXRoMjE4LTI8L3RpdGxlPiYjeGE7CQkJPHBhdGggaWQ9InBhdGgxNTAwNDMiIGlua3NjYXBlOmNvbm5lY3Rvci1jdXJ2YXR1cmU9IjAiIHN0eWxlPSJmaWxsOiMzOUI1NEE7IiBkPSJNNzMuNCw2MS4wNGMtNC4xMiw4LjI1LTEyLjksMjYuNDgtMTQuNTcsMjcuODggICAgIGMtMS42NiwxLjQtMTAuNDQsMi43OS0xNS40NiwyLjc5YzAsMCwwLjk0LTYuMTgtNC42MS02LjE4Yy01LjU0LDAtNC42LDYuMTgtNC42LDYuMThjLTUuMDIsMC0xMy44LTEuMzktMTUuNDYtMi43OSAgICAgYy0xLjY3LTEuNC0xMC40NS0xOS42My0xNC41OC0yNy44OEMwLDUyLjc5LDUuMjYsNTIuMTksNS4yNiw1Mi4xOWgxNC40M3Y2LjkyYy0yLjEzLDAuNzMtNi43MiwxLjYtNi43MiwxLjYgICAgIGMxLjQsMy4zOSw5LjUyLDE4Ljg5LDkuNTIsMTguODlsMC44Ni0yNi42OGgxNS40MWgxNS40MWwwLjg3LDI2LjY4YzAsMCw4LjEyLTE1LjUsOS41MS0xOC44OWMwLDAtNC41OS0wLjg3LTYuNzItMS42di02LjkyICAgICBoMTQuNDRDNzIuMjcsNTIuMTksNzcuNTMsNTIuNzksNzMuNCw2MS4wNHoiLz4mI3hhOwkJPC9nPiYjeGE7CQk8ZyBpZD0ic2hhcGUzOTItMTEiIHRyYW5zZm9ybT0ibWF0cml4KDEsMCwwLC0xLDgzLjI2NjMsMTI4LjA5MykiPiYjeGE7CQkJPHRpdGxlIGlkPSJ0aXRsZTE1MDA0NiI+cGF0aDIyMi03PC90aXRsZT4mI3hhOwkJCTxwYXRoIGlkPSJwYXRoMTUwMDQ4IiBpbmtzY2FwZTpjb25uZWN0b3ItY3VydmF0dXJlPSIwIiBzdHlsZT0iZmlsbDojRkZEQUEyOyIgZD0iTTkuMiw4MC41NmMwLDAtMC42NS0yLjM1LTQuNi0yLjM1ICAgICBTMCw4MC41NiwwLDgwLjU2djExLjE1aDkuMlY4MC41NnoiLz4mI3hhOwkJPC9nPiYjeGE7CQk8ZyBpZD0ic2hhcGUzOTMtMTMiIHRyYW5zZm9ybT0ibWF0cml4KDEsMCwwLC0xLDc1LjExOTgsMTA1LjIwOCkiPiYjeGE7CQkJPHRpdGxlIGlkPSJ0aXRsZTE1MDA1MSI+cGF0aDIyNi05PC90aXRsZT4mI3hhOwkJCTxwYXRoIGlkPSJwYXRoMTUwMDUzIiBpbmtzY2FwZTpjb25uZWN0b3ItY3VydmF0dXJlPSIwIiBzdHlsZT0iZmlsbDojRkZEQUEyOyIgZD0iTTEyLjc1LDg4LjI4Yy04LjgxLDMuNDMtMTIuNzUsMC0xMi43NSwwICAgICBzMC42OC0xMi4xMSwxLTE0LjU2YzAuNzUtNS44Miw4LjMxLTkuNjksMTEuNzUtOS42OXMxMSwzLjg3LDExLjc1LDkuNjljMC4zMSwyLjQ1LDEsMTQuNTYsMSwxNC41NlMyMS41Niw5MS43MSwxMi43NSw4OC4yOHoiLz4mI3hhOwkJPC9nPiYjeGE7CQk8ZyBpZD0ic2hhcGUzOTQtMTUiIHRyYW5zZm9ybT0ibWF0cml4KDEsMCwwLC0xLDcwLjc0NTEsMTEzLjE5MSkiPiYjeGE7CQkJPHRpdGxlIGlkPSJ0aXRsZTE1MDA1NiI+cGF0aDIzMC01PC90aXRsZT4mI3hhOwkJCTxwYXRoIGlkPSJwYXRoMTUwMDU4IiBpbmtzY2FwZTpjb25uZWN0b3ItY3VydmF0dXJlPSIwIiBzdHlsZT0iZmlsbDojRjdEMTk3OyIgZD0iTTQuNzgsODkuNWMwLDAtMi4yNCwyLjIxLTMuMDMsMC44OSAgICAgQzAsODcuNDUsMy4wNiw4Ni4zNSwzLjI3LDgzLjU3YzAuMTQtMS45OCwxLjQ4LTEuOTcsMi4wMS0wLjk4QzUuODEsODMuNTcsNS41OSw4OC44Myw0Ljc4LDg5LjV6Ii8+JiN4YTsJCTwvZz4mI3hhOwkJPGcgaWQ9InNoYXBlMzk1LTE3IiB0cmFuc2Zvcm09Im1hdHJpeCgxLDAsMCwtMSw5OS4xNzk1LDExMy4xOTEpIj4mI3hhOwkJCTx0aXRsZSBpZD0idGl0bGUxNTAwNjEiPnBhdGgyMzQtMDwvdGl0bGU+JiN4YTsJCQk8cGF0aCBpZD0icGF0aDE1MDA2MyIgaW5rc2NhcGU6Y29ubmVjdG9yLWN1cnZhdHVyZT0iMCIgc3R5bGU9ImZpbGw6I0Y3RDE5NzsiIGQ9Ik0xLjAzLDg5LjVjMCwwLDIuMjQsMi4yMSwzLjAzLDAuODkgICAgIGMxLjc1LTIuOTQtMS4zMS00LjA0LTEuNTEtNi44MmMtMC4xNS0xLjk4LTEuNDktMS45Ny0yLjAyLTAuOThDMCw4My41NywwLjIyLDg4LjgzLDEuMDMsODkuNXoiLz4mI3hhOwkJPC9nPiYjeGE7CQk8ZyBpZD0ic2hhcGUzOTYtMTkiIHRyYW5zZm9ybT0ibWF0cml4KDEsMCwwLC0xLDc0Ljg3NzcsMTE5LjE4OCkiPiYjeGE7CQkJPHRpdGxlIGlkPSJ0aXRsZTE1MDA2NiI+cGF0aDIzOC04PC90aXRsZT4mI3hhOwkJCTxwYXRoIGlkPSJwYXRoMTUwMDY4IiBpbmtzY2FwZTpjb25uZWN0b3ItY3VydmF0dXJlPSIwIiBkPSJNMTIuOTksODIuMzhjLTIuNjQsMC00LDAuNzQtNCwxLjg0czEuNjEsMC40NSw0LDAuNDVzNCwwLjY1LDQtMC40NSAgICAgUzE1LjYzLDgyLjM4LDEyLjk5LDgyLjM4eiBNMjUuMjcsOTEuNzFoLTAuNDljMCwwLDAuNjMtNS4xNC0xMS43OS01LjE0UzEuMjEsOTEuNzEsMS4yMSw5MS43MWgtMC41YzAsMC0wLjcxLTUuODEsMS42NC05LjEzICAgICBjMy4yNS00LjU3LDEwLjY0LTQuNTcsMTAuNjQtNC41N3M3LjM5LDAsMTAuNjQsNC41N0MyNS45OCw4NS45LDI1LjI3LDkxLjcxLDI1LjI3LDkxLjcxeiIvPiYjeGE7CQk8L2c+JiN4YTsJCTxnIGlkPSJzaGFwZTM5Ny0yMSIgdHJhbnNmb3JtPSJtYXRyaXgoMSwwLDAsLTEsNjcuMzUxMSw5My42MzgzKSI+JiN4YTsJCQk8dGl0bGUgaWQ9InRpdGxlMTUwMDcxIj5wYXRoMjQyLTE8L3RpdGxlPiYjeGE7CQkJPHBhdGggaWQ9InBhdGgxNTAwNzMiIGlua3NjYXBlOmNvbm5lY3Rvci1jdXJ2YXR1cmU9IjAiIGQ9Ik0zMi44LDY2LjE3YzAsMC0wLjUyLDMuNjcsMS4yNSw0LjdjMCwwLDMuMTMsMTAuNDIsMC40MywxMy4xNiAgICAgYy0yLjY5LDIuNzQtNi41NCw0LjQ5LTkuNzgsNC44NHMtNi44NCwxLTguNTMsMi44NGMwLDAsMC44NS0yLjM0LDEuOTktMi40OWMwLDAtNy41My0xLjM1LTEyLjM3LDAuM2MwLDAsMS4zNS0zLjY0LDQuMzktNC4yOSAgICAgYzAsMC02LjM5LTEuNS0xMC4xOC0wLjI1YzAsMCwzLjAxLTYuMTYsNy43Ny04LjI3YzAsMCwzLjYxLDEuNjMsNS4zNSwwLjkzYzAsMCwwLjM1LTEtMS4xOS0xLjY0YzAsMCw0LjI0LDAuMTUsNi4wOCwxLjA0ICAgICBjMCwwLDAuMTUtMC42OSwwLjA1LTEuMzRjMCwwLDQuODQsMS4wNyw3LjM0LDIuMzVjMCwwLDIuMDktMS41NiwxLjQtMi4yYzAsMCw1LjA0LTAuMiw2LjEsMC42OSAgICAgQzMyLjksNzYuNTQsMzIuMzIsNjcuNTEsMzIuOCw2Ni4xN3oiLz4mI3hhOwkJPC9nPiYjeGE7CQk8ZyBpZD0ic2hhcGUzOTgtMjMiIHRyYW5zZm9ybT0ibWF0cml4KDEsMCwwLC0xLDcyLjM5MDksMTA2LjQxMykiPiYjeGE7CQkJPHRpdGxlIGlkPSJ0aXRsZTE1MDA3NiI+cGF0aDI0NjwvdGl0bGU+JiN4YTsJCQk8cGF0aCBpZD0icGF0aDE1MDA3OCIgaW5rc2NhcGU6Y29ubmVjdG9yLWN1cnZhdHVyZT0iMCIgZD0iTTMuMTksNzguOTRjMCwwLDAuMTksNC4xMS0yLjAzLDUuMDVjMCwwLTEuMTYsNi4zMy0wLjU2LDcuNzIgICAgIGwyLjQ5LTIuMDdjMCwwLDAuNjktOC45NSwwLjM1LTEwLjdMMy4xOSw3OC45NHoiLz4mI3hhOwkJPC9nPiYjeGE7CQk8ZyBpZD0ic2hhcGUzOTktMjUiIHRyYW5zZm9ybT0ibWF0cml4KDEsMCwwLC0xLDgxLjU0MjEsMTM3LjMyMSkiPiYjeGE7CQkJPHRpdGxlIGlkPSJ0aXRsZTE1MDA4MSI+cGF0aDI1MDwvdGl0bGU+JiN4YTsJCQk8cGF0aCBpZD0icGF0aDE1MDA4MyIgaW5rc2NhcGU6Y29ubmVjdG9yLWN1cnZhdHVyZT0iMCIgc3R5bGU9ImZpbGw6I0YxRjFGMTsiIGQ9Ik02LjMzLDg3LjQzYzAsMC0zLjg1LTAuMDEtNS4wNS0yLjY4ICAgICBjMCwwLTEuMjgsNC44OSwwLjQ0LDYuOTZDMS43Miw5MS43MSwyLjE5LDg3Ljc3LDYuMzMsODcuNDN6Ii8+JiN4YTsJCTwvZz4mI3hhOwkJPGcgaWQ9InNoYXBlNDAwLTI3IiB0cmFuc2Zvcm09Im1hdHJpeCgxLDAsMCwtMSw4Ny44Njg0LDEzNy4zMjEpIj4mI3hhOwkJCTx0aXRsZSBpZD0idGl0bGUxNTAwODYiPnBhdGgyNTQ8L3RpdGxlPiYjeGE7CQkJPHBhdGggaWQ9InBhdGgxNTAwODgiIGlua3NjYXBlOmNvbm5lY3Rvci1jdXJ2YXR1cmU9IjAiIHN0eWxlPSJmaWxsOiNGMUYxRjE7IiBkPSJNMCw4Ny40M2MwLDAsMy44NS0wLjAxLDUuMDUtMi42OCAgICAgYzAsMCwxLjI4LDQuODktMC40NSw2Ljk2QzQuNiw5MS43MSw0LjEzLDg3Ljc3LDAsODcuNDN6Ii8+JiN4YTsJCTwvZz4mI3hhOwkJPGcgaWQ9InNoYXBlNDAxLTI5IiB0cmFuc2Zvcm09Im1hdHJpeCgxLDAsMCwtMSw2Ni4wMDM5LDE1NC43OTEpIj4mI3hhOwkJCTx0aXRsZSBpZD0idGl0bGUxNTAwOTEiPnBhdGgyOTg8L3RpdGxlPiYjeGE7CQkJPHBhdGggaWQ9InBhdGgxNTAwOTMiIGlua3NjYXBlOmNvbm5lY3Rvci1jdXJ2YXR1cmU9IjAiIHN0eWxlPSJmaWxsOiNDQkNCQ0I7IiBkPSJNNDMuMzMsOTAuOTJjLTAuNCwwLjY2LTEuNzMsMC43OS0xLjczLDAuNzkgICAgIEgyMS44NkgyLjEzYzAsMC0xLjMzLTAuMTMtMS43My0wLjc5QzAsOTAuMjUsMC44LDY5LjA5LDAuOCw2OS4wOWgyMS4wNmgyMS4wN0M0Mi45Myw2OS4wOSw0My43Myw5MC4yNSw0My4zMyw5MC45MnoiLz4mI3hhOwkJPC9nPiYjeGE7CQk8ZyBpZD0ic2hhcGU0MDItMzEiIHRyYW5zZm9ybT0ibWF0cml4KDEsMCwwLC0xLDY2LjAwMzksMTU1LjE4MikiPiYjeGE7CQkJPHRpdGxlIGlkPSJ0aXRsZTE1MDA5NiI+cGF0aDMwMjwvdGl0bGU+JiN4YTsJCQk8cGF0aCBpZD0icGF0aDE1MDA5OCIgaW5rc2NhcGU6Y29ubmVjdG9yLWN1cnZhdHVyZT0iMCIgc3R5bGU9ImZpbGw6I0U1RTVFNTsiIGQ9Ik00My4zMyw5MC45MmMtMC40LDAuNjYtMS43MywwLjc5LTEuNzMsMC43OSAgICAgSDIxLjg2SDIuMTNjMCwwLTEuMzMtMC4xMy0xLjczLTAuNzlDMCw5MC4yNSwwLjgsNjkuMDksMC44LDY5LjA5aDIxLjA2aDIxLjA3QzQyLjkzLDY5LjA5LDQzLjczLDkwLjI1LDQzLjMzLDkwLjkyeiIvPiYjeGE7CQk8L2c+JiN4YTsJCTxnIGlkPSJncm91cDQwMy0zMyIgdHJhbnNmb3JtPSJ0cmFuc2xhdGUoODMuODE5MSwtMTIuODg5KSI+JiN4YTsJCQk8dGl0bGUgaWQ9InRpdGxlMTUwMTAxIj5NaWNyb3NvZnQ8L3RpdGxlPiYjeGE7CQkJPGcgaWQ9InNoYXBlNDA0LTM0IiB0cmFuc2Zvcm09InRyYW5zbGF0ZSgwLC00LjI2NTMpIj4mI3hhOwkJCQk8dGl0bGUgaWQ9InRpdGxlMTUwMTAzIj5IVFRQIEFQSSBBcHA8L3RpdGxlPiYjeGE7CQkJCTxwYXRoIGlkPSJwYXRoMTUwMTA1IiBpbmtzY2FwZTpjb25uZWN0b3ItY3VydmF0dXJlPSIwIiBzdHlsZT0iZmlsbDojRjI1MDIyOyIgZD0iTTAsODcuODl2My44MmgzLjg0di0zLjgySDB6Ii8+JiN4YTsJCQk8L2c+JiN4YTsJCQk8ZyBpZD0ic2hhcGU0MDUtMzYiIHRyYW5zZm9ybT0idHJhbnNsYXRlKDQuMjYyOCwtNC4yNjUzKSI+JiN4YTsJCQkJPHRpdGxlIGlkPSJ0aXRsZTE1MDEwOCI+SFRUUCBBUEkgQXBwLjE0NjE8L3RpdGxlPiYjeGE7CQkJCTxwYXRoIGlkPSJwYXRoMTUwMTEwIiBpbmtzY2FwZTpjb25uZWN0b3ItY3VydmF0dXJlPSIwIiBzdHlsZT0iZmlsbDojN0ZCQTAwOyIgZD0iTTAsODcuODl2My44MmgzLjg0di0zLjgySDB6Ii8+JiN4YTsJCQk8L2c+JiN4YTsJCQk8ZyBpZD0ic2hhcGU0MDYtMzgiIHRyYW5zZm9ybT0idHJhbnNsYXRlKDQuMjYyOCkiPiYjeGE7CQkJCTx0aXRsZSBpZD0idGl0bGUxNTAxMTMiPkhUVFAgQVBJIEFwcC4xNDYyPC90aXRsZT4mI3hhOwkJCQk8cGF0aCBpZD0icGF0aDE1MDExNSIgaW5rc2NhcGU6Y29ubmVjdG9yLWN1cnZhdHVyZT0iMCIgc3R5bGU9ImZpbGw6I0ZGQjkwMDsiIGQ9Ik0wLDg3Ljg5djMuODJoMy44NHYtMy44MkgweiIvPiYjeGE7CQkJPC9nPiYjeGE7CQkJPGcgaWQ9InNoYXBlNDA3LTQwIj4mI3hhOwkJCQk8dGl0bGUgaWQ9InRpdGxlMTUwMTE4Ij5IVFRQIEFQSSBBcHAuMTQ2MzwvdGl0bGU+JiN4YTsJCQkJPHBhdGggaWQ9InBhdGgxNTAxMjAiIGlua3NjYXBlOmNvbm5lY3Rvci1jdXJ2YXR1cmU9IjAiIHN0eWxlPSJmaWxsOiMwMEE0RUY7IiBkPSJNMCw4Ny44OXYzLjgyaDMuODR2LTMuODJIMHoiLz4mI3hhOwkJCTwvZz4mI3hhOwkJPC9nPiYjeGE7CQk8ZyBpZD0ic2hhcGU0MDgtNDIiIHRyYW5zZm9ybT0idHJhbnNsYXRlKDc1LjExOTgsLTUxLjU2NzIpIj4mI3hhOwkJCTx0aXRsZSBpZD0idGl0bGUxNTAxMjQiPnBhdGg3OTU8L3RpdGxlPiYjeGE7CQkJPHBhdGggaWQ9InBhdGgxNTAxMjYiIGlua3NjYXBlOmNvbm5lY3Rvci1jdXJ2YXR1cmU9IjAiIGQ9Ik0xMy43Niw5MC40OWgtMi4wM2wwLjUxLDAuOTRsMC41LDAuMjd2MC4wMWgwLjAxbDAsMFY5MS43bDAuNS0wLjI3ICAgICBMMTMuNzYsOTAuNDl6IE0yNS41LDczLjY1bC0xLjc5LDAuMjNsLTAuMi0wLjA3bC0yLjQ0LTAuNDhoLTQuMDNsLTMuNzIsMC42aC0xLjE4bC0zLjcyLTAuNkg0LjRsLTIuNDMsMC40OGwtMC4xOSwwLjA3TDAsNzMuNjUgICAgIHYwLjcybDAuOTYsMC4xM2wwLjczLDMuMzhsMC42MywwLjYzbDEuOTIsMC40N2gzLjI1bDIuODQtMC42NGwxLjQ3LTIuMzVsMC41OS0wLjY3aDAuNjdsMC41OSwwLjY3bDEuNDcsMi4zNWwyLjg0LDAuNjRoMy4yNSAgICAgbDEuOTItMC40N2wwLjYzLTAuNjNsMC43My0zLjM4bDAuOTYtMC4xM0wyNS41LDczLjY1eiBNMTAuNzgsNzUuNDdsLTAuOCwyLjI2bC0yLjY3LDAuNThINC4xOGwtMS40Mi0wLjM3bC0wLjUyLTAuNDVsLTAuMzktMi41ICAgICBsMC40My0wLjUybDIuMDktMC40aDMuOTlsMi40NCwwLjM3TDEwLjc4LDc1LjQ3eiBNMjMuMjUsNzcuNDlsLTAuNTIsMC40NWwtMS40MiwwLjM2aC0zLjE0bC0yLjY2LTAuNTdsLTAuODEtMi4yNXYtMS4wNSAgICAgbDIuNDQtMC4zN2gzLjk4bDIuMDksMC40bDAuNDMsMC41MkwyMy4yNSw3Ny40OXoiLz4mI3hhOwkJPC9nPiYjeGE7CQk8ZyBpZD0ic2hhcGU0MDktNDQiIHRyYW5zZm9ybT0idHJhbnNsYXRlKDAuMDY3NjI4NywtNy4wMjU3MSkiPiYjeGE7CQkJPHRpdGxlIGlkPSJ0aXRsZTE1MDEyOSI+U2hlZXQuNDA5PC90aXRsZT4mI3hhOwkJCTxwYXRoIGlkPSJwYXRoMTUwMTMxIiBpbmtzY2FwZTpjb25uZWN0b3ItY3VydmF0dXJlPSIwIiBzdHlsZT0iZmlsbDojMDA5MjQ1OyIgZD0iTTI4LjY3LDkxLjcxYy0wLjI3LDAtMC41NC0wLjEzLTAuNzQtMC4zMyAgICAgTDAuNDEsNjMuODVjLTAuNDEtMC40LTAuNDEtMS4wOCwwLTEuNDljMC40LTAuNCwxLjA4LTAuNCwxLjQ4LDBsMjcuNTMsMjcuNTNjMC40LDAuNCwwLjQsMS4wOCwwLDEuNDkgICAgIEMyOS4xNSw5MS41MSwyOC44OCw5MS43MSwyOC42Nyw5MS43MXoiLz4mI3hhOwkJPC9nPiYjeGE7CQk8ZyBpZD0ic2hhcGU0MTAtNDYiIHRyYW5zZm9ybT0idHJhbnNsYXRlKDMuOTIyNDYsLTExLjAxNTgpIj4mI3hhOwkJCTx0aXRsZSBpZD0idGl0bGUxNTAxMzQiPlNoZWV0LjQxMDwvdGl0bGU+JiN4YTsJCQk8cGF0aCBpZD0icGF0aDE1MDEzNiIgaW5rc2NhcGU6Y29ubmVjdG9yLWN1cnZhdHVyZT0iMCIgc3R5bGU9ImZpbGw6IzAwOTI0NTsiIGQ9Ik0yOC43NCw5MS43MWMtMC4yNywwLTAuNTQtMC4xMy0wLjc0LTAuMzMgICAgIEwwLjQxLDYzLjkyQzAsNjMuNTEsMCw2Mi44NCwwLjQxLDYyLjQzYzAuNC0wLjQsMS4wOC0wLjQsMS40OCwwbDI3LjYsMjcuNTNjMC40LDAuNCwwLjQsMS4wOCwwLDEuNDggICAgIEMyOS4yOCw5MS42NSwyOS4wMSw5MS43MSwyOC43NCw5MS43MXoiLz4mI3hhOwkJPC9nPiYjeGE7CQk8ZyBpZD0ic2hhcGU0MTEtNDgiIHRyYW5zZm9ybT0idHJhbnNsYXRlKDAsLTM0LjY4NTgpIj4mI3hhOwkJCTx0aXRsZSBpZD0idGl0bGUxNTAxMzkiPlNoZWV0LjQxMTwvdGl0bGU+JiN4YTsJCQk8cGF0aCBpZD0icGF0aDE1MDE0MSIgaW5rc2NhcGU6Y29ubmVjdG9yLWN1cnZhdHVyZT0iMCIgc3R5bGU9ImZpbGw6IzAwOTI0NTsiIGQ9Ik0xLjE1LDkxLjcxYy0wLjI3LDAtMC41NC0wLjEzLTAuNzQtMC4zMyAgICAgQzAsOTAuOTcsMCw5MC4yOSwwLjQxLDg5Ljg5TDI4LDYyLjQzYzAuNC0wLjQsMS4wOC0wLjQsMS40OSwwYzAuNCwwLjQxLDAuNCwxLjA4LDAsMS40OUwxLjk2LDkxLjQ0ICAgICBDMS42OSw5MS43MSwxLjQyLDkxLjcxLDEuMTUsOTEuNzF6Ii8+JiN4YTsJCTwvZz4mI3hhOwkJPGcgaWQ9InNoYXBlNDEyLTUwIiB0cmFuc2Zvcm09InRyYW5zbGF0ZSgzLjkyMjQ2LC0zMC42MjgxKSI+JiN4YTsJCQk8dGl0bGUgaWQ9InRpdGxlMTUwMTQ0Ij5TaGVldC40MTI8L3RpdGxlPiYjeGE7CQkJPHBhdGggaWQ9InBhdGgxNTAxNDYiIGlua3NjYXBlOmNvbm5lY3Rvci1jdXJ2YXR1cmU9IjAiIHN0eWxlPSJmaWxsOiMwMDkyNDU7IiBkPSJNMS4xNSw5MS43MWMtMC4yNywwLTAuNTQtMC4xMy0wLjc0LTAuMzMgICAgIEMwLDkwLjk3LDAsOTAuMjksMC40MSw4OS44OWwyNy41Mi0yNy41M2MwLjQxLTAuNCwxLjA4LTAuNCwxLjQ5LDBjMC40LDAuNDEsMC40LDEuMDksMCwxLjQ5TDEuODksOTEuMzggICAgIEMxLjY5LDkxLjUxLDEuNDIsOTEuNzEsMS4xNSw5MS43MXoiLz4mI3hhOwkJPC9nPiYjeGE7CQk8ZyBpZD0ic2hhcGU0MTMtNTIiIHRyYW5zZm9ybT0idHJhbnNsYXRlKDI3LjcyNzgsLTYyLjE0MzEpIj4mI3hhOwkJCTx0aXRsZSBpZD0idGl0bGUxNTAxNDkiPlNoZWV0LjQxMzwvdGl0bGU+JiN4YTsJCQk8cGF0aCBpZD0icGF0aDE1MDE1MSIgaW5rc2NhcGU6Y29ubmVjdG9yLWN1cnZhdHVyZT0iMCIgc3R5bGU9ImZpbGw6IzAwOTI0NTsiIGQ9Ik00Ljk0LDkxLjcxSDEuMDFDMC40MSw5MS43MSwwLDkxLjI0LDAsOTAuNyAgICAgYzAtMC42MSwwLjQ3LTEuMDEsMS4wMS0xLjAxaDMuOTNjMC42MSwwLDEuMDEsMC40NywxLjAxLDEuMDFDNS45NSw5MS4xNyw1LjQ4LDkxLjcxLDQuOTQsOTEuNzF6Ii8+JiN4YTsJCTwvZz4mI3hhOwkJPGcgaWQ9InNoYXBlNDE0LTU0IiB0cmFuc2Zvcm09InRyYW5zbGF0ZSgzMS42NTAyLC01OC4yODgyKSI+JiN4YTsJCQk8dGl0bGUgaWQ9InRpdGxlMTUwMTU0Ij5TaGVldC40MTQ8L3RpdGxlPiYjeGE7CQkJPHBhdGggaWQ9InBhdGgxNTAxNTYiIGlua3NjYXBlOmNvbm5lY3Rvci1jdXJ2YXR1cmU9IjAiIHN0eWxlPSJmaWxsOiMwMDkyNDU7IiBkPSJNMS4wMSw5MS43MUMwLjQxLDkxLjcxLDAsOTEuMjQsMCw5MC43di0zLjkyICAgICBjMC0wLjYxLDAuNDctMS4wMiwxLjAxLTEuMDJjMC42MSwwLDEuMDIsMC40OCwxLjAyLDEuMDJ2My45MkMyLjAzLDkxLjI0LDEuNTYsOTEuNzEsMS4wMSw5MS43MXoiLz4mI3hhOwkJPC9nPiYjeGE7CQk8ZyBpZD0ic2hhcGU0MTUtNTYiIHRyYW5zZm9ybT0idHJhbnNsYXRlKDMxLjUxNSwtNjIuMTQzMSkiPiYjeGE7CQkJPHRpdGxlIGlkPSJ0aXRsZTE1MDE1OSI+U2hlZXQuNDE1PC90aXRsZT4mI3hhOwkJCTxwYXRoIGlkPSJwYXRoMTUwMTYxIiBpbmtzY2FwZTpjb25uZWN0b3ItY3VydmF0dXJlPSIwIiBzdHlsZT0iZmlsbDojMDA5MjQ1OyIgZD0iTTEuMTUsOTEuNzFjLTAuMjcsMC0wLjU0LTAuMTMtMC43NC0wLjMzICAgICBDMCw5MC45NywwLDkwLjI5LDAuNDEsODkuODlMNi4yOSw4NGMwLjQxLTAuNCwxLjA4LTAuNCwxLjQ5LDBjMC40LDAuNDEsMC40LDEuMDksMCwxLjQ5bC01Ljg5LDUuODkgICAgIEMxLjY5LDkxLjUxLDEuNDIsOTEuNzEsMS4xNSw5MS43MXoiLz4mI3hhOwkJPC9nPiYjeGE7CQk8ZyBpZD0ic2hhcGU0MTYtNTgiIHRyYW5zZm9ybT0icm90YXRlKC00NSwtMzguNDU3ODUsMS4zNjk0NjMpIj4mI3hhOwkJCTx0aXRsZSBpZD0idGl0bGUxNTAxNjQiPlNoZWV0LjQxNjwvdGl0bGU+JiN4YTsJCQk8Y2lyY2xlIGlkPSJlbGxpcHNlMTUwMTY2IiBzdHlsZT0iZmlsbDojQzlEQTJBOyIgY3g9IjUuNjgiIGN5PSI4Ni4wMyIgcj0iNS42OCIvPiYjeGE7CQk8L2c+JiN4YTsJCTxnIGlkPSJzaGFwZTQxNy02MCIgdHJhbnNmb3JtPSJyb3RhdGUoLTQ0Ljk5NTksLTQwLjIwNDM3MywxNC4yOTA0NDMpIj4mI3hhOwkJCTx0aXRsZSBpZD0idGl0bGUxNTAxNjkiPlNoZWV0LjQxNzwvdGl0bGU+JiN4YTsJCQkmI3hhOwkJCQk8cmVjdCBpZD0icmVjdDE1MDE3MSIgeD0iMCIgeT0iOTAuNSIgdHJhbnNmb3JtPSJtYXRyaXgoLTEgMi4zODc2NDVlLTA2IC0yLjM4NzY0NWUtMDYgLTEgMjguNjA5NSAxODIuMjEyNCkiIHN0eWxlPSJmaWxsOiMwMDkyNDU7IiB3aWR0aD0iMjguNjEiIGhlaWdodD0iMS4yMiIvPiYjeGE7CQk8L2c+JiN4YTsJCTxnIGlkPSJzaGFwZTQxOC02MiIgdHJhbnNmb3JtPSJ0cmFuc2xhdGUoMjkuNzU2NiwtNjIuNDgxMikiPiYjeGE7CQkJPHRpdGxlIGlkPSJ0aXRsZTE1MDE3NCI+U2hlZXQuNDE4PC90aXRsZT4mI3hhOwkJCTxwYXRoIGlkPSJwYXRoMTUwMTc2IiBpbmtzY2FwZTpjb25uZWN0b3ItY3VydmF0dXJlPSIwIiBzdHlsZT0iZmlsbDojMjJCNTczOyIgZD0iTTAsNzcuMzFsNy43MS03LjcxbDE0LjM0LDEyLjExbC05Ljk0LDEwICAgICBMMCw3Ny4zMXoiLz4mI3hhOwkJPC9nPiYjeGE7CQk8ZyBpZD0ic2hhcGU0MTktNjQiIHRyYW5zZm9ybT0idHJhbnNsYXRlKDM3LjYwMTUsLTUxLjk5ODgpIj4mI3hhOwkJCTx0aXRsZSBpZD0idGl0bGUxNTAxNzkiPlNoZWV0LjQxOTwvdGl0bGU+JiN4YTsJCQk8cGF0aCBpZD0icGF0aDE1MDE4MSIgaW5rc2NhcGU6Y29ubmVjdG9yLWN1cnZhdHVyZT0iMCIgc3R5bGU9ImZpbGw6IzIyQjU3MzsiIGQ9Ik0yNC42OCw3MS41Nkw0LjQ2LDkxLjcxTDAsNzQuOTRsNy44NC03LjkxICAgICBMMjQuNjgsNzEuNTZ6Ii8+JiN4YTsJCTwvZz4mI3hhOwkJPGcgaWQ9InNoYXBlNDIwLTY2IiB0cmFuc2Zvcm09InRyYW5zbGF0ZSgxNC44NzgzLC02LjY4NzU3KSI+JiN4YTsJCQk8dGl0bGUgaWQ9InRpdGxlMTUwMTg0Ij5TaGVldC40MjA8L3RpdGxlPiYjeGE7CQkJPHBhdGggaWQ9InBhdGgxNTAxODYiIGlua3NjYXBlOmNvbm5lY3Rvci1jdXJ2YXR1cmU9IjAiIHN0eWxlPSJmaWxsOiMyMkI1NzM7IiBkPSJNMjIuMjUsODYuMTdINS41NUMyLjUsODYuMTcsMCw4OC42NywwLDkxLjcxICAgICBoMjcuODZDMjcuODYsODguNzQsMjUuMzYsODYuMTcsMjIuMjUsODYuMTd6Ii8+JiN4YTsJCTwvZz4mI3hhOwkJPGcgaWQ9InNoYXBlNDIxLTY4IiB0cmFuc2Zvcm09InRyYW5zbGF0ZSgxMy44NjUyKSI+JiN4YTsJCQk8dGl0bGUgaWQ9InRpdGxlMTUwMTg5Ij5TaGVldC40MjE8L3RpdGxlPiYjeGE7CQkJPHJlY3QgaWQ9InJlY3QxNTAxOTEiIHg9IjAiIHk9Ijg0LjIxIiBzdHlsZT0iZmlsbDojMDBBRUVGOyIgd2lkdGg9IjEyMC42NCIgaGVpZ2h0PSI3LjUxIi8+JiN4YTsJCTwvZz4mI3hhOwk8L2c+JiN4YTs8L2c+JiN4YTs8L3N2Zz4=;" vertex="1" parent="1">
          <mxGeometry x="40" y="480" width="134" height="90" as="geometry" />
        </mxCell>
        <mxCell id="IiSIE2QJ0df0l0FEDecD-64" style="edgeStyle=orthogonalEdgeStyle;rounded=0;hachureGap=4;orthogonalLoop=1;jettySize=auto;html=1;entryX=0.404;entryY=0.008;entryDx=0;entryDy=0;entryPerimeter=0;fontFamily=Architects Daughter;fontSource=https%3A%2F%2Ffonts.googleapis.com%2Fcss%3Ffamily%3DArchitects%2BDaughter;fontSize=16;" edge="1" parent="1" source="IiSIE2QJ0df0l0FEDecD-19" target="IiSIE2QJ0df0l0FEDecD-21">
          <mxGeometry relative="1" as="geometry" />
        </mxCell>
        <mxCell id="IiSIE2QJ0df0l0FEDecD-19" value="Mail" style="shape=image;verticalLabelPosition=bottom;labelBackgroundColor=#ffffff;verticalAlign=top;aspect=fixed;imageAspect=0;image=data:image/svg+xml,PHN2ZyB4bWxuczpkYz0iaHR0cDovL3B1cmwub3JnL2RjL2VsZW1lbnRzLzEuMS8iIHhtbG5zOmNjPSJodHRwOi8vY3JlYXRpdmVjb21tb25zLm9yZy9ucyMiIHhtbG5zOnJkZj0iaHR0cDovL3d3dy53My5vcmcvMTk5OS8wMi8yMi1yZGYtc3ludGF4LW5zIyIgeG1sbnM6c3ZnPSJodHRwOi8vd3d3LnczLm9yZy8yMDAwL3N2ZyIgeG1sbnM9Imh0dHA6Ly93d3cudzMub3JnLzIwMDAvc3ZnIiB4bWxuczpzb2RpcG9kaT0iaHR0cDovL3NvZGlwb2RpLnNvdXJjZWZvcmdlLm5ldC9EVEQvc29kaXBvZGktMC5kdGQiIHhtbG5zOmlua3NjYXBlPSJodHRwOi8vd3d3Lmlua3NjYXBlLm9yZy9uYW1lc3BhY2VzL2lua3NjYXBlIiB2ZXJzaW9uPSIxLjEiIGlkPSJzdmcyNjQwMCIgeD0iMHB4IiB5PSIwcHgiIHZpZXdCb3g9IjAgMCA3NS41MiA3NS41MiIgc3R5bGU9ImVuYWJsZS1iYWNrZ3JvdW5kOm5ldyAwIDAgNzUuNTIgNzUuNTI7IiB4bWw6c3BhY2U9InByZXNlcnZlIiBzb2RpcG9kaTpkb2NuYW1lPSJhenVyZV9zZXJ2aWNlX2J1cy5zdmciIGlua3NjYXBlOnZlcnNpb249IjAuOTIuMyAoMjQwNTU0NiwgMjAxOC0wMy0xMSkiPjxtZXRhZGF0YSBpZD0ibWV0YWRhdGE0MzE5NyI+PHJkZjpSREY+PGNjOldvcmsgcmRmOmFib3V0PSIiPjxkYzpmb3JtYXQ+aW1hZ2Uvc3ZnK3htbDwvZGM6Zm9ybWF0PjxkYzp0eXBlIHJkZjpyZXNvdXJjZT0iaHR0cDovL3B1cmwub3JnL2RjL2RjbWl0eXBlL1N0aWxsSW1hZ2UiLz48ZGM6dGl0bGUvPjwvY2M6V29yaz48L3JkZjpSREY+PC9tZXRhZGF0YT48ZGVmcyBpZD0iZGVmczQzMTk1Ii8+JiN4YTs8ZmlsdGVyIGlkPSJmaWx0ZXJfMiI+JiN4YTsJPGZlR2F1c3NpYW5CbHVyIGlkPSJmZUdhdXNzaWFuQmx1cjI2MzU3IiBzdGREZXZpYXRpb249IjIiLz4mI3hhOzwvZmlsdGVyPiYjeGE7PHNvZGlwb2RpOm5hbWVkdmlldyBib3JkZXJjb2xvcj0iIzY2NjY2NiIgYm9yZGVyb3BhY2l0eT0iMSIgZml0LW1hcmdpbi1ib3R0b209IjAiIGZpdC1tYXJnaW4tbGVmdD0iMCIgZml0LW1hcmdpbi1yaWdodD0iMCIgZml0LW1hcmdpbi10b3A9IjAiIGdyaWR0b2xlcmFuY2U9IjEwIiBndWlkZXRvbGVyYW5jZT0iMTAiIGlkPSJuYW1lZHZpZXcyNjQwMiIgaW5rc2NhcGU6Y3VycmVudC1sYXllcj0ic3ZnMjY0MDAiIGlua3NjYXBlOmN4PSI1Ni45ODY0NzEiIGlua3NjYXBlOmN5PSIzNS4yMTk3IiBpbmtzY2FwZTpwYWdlb3BhY2l0eT0iMCIgaW5rc2NhcGU6cGFnZXNoYWRvdz0iMiIgaW5rc2NhcGU6d2luZG93LWhlaWdodD0iMTAxNyIgaW5rc2NhcGU6d2luZG93LW1heGltaXplZD0iMSIgaW5rc2NhcGU6d2luZG93LXdpZHRoPSIxOTIwIiBpbmtzY2FwZTp3aW5kb3cteD0iLTgiIGlua3NjYXBlOndpbmRvdy15PSItOCIgaW5rc2NhcGU6em9vbT0iNC41OTc4NTkiIG9iamVjdHRvbGVyYW5jZT0iMTAiIHBhZ2Vjb2xvcj0iI2ZmZmZmZiIgc2hvd2dyaWQ9ImZhbHNlIj4mI3hhOwk8L3NvZGlwb2RpOm5hbWVkdmlldz4mI3hhOyYjeGE7PHBhdGggaWQ9InBhdGgyNjM3MCIgaW5rc2NhcGU6Y29ubmVjdG9yLWN1cnZhdHVyZT0iMCIgc3R5bGU9ImZpbGwtcnVsZTpldmVub2RkO2NsaXAtcnVsZTpldmVub2RkO2ZpbGw6IzAwNzJDNjsiIGQ9Ik0xLjI2LDAgIEMwLjUsMCwwLDAuNSwwLDEuMjZ2MTUuMWMwLDAuNzYsMC41LDEuMjYsMS4yNiwxLjI2aDcuNTVjMC43NiwwLDEuMjYtMC41LDEuMjYtMS4yNnYtNi4yOWg1NS4zOHY2LjI5YzAsMC43NiwwLjUsMS4yNiwxLjUxLDEuMjYgIGg3LjNjMC43NiwwLDEuMjYtMC41LDEuMjYtMS4yNlY4LjgxVjEuMjZjMC0wLjc2LTAuNS0xLjI2LTEuMjYtMS4yNkgxLjI2eiIvPiYjeGE7JiN4YTs8cGF0aCBpZD0icGF0aDI2Mzc4IiBpbmtzY2FwZTpjb25uZWN0b3ItY3VydmF0dXJlPSIwIiBzdHlsZT0iZmlsbC1ydWxlOmV2ZW5vZGQ7Y2xpcC1ydWxlOmV2ZW5vZGQ7ZmlsbDojMDA3MkM2OyIgZD0iTTc0LjI2LDc1LjUyICBjMC43NiwwLDEuMjYtMC41LDEuMjYtMS4yNlY1OS40MWMwLTAuNzUtMC41LTEuMjYtMS4yNi0xLjI2aC03LjNjLTAuNzUsMC0xLjI1LDAuNTEtMS4yNSwxLjI2djYuMDRIMTAuMDd2LTYuMjkgIGMwLTAuNzYtMC41LTEuMjYtMS41MS0xLjI2aC03LjNDMC41LDU3LjksMCw1OC40LDAsNTkuNDF2MTQuODVjMCwwLjc2LDAuNSwxLjI2LDEuMjYsMS4yNkg3NC4yNnoiLz4mI3hhOyYjeGE7PHBhdGggaWQ9InBhdGgyNjM4NiIgaW5rc2NhcGU6Y29ubmVjdG9yLWN1cnZhdHVyZT0iMCIgc3R5bGU9ImZpbGwtcnVsZTpldmVub2RkO2NsaXAtcnVsZTpldmVub2RkO2ZpbGw6IzU5QjREOTsiIGQ9Ik00NS4wOSwzOS40MiAgYy0xLjk1LDEuOTYtNC41NiwzLjA0LTcuMzMsMy4wNGMtMi43NywwLTUuMzgtMS4wOC03LjM0LTMuMDRMMTYuMzYsMjUuMzZ2MjguNThoNDIuOFYyNS4zNkw0NS4wOSwzOS40MnoiLz4mI3hhOzxnIGlkPSJzaGFkb3cyNDQtMTgiIHRyYW5zZm9ybT0idHJhbnNsYXRlKDE2LjcwODIsLTU3LjY1ODQpIj4mI3hhOwk8ZyBpZD0icGF0aDI2MzkxIiBpbmtzY2FwZTpjb25uZWN0b3ItY3VydmF0dXJlPSIwIiBzdHlsZT0iZmlsdGVyOnVybCgjZmlsdGVyXzIpOyI+JiN4YTsJCTxwYXRoIHN0eWxlPSJvcGFjaXR5OjAuMjI7ZmlsbC1ydWxlOmV2ZW5vZGQ7Y2xpcC1ydWxlOmV2ZW5vZGQ7ZmlsbDojNUI5QkQ1OyIgZD0iTTIxLjQsMTAwYzIuMjEsMCw0LjI5LTAuODYsNS44Ni0yLjQzICAgIEw0Mi44LDgyLjA0di0wLjgySDB2MC44MmwxNS41NCwxNS41M0MxNy4xLDk5LjE0LDE5LjE4LDEwMCwyMS40LDEwMHoiIGlkPSJwYXRoNDMxODkiLz4mI3hhOwk8L2c+JiN4YTs8L2c+JiN4YTs8cGF0aCBpZD0icGF0aDI2Mzk0IiBpbmtzY2FwZTpjb25uZWN0b3ItY3VydmF0dXJlPSIwIiBzdHlsZT0iZmlsbC1ydWxlOmV2ZW5vZGQ7Y2xpcC1ydWxlOmV2ZW5vZGQ7ZmlsbDojNTlCNEQ5OyIgZD0iTTM3Ljc2LDQwLjM3ICBjMi4yMSwwLDQuMjktMC44Niw1Ljg2LTIuNDNsMTUuNTQtMTUuNTN2LTAuODJoLTQyLjh2MC44MkwzMS45LDM3Ljk0QzMzLjQ2LDM5LjUxLDM1LjU0LDQwLjM3LDM3Ljc2LDQwLjM3eiIvPiYjeGE7PC9zdmc+;shadow=1;" vertex="1" parent="1">
          <mxGeometry x="50" y="310" width="90" height="90" as="geometry" />
        </mxCell>
        <mxCell id="IiSIE2QJ0df0l0FEDecD-62" style="edgeStyle=orthogonalEdgeStyle;rounded=0;hachureGap=4;orthogonalLoop=1;jettySize=auto;html=1;entryX=0.943;entryY=0.318;entryDx=0;entryDy=0;entryPerimeter=0;fontFamily=Architects Daughter;fontSource=https%3A%2F%2Ffonts.googleapis.com%2Fcss%3Ffamily%3DArchitects%2BDaughter;fontSize=16;" edge="1" parent="1" source="UEzPUAAOIrF-is8g5C7q-81" target="IiSIE2QJ0df0l0FEDecD-19">
          <mxGeometry relative="1" as="geometry" />
        </mxCell>
      </root>
    </mxGraphModel>
  </diagram>
</mxfile>
